<?xml version="1.0" encoding="us-ascii" standalone="no"?><svg xmlns="http://www.w3.org/2000/svg" xmlns:xlink="http://www.w3.org/1999/xlink" contentStyleType="text/css" height="428px" preserveAspectRatio="none" style="width:617px;height:428px;" version="1.1" viewBox="0 0 617 428" width="617px" zoomAndPan="magnify"><defs/><g><!--cluster IFD0--><g id="cluster_IFD0"><path d="M34.5,6 L69.5,6 A3.75,3.75 0 0 1 72,8.5 L79,28.2969 L427.5,28.2969 A2.5,2.5 0 0 1 430,30.7969 L430,90.8 A2.5,2.5 0 0 1 427.5,93.3 L34.5,93.3 A2.5,2.5 0 0 1 32,90.8 L32,8.5 A2.5,2.5 0 0 1 34.5,6 " fill="#FFFFFF" style="stroke:#000000;stroke-width:1.5;"/><line style="stroke:#000000;stroke-width:1.5;" x1="32" x2="79" y1="28.2969" y2="28.2969"/><text fill="#000000" font-family="sans-serif" font-size="14" font-weight="bold" lengthAdjust="spacing" textLength="34" x="36" y="20.9951">IFD0</text></g><!--cluster IFD1--><g id="cluster_IFD1"><path d="M8.5,150.3 L43.5,150.3 A3.75,3.75 0 0 1 46,152.8 L53,172.5969 L310.5,172.5969 A2.5,2.5 0 0 1 313,175.0969 L313,251.09 A2.5,2.5 0 0 1 310.5,253.59 L8.5,253.59 A2.5,2.5 0 0 1 6,251.09 L6,152.8 A2.5,2.5 0 0 1 8.5,150.3 " fill="#FFFFFF" style="stroke:#000000;stroke-width:1.5;"/><line style="stroke:#000000;stroke-width:1.5;" x1="6" x2="53" y1="172.5969" y2="172.5969"/><text fill="#000000" font-family="sans-serif" font-size="14" font-weight="bold" lengthAdjust="spacing" textLength="34" x="10" y="165.2951">IFD1</text></g><!--cluster IFDm0s1--><g id="cluster_IFDm0s1"><path d="M366.5,318.59 L391.5,318.59 A3.75,3.75 0 0 1 394,321.09 L401,340.8869 L549.5,340.8869 A2.5,2.5 0 0 1 552,343.3869 L552,419.39 A2.5,2.5 0 0 1 549.5,421.89 L366.5,421.89 A2.5,2.5 0 0 1 364,419.39 L364,321.09 A2.5,2.5 0 0 1 366.5,318.59 " fill="none" style="stroke:#000000;stroke-width:1.5;"/><line style="stroke:#000000;stroke-width:1.5;" x1="364" x2="401" y1="340.8869" y2="340.8869"/><text fill="#000000" font-family="sans-serif" font-size="14" font-weight="bold" lengthAdjust="spacing" textLength="24" x="368" y="333.5851">IFD</text></g><!--cluster IFDm0s2--><g id="cluster_IFDm0s2"><path d="M424.5,150.3 L449.5,150.3 A3.75,3.75 0 0 1 452,152.8 L459,172.5969 L607.5,172.5969 A2.5,2.5 0 0 1 610,175.0969 L610,251.09 A2.5,2.5 0 0 1 607.5,253.59 L424.5,253.59 A2.5,2.5 0 0 1 422,251.09 L422,152.8 A2.5,2.5 0 0 1 424.5,150.3 " fill="none" style="stroke:#000000;stroke-width:1.5;"/><line style="stroke:#000000;stroke-width:1.5;" x1="422" x2="459" y1="172.5969" y2="172.5969"/><text fill="#000000" font-family="sans-serif" font-size="14" font-weight="bold" lengthAdjust="spacing" textLength="24" x="426" y="165.2951">IFD</text></g><!--cluster IFDm1s1--><g id="cluster_IFDm1s1"><path d="M138.5,318.59 L163.5,318.59 A3.75,3.75 0 0 1 166,321.09 L173,340.8869 L321.5,340.8869 A2.5,2.5 0 0 1 324,343.3869 L324,419.39 A2.5,2.5 0 0 1 321.5,421.89 L138.5,421.89 A2.5,2.5 0 0 1 136,419.39 L136,321.09 A2.5,2.5 0 0 1 138.5,318.59 " fill="none" style="stroke:#000000;stroke-width:1.5;"/><line style="stroke:#000000;stroke-width:1.5;" x1="136" x2="173" y1="340.8869" y2="340.8869"/><text fill="#000000" font-family="sans-serif" font-size="14" font-weight="bold" lengthAdjust="spacing" textLength="24" x="140" y="333.5851">IFD</text></g><!--entity IFD0_Tag_NextIFD--><g id="elem_IFD0_Tag_NextIFD"><rect fill="#F1F1F1" height="36.2969" rx="2.5" ry="2.5" style="stroke:#181818;stroke-width:0.5;" width="92.3333" x="202.83" y="41"/><path d="M213.83,54.4635 L213.83,57.9635 L219.6633,63.7969 L223.1633,60.2969 L217.33,54.4635 L213.83,54.4635 M216.1633,55.6302 C216.805,55.6302 217.33,56.1552 217.33,56.7969 C217.33,57.4385 216.805,57.9635 216.1633,57.9635 C215.5217,57.9635 214.9967,57.4385 214.9967,56.7969 C214.9967,56.1552 215.5217,55.6302 216.1633,55.6302 " fill="#000000" style="stroke:;stroke-width:0.0;stroke-dasharray:;"/><text fill="#000000" font-family="sans-serif" font-size="14" lengthAdjust="spacing" textLength="57" x="228.1633" y="63.9951">Next IFD</text></g><!--entity IFD0_Tag_SubIFD--><g id="elem_IFD0_Tag_SubIFD"><rect fill="#F1F1F1" height="36.2969" rx="2.5" ry="2.5" style="stroke:#181818;stroke-width:0.5;" width="84.3333" x="329.83" y="41"/><path d="M340.83,54.4635 L340.83,57.9635 L346.6633,63.7969 L350.1633,60.2969 L344.33,54.4635 L340.83,54.4635 M343.1633,55.6302 C343.805,55.6302 344.33,56.1552 344.33,56.7969 C344.33,57.4385 343.805,57.9635 343.1633,57.9635 C342.5217,57.9635 341.9967,57.4385 341.9967,56.7969 C341.9967,56.1552 342.5217,55.6302 343.1633,55.6302 " fill="#000000" style="stroke:;stroke-width:0.0;stroke-dasharray:;"/><text fill="#000000" font-family="sans-serif" font-size="14" lengthAdjust="spacing" textLength="49" x="355.1633" y="63.9951">SubIFD</text></g><!--entity IFD0_Data--><g id="elem_IFD0_Data"><rect fill="#F1F1F1" height="36.2969" rx="2.5" ry="2.5" style="stroke:#181818;stroke-width:0.5;" width="120.3333" x="47.83" y="41"/><path d="M58.83,54.4635 L58.83,63.7969 L68.1633,63.7969 L68.1633,54.4635 L58.83,54.4635 M59.9967,55.6302 L66.9967,55.6302 L66.9967,59.1302 L65.83,57.9635 L64.6633,59.1302 L66.9967,61.4635 L66.9967,62.6302 L65.83,62.6302 L61.1633,57.9635 L59.9967,59.1302 L59.9967,55.6302 " fill="#000000" style="stroke:;stroke-width:0.0;stroke-dasharray:;"/><text fill="#000000" font-family="sans-serif" font-size="14" lengthAdjust="spacing" textLength="4" x="69.1633" y="63.9951">&#160;</text><text fill="#000000" font-family="sans-serif" font-size="14" font-style="italic" lengthAdjust="spacing" textLength="85" x="73.1633" y="63.9951">Image Bytes</text></g><!--entity IFD1_Tag_SubIFD--><g id="elem_IFD1_Tag_SubIFD"><rect fill="#F1F1F1" height="36.2969" rx="2.5" ry="2.5" style="stroke:#181818;stroke-width:0.5;" width="84.3333" x="204.83" y="193.3"/><path d="M215.83,206.7635 L215.83,210.2635 L221.6633,216.0969 L225.1633,212.5969 L219.33,206.7635 L215.83,206.7635 M218.1633,207.9302 C218.805,207.9302 219.33,208.4552 219.33,209.0969 C219.33,209.7385 218.805,210.2635 218.1633,210.2635 C217.5217,210.2635 216.9967,209.7385 216.9967,209.0969 C216.9967,208.4552 217.5217,207.9302 218.1633,207.9302 " fill="#000000" style="stroke:;stroke-width:0.0;stroke-dasharray:;"/><text fill="#000000" font-family="sans-serif" font-size="14" lengthAdjust="spacing" textLength="49" x="230.1633" y="216.2951">SubIFD</text></g><!--entity IFD1_Data--><g id="elem_IFD1_Data"><rect fill="#F1F1F1" height="36.2969" rx="2.5" ry="2.5" style="stroke:#181818;stroke-width:0.5;" width="120.3333" x="49.83" y="193.3"/><path d="M60.83,206.7635 L60.83,216.0969 L70.1633,216.0969 L70.1633,206.7635 L60.83,206.7635 M61.9967,207.9302 L68.9967,207.9302 L68.9967,211.4302 L67.83,210.2635 L66.6633,211.4302 L68.9967,213.7635 L68.9967,214.9302 L67.83,214.9302 L63.1633,210.2635 L61.9967,211.4302 L61.9967,207.9302 " fill="#000000" style="stroke:;stroke-width:0.0;stroke-dasharray:;"/><text fill="#000000" font-family="sans-serif" font-size="14" lengthAdjust="spacing" textLength="4" x="71.1633" y="216.2951">&#160;</text><text fill="#000000" font-family="sans-serif" font-size="14" font-style="italic" lengthAdjust="spacing" textLength="85" x="75.1633" y="216.2951">Image Bytes</text></g><!--entity IFDm0s1_Data--><g id="elem_IFDm0s1_Data"><rect fill="#F1F1F1" height="36.2969" rx="2.5" ry="2.5" style="stroke:#181818;stroke-width:0.5;" width="120.3333" x="407.83" y="361.59"/><path d="M418.83,375.0535 L418.83,384.3869 L428.1633,384.3869 L428.1633,375.0535 L418.83,375.0535 M419.9967,376.2202 L426.9967,376.2202 L426.9967,379.7202 L425.83,378.5535 L424.6633,379.7202 L426.9967,382.0535 L426.9967,383.2202 L425.83,383.2202 L421.1633,378.5535 L419.9967,379.7202 L419.9967,376.2202 " fill="#000000" style="stroke:;stroke-width:0.0;stroke-dasharray:;"/><text fill="#000000" font-family="sans-serif" font-size="14" lengthAdjust="spacing" textLength="4" x="429.1633" y="384.5851">&#160;</text><text fill="#000000" font-family="sans-serif" font-size="14" font-style="italic" lengthAdjust="spacing" textLength="85" x="433.1633" y="384.5851">Image Bytes</text></g><!--entity IFDm0s2_Data--><g id="elem_IFDm0s2_Data"><rect fill="#F1F1F1" height="36.2969" rx="2.5" ry="2.5" style="stroke:#181818;stroke-width:0.5;" width="120.3333" x="465.83" y="193.3"/><path d="M476.83,206.7635 L476.83,216.0969 L486.1633,216.0969 L486.1633,206.7635 L476.83,206.7635 M477.9967,207.9302 L484.9967,207.9302 L484.9967,211.4302 L483.83,210.2635 L482.6633,211.4302 L484.9967,213.7635 L484.9967,214.9302 L483.83,214.9302 L479.1633,210.2635 L477.9967,211.4302 L477.9967,207.9302 " fill="#000000" style="stroke:;stroke-width:0.0;stroke-dasharray:;"/><text fill="#000000" font-family="sans-serif" font-size="14" lengthAdjust="spacing" textLength="4" x="487.1633" y="216.2951">&#160;</text><text fill="#000000" font-family="sans-serif" font-size="14" font-style="italic" lengthAdjust="spacing" textLength="85" x="491.1633" y="216.2951">Image Bytes</text></g><!--entity IFDm1s1_Data--><g id="elem_IFDm1s1_Data"><rect fill="#F1F1F1" height="36.2969" rx="2.5" ry="2.5" style="stroke:#181818;stroke-width:0.5;" width="120.3333" x="179.83" y="361.59"/><path d="M190.83,375.0535 L190.83,384.3869 L200.1633,384.3869 L200.1633,375.0535 L190.83,375.0535 M191.9967,376.2202 L198.9967,376.2202 L198.9967,379.7202 L197.83,378.5535 L196.6633,379.7202 L198.9967,382.0535 L198.9967,383.2202 L197.83,383.2202 L193.1633,378.5535 L191.9967,379.7202 L191.9967,376.2202 " fill="#000000" style="stroke:;stroke-width:0.0;stroke-dasharray:;"/><text fill="#000000" font-family="sans-serif" font-size="14" lengthAdjust="spacing" textLength="4" x="201.1633" y="384.5851">&#160;</text><text fill="#000000" font-family="sans-serif" font-size="14" font-style="italic" lengthAdjust="spacing" textLength="85" x="205.1633" y="384.5851">Image Bytes</text></g><!--link IFD0_Tag_NextIFD to IFD1--><g id="link_IFD0_Tag_NextIFD_IFD1"><path d="M226.51,77.73 C214.96,85.98 200.34,95.3 186,101.3 C122.23,127.97 83.92,86.48 34,134.3 C30.94,137.23 28.3278,140.567 26.0999,144.1695 C24.9859,145.9708 23.968,147.8384 23.0382,149.7547 C22.9801,149.8745 25.5098,144.581 25.4524,144.7012 " fill="none" id="IFD0_Tag_NextIFD-to-IFD1" style="stroke:#181818;stroke-width:1.0;stroke-dasharray:7.0,7.0;"/><polygon fill="#181818" points="22.8649,150.1146,30.355,143.7194,25.0211,145.6034,23.1372,140.2695,22.8649,150.1146" style="stroke:#181818;stroke-width:1.0;"/></g><!--link IFD0_Tag_SubIFD to IFDm0s1--><g id="link_IFD0_Tag_SubIFD_IFDm0s1"><path d="M372,77.73 C372,110.865 372,185.205 372,251.7125 C372,268.3394 372,284.4767 372,299.3583 C372,303.0787 372,306.7206 372,310.2721 C372,312.0478 372,313.8009 372,315.53 C372,316.3945 372,311.2529 372,312.1052 " fill="none" id="IFD0_Tag_SubIFD-to-IFDm0s1" style="stroke:#181818;stroke-width:1.0;stroke-dasharray:7.0,7.0;"/><polygon fill="#181818" points="372,318.1052,376,309.1052,372,313.1052,368,309.1052,372,318.1052" style="stroke:#181818;stroke-width:1.0;"/><text fill="#000000" font-family="sans-serif" font-size="13" lengthAdjust="spacing" textLength="8" x="373" y="216.0069">0</text></g><!--link IFD1_Tag_SubIFD to IFDm0s1--><g id="link_IFD1_Tag_SubIFD_IFDm0s1"><path d="M260.59,229.99 C274.57,248.1 296.96,277.21 316,302.59 C328.21,318.87 341.73,337.245 352.4263,351.8663 C355.1003,355.5216 357.5979,358.9423 359.8544,362.037 C360.9826,363.5843 362.0506,365.0502 363.0503,366.4231 C363.3002,366.7663 363.5458,367.1038 363.7871,367.4352 C363.8474,367.5181 360.3767,362.7494 360.4365,362.8315 " fill="none" id="IFD1_Tag_SubIFD-to-IFDm0s1" style="stroke:#181818;stroke-width:1.0;stroke-dasharray:7.0,7.0;"/><polygon fill="#181818" points="363.9672,367.6827,361.9053,358.0521,361.0249,363.64,355.437,362.7597,363.9672,367.6827" style="stroke:#181818;stroke-width:1.0;"/><text fill="#000000" font-family="sans-serif" font-size="13" lengthAdjust="spacing" textLength="8" x="309" y="290.6569">1</text></g><!--link IFD0_Tag_SubIFD to IFDm0s2--><g id="link_IFD0_Tag_SubIFD_IFDm0s2"><path d="M378.69,77.43 C382.33,86.85 386.91,98.71 391,109.3 C399.405,131.07 408.8175,155.48 416.29,174.865 C418.1581,179.7113 419.905,184.2434 421.4846,188.3418 C421.5833,188.5979 421.6814,188.8524 421.7788,189.1051 C421.8275,189.2315 419.7183,183.7588 419.7666,183.8843 " fill="none" id="IFD0_Tag_SubIFD-to-IFDm0s2" style="stroke:#181818;stroke-width:1.0;stroke-dasharray:7.0,7.0;"/><polygon fill="#181818" points="421.9244,189.4829,422.4201,179.6466,420.1262,184.8174,414.9554,182.5236,421.9244,189.4829" style="stroke:#181818;stroke-width:1.0;"/><text fill="#000000" font-family="sans-serif" font-size="13" lengthAdjust="spacing" textLength="8" x="398" y="122.3669">1</text></g><!--link IFD1_Tag_SubIFD to IFDm1s1--><g id="link_IFD1_Tag_SubIFD_IFDm1s1"><path d="M228.89,230.01 C207.23,251.36 172.78,286.54 164,302.59 C161.9663,306.3075 160.1317,310.2414 158.478,314.2848 C158.0646,315.2956 157.6624,316.3133 157.2713,317.3362 C157.1735,317.5919 157.0764,317.8479 156.98,318.1043 C156.9318,318.2324 158.9807,312.739 158.9329,312.8674 " fill="none" id="IFD1_Tag_SubIFD-to-IFDm1s1" style="stroke:#181818;stroke-width:1.0;stroke-dasharray:7.0,7.0;"/><polygon fill="#181818" points="156.8359,318.489,163.7291,311.4545,158.5834,313.8043,156.2336,308.6586,156.8359,318.489" style="stroke:#181818;stroke-width:1.0;"/><text fill="#000000" font-family="sans-serif" font-size="13" lengthAdjust="spacing" textLength="8" x="182" y="290.6569">0</text></g><!--SRC=[fP0_Ry8m4CLtVueJI1r97A4EgChGHfLOMA0pEiB5H74SP1i9XFhTcpX08NyAefxEv_VyVdScIzKMDUQmmZWJkjYfzKSX2mrMepBb4odBp4MrEMn9orHbjMZensDyfIx1brgxWY11QOYnf91b1wQVaG_3n1quCYYFfjYY4f9WyFPYKOGmexsjb0D0unpB1OfbrIqlFPxvRjLorBss8SrHK0YUDwqAU3zOCfxtwutG8lk-PkPtcM_p-J_o-IM_EJgCHg5JNAETNBblU1VStrcLgnrNSv_JtCyJy5bZhiPx3rJm55Jm05JG5ygVsWI_tKJdfBpUn0y0]--></g></svg>