<?xml version="1.0" encoding="us-ascii" standalone="no"?><svg xmlns="http://www.w3.org/2000/svg" xmlns:xlink="http://www.w3.org/1999/xlink" contentStyleType="text/css" height="665px" preserveAspectRatio="none" style="width:1128px;height:665px;" version="1.1" viewBox="0 0 1128 665" width="1128px" zoomAndPan="magnify"><defs/><g><!--cluster IFD0--><g id="cluster_IFD0"><path d="M8.5,6 L43.5,6 A3.75,3.75 0 0 1 46,8.5 L53,28.2969 L401.5,28.2969 A2.5,2.5 0 0 1 404,30.7969 L404,90.79 A2.5,2.5 0 0 1 401.5,93.29 L8.5,93.29 A2.5,2.5 0 0 1 6,90.79 L6,8.5 A2.5,2.5 0 0 1 8.5,6 " fill="#FFFFFF" style="stroke:#000000;stroke-width:1.5;"/><line style="stroke:#000000;stroke-width:1.5;" x1="6" x2="53" y1="28.2969" y2="28.2969"/><text fill="#000000" font-family="sans-serif" font-size="14" font-weight="bold" lengthAdjust="spacing" textLength="34" x="10" y="20.9951">IFD0</text></g><!--cluster IFD1--><g id="cluster_IFD1"><path d="M111.5,125.29 L146.5,125.29 A3.75,3.75 0 0 1 149,127.79 L156,147.5869 L413.5,147.5869 A2.5,2.5 0 0 1 416,150.0869 L416,226.09 A2.5,2.5 0 0 1 413.5,228.59 L111.5,228.59 A2.5,2.5 0 0 1 109,226.09 L109,127.79 A2.5,2.5 0 0 1 111.5,125.29 " fill="#FFFFFF" style="stroke:#000000;stroke-width:1.5;"/><line style="stroke:#000000;stroke-width:1.5;" x1="109" x2="156" y1="147.5869" y2="147.5869"/><text fill="#000000" font-family="sans-serif" font-size="14" font-weight="bold" lengthAdjust="spacing" textLength="34" x="113" y="140.2851">IFD1</text></g><!--cluster IFDm0s1--><g id="cluster_IFDm0s1"><path d="M460.5,125.29 L485.5,125.29 A3.75,3.75 0 0 1 488,127.79 L495,147.5869 L770.5,147.5869 A2.5,2.5 0 0 1 773,150.0869 L773,226.09 A2.5,2.5 0 0 1 770.5,228.59 L460.5,228.59 A2.5,2.5 0 0 1 458,226.09 L458,127.79 A2.5,2.5 0 0 1 460.5,125.29 " fill="none" style="stroke:#000000;stroke-width:1.5;"/><line style="stroke:#000000;stroke-width:1.5;" x1="458" x2="495" y1="147.5869" y2="147.5869"/><text fill="#000000" font-family="sans-serif" font-size="14" font-weight="bold" lengthAdjust="spacing" textLength="24" x="462" y="140.2851">IFD</text></g><!--cluster IFDm0s2--><g id="cluster_IFDm0s2"><path d="M698.5,268.59 L723.5,268.59 A3.75,3.75 0 0 1 726,271.09 L733,290.8869 L1008.5,290.8869 A2.5,2.5 0 0 1 1011,293.3869 L1011,369.39 A2.5,2.5 0 0 1 1008.5,371.89 L698.5,371.89 A2.5,2.5 0 0 1 696,369.39 L696,271.09 A2.5,2.5 0 0 1 698.5,268.59 " fill="none" style="stroke:#000000;stroke-width:1.5;"/><line style="stroke:#000000;stroke-width:1.5;" x1="696" x2="733" y1="290.8869" y2="290.8869"/><text fill="#000000" font-family="sans-serif" font-size="14" font-weight="bold" lengthAdjust="spacing" textLength="24" x="700" y="283.5851">IFD</text></g><!--cluster IFDm0s3--><g id="cluster_IFDm0s3"><path d="M935.5,411.89 L960.5,411.89 A3.75,3.75 0 0 1 963,414.39 L970,434.1869 L1118.5,434.1869 A2.5,2.5 0 0 1 1121,436.6869 L1121,512.68 A2.5,2.5 0 0 1 1118.5,515.18 L935.5,515.18 A2.5,2.5 0 0 1 933,512.68 L933,414.39 A2.5,2.5 0 0 1 935.5,411.89 " fill="none" style="stroke:#000000;stroke-width:1.5;"/><line style="stroke:#000000;stroke-width:1.5;" x1="933" x2="970" y1="434.1869" y2="434.1869"/><text fill="#000000" font-family="sans-serif" font-size="14" font-weight="bold" lengthAdjust="spacing" textLength="24" x="937" y="426.8851">IFD</text></g><!--cluster IFDm1s1--><g id="cluster_IFDm1s1"><path d="M343.5,268.59 L368.5,268.59 A3.75,3.75 0 0 1 371,271.09 L378,290.8869 L653.5,290.8869 A2.5,2.5 0 0 1 656,293.3869 L656,369.39 A2.5,2.5 0 0 1 653.5,371.89 L343.5,371.89 A2.5,2.5 0 0 1 341,369.39 L341,271.09 A2.5,2.5 0 0 1 343.5,268.59 " fill="none" style="stroke:#000000;stroke-width:1.5;"/><line style="stroke:#000000;stroke-width:1.5;" x1="341" x2="378" y1="290.8869" y2="290.8869"/><text fill="#000000" font-family="sans-serif" font-size="14" font-weight="bold" lengthAdjust="spacing" textLength="24" x="345" y="283.5851">IFD</text></g><!--cluster IFDm1s2--><g id="cluster_IFDm1s2"><path d="M580.5,411.89 L605.5,411.89 A3.75,3.75 0 0 1 608,414.39 L615,434.1869 L890.5,434.1869 A2.5,2.5 0 0 1 893,436.6869 L893,512.68 A2.5,2.5 0 0 1 890.5,515.18 L580.5,515.18 A2.5,2.5 0 0 1 578,512.68 L578,414.39 A2.5,2.5 0 0 1 580.5,411.89 " fill="none" style="stroke:#000000;stroke-width:1.5;"/><line style="stroke:#000000;stroke-width:1.5;" x1="578" x2="615" y1="434.1869" y2="434.1869"/><text fill="#000000" font-family="sans-serif" font-size="14" font-weight="bold" lengthAdjust="spacing" textLength="24" x="582" y="426.8851">IFD</text></g><!--cluster IFDm1s3--><g id="cluster_IFDm1s3"><path d="M817.5,555.18 L842.5,555.18 A3.75,3.75 0 0 1 845,557.68 L852,577.4769 L1000.5,577.4769 A2.5,2.5 0 0 1 1003,579.9769 L1003,655.98 A2.5,2.5 0 0 1 1000.5,658.48 L817.5,658.48 A2.5,2.5 0 0 1 815,655.98 L815,557.68 A2.5,2.5 0 0 1 817.5,555.18 " fill="none" style="stroke:#000000;stroke-width:1.5;"/><line style="stroke:#000000;stroke-width:1.5;" x1="815" x2="852" y1="577.4769" y2="577.4769"/><text fill="#000000" font-family="sans-serif" font-size="14" font-weight="bold" lengthAdjust="spacing" textLength="24" x="819" y="570.1751">IFD</text></g><!--entity IFD0_Tag_NextIFD--><g id="elem_IFD0_Tag_NextIFD"><rect fill="#F1F1F1" height="36.2969" rx="2.5" ry="2.5" style="stroke:#181818;stroke-width:0.5;" width="92.3333" x="176.83" y="41"/><path d="M187.83,54.4635 L187.83,57.9635 L193.6633,63.7969 L197.1633,60.2969 L191.33,54.4635 L187.83,54.4635 M190.1633,55.6302 C190.805,55.6302 191.33,56.1552 191.33,56.7969 C191.33,57.4385 190.805,57.9635 190.1633,57.9635 C189.5217,57.9635 188.9967,57.4385 188.9967,56.7969 C188.9967,56.1552 189.5217,55.6302 190.1633,55.6302 " fill="#000000" style="stroke:;stroke-width:0.0;stroke-dasharray:;"/><text fill="#000000" font-family="sans-serif" font-size="14" lengthAdjust="spacing" textLength="57" x="202.1633" y="63.9951">Next IFD</text></g><!--entity IFD0_Tag_SubIFD--><g id="elem_IFD0_Tag_SubIFD"><rect fill="#F1F1F1" height="36.2969" rx="2.5" ry="2.5" style="stroke:#181818;stroke-width:0.5;" width="84.3333" x="303.83" y="41"/><path d="M314.83,54.4635 L314.83,57.9635 L320.6633,63.7969 L324.1633,60.2969 L318.33,54.4635 L314.83,54.4635 M317.1633,55.6302 C317.805,55.6302 318.33,56.1552 318.33,56.7969 C318.33,57.4385 317.805,57.9635 317.1633,57.9635 C316.5217,57.9635 315.9967,57.4385 315.9967,56.7969 C315.9967,56.1552 316.5217,55.6302 317.1633,55.6302 " fill="#000000" style="stroke:;stroke-width:0.0;stroke-dasharray:;"/><text fill="#000000" font-family="sans-serif" font-size="14" lengthAdjust="spacing" textLength="49" x="329.1633" y="63.9951">SubIFD</text></g><!--entity IFD0_Data--><g id="elem_IFD0_Data"><rect fill="#F1F1F1" height="36.2969" rx="2.5" ry="2.5" style="stroke:#181818;stroke-width:0.5;" width="120.3333" x="21.83" y="41"/><path d="M32.83,54.4635 L32.83,63.7969 L42.1633,63.7969 L42.1633,54.4635 L32.83,54.4635 M33.9967,55.6302 L40.9967,55.6302 L40.9967,59.1302 L39.83,57.9635 L38.6633,59.1302 L40.9967,61.4635 L40.9967,62.6302 L39.83,62.6302 L35.1633,57.9635 L33.9967,59.1302 L33.9967,55.6302 " fill="#000000" style="stroke:;stroke-width:0.0;stroke-dasharray:;"/><text fill="#000000" font-family="sans-serif" font-size="14" lengthAdjust="spacing" textLength="4" x="43.1633" y="63.9951">&#160;</text><text fill="#000000" font-family="sans-serif" font-size="14" font-style="italic" lengthAdjust="spacing" textLength="85" x="47.1633" y="63.9951">Image Bytes</text></g><!--entity IFD1_Tag_SubIFD--><g id="elem_IFD1_Tag_SubIFD"><rect fill="#F1F1F1" height="36.2969" rx="2.5" ry="2.5" style="stroke:#181818;stroke-width:0.5;" width="84.3333" x="307.83" y="168.29"/><path d="M318.83,181.7535 L318.83,185.2535 L324.6633,191.0869 L328.1633,187.5869 L322.33,181.7535 L318.83,181.7535 M321.1633,182.9202 C321.805,182.9202 322.33,183.4452 322.33,184.0869 C322.33,184.7285 321.805,185.2535 321.1633,185.2535 C320.5217,185.2535 319.9967,184.7285 319.9967,184.0869 C319.9967,183.4452 320.5217,182.9202 321.1633,182.9202 " fill="#000000" style="stroke:;stroke-width:0.0;stroke-dasharray:;"/><text fill="#000000" font-family="sans-serif" font-size="14" lengthAdjust="spacing" textLength="49" x="333.1633" y="191.2851">SubIFD</text></g><!--entity IFD1_Data--><g id="elem_IFD1_Data"><rect fill="#F1F1F1" height="36.2969" rx="2.5" ry="2.5" style="stroke:#181818;stroke-width:0.5;" width="120.3333" x="152.83" y="168.29"/><path d="M163.83,181.7535 L163.83,191.0869 L173.1633,191.0869 L173.1633,181.7535 L163.83,181.7535 M164.9967,182.9202 L171.9967,182.9202 L171.9967,186.4202 L170.83,185.2535 L169.6633,186.4202 L171.9967,188.7535 L171.9967,189.9202 L170.83,189.9202 L166.1633,185.2535 L164.9967,186.4202 L164.9967,182.9202 " fill="#000000" style="stroke:;stroke-width:0.0;stroke-dasharray:;"/><text fill="#000000" font-family="sans-serif" font-size="14" lengthAdjust="spacing" textLength="4" x="174.1633" y="191.2851">&#160;</text><text fill="#000000" font-family="sans-serif" font-size="14" font-style="italic" lengthAdjust="spacing" textLength="85" x="178.1633" y="191.2851">Image Bytes</text></g><!--entity IFDm0s1_Tag_NextIFD--><g id="elem_IFDm0s1_Tag_NextIFD"><rect fill="#F1F1F1" height="36.2969" rx="2.5" ry="2.5" style="stroke:#181818;stroke-width:0.5;" width="92.3333" x="656.83" y="168.29"/><path d="M667.83,181.7535 L667.83,185.2535 L673.6633,191.0869 L677.1633,187.5869 L671.33,181.7535 L667.83,181.7535 M670.1633,182.9202 C670.805,182.9202 671.33,183.4452 671.33,184.0869 C671.33,184.7285 670.805,185.2535 670.1633,185.2535 C669.5217,185.2535 668.9967,184.7285 668.9967,184.0869 C668.9967,183.4452 669.5217,182.9202 670.1633,182.9202 " fill="#000000" style="stroke:;stroke-width:0.0;stroke-dasharray:;"/><text fill="#000000" font-family="sans-serif" font-size="14" lengthAdjust="spacing" textLength="57" x="682.1633" y="191.2851">Next IFD</text></g><!--entity IFDm0s1_Data--><g id="elem_IFDm0s1_Data"><rect fill="#F1F1F1" height="36.2969" rx="2.5" ry="2.5" style="stroke:#181818;stroke-width:0.5;" width="120.3333" x="501.83" y="168.29"/><path d="M512.83,181.7535 L512.83,191.0869 L522.1633,191.0869 L522.1633,181.7535 L512.83,181.7535 M513.9967,182.9202 L520.9967,182.9202 L520.9967,186.4202 L519.83,185.2535 L518.6633,186.4202 L520.9967,188.7535 L520.9967,189.9202 L519.83,189.9202 L515.1633,185.2535 L513.9967,186.4202 L513.9967,182.9202 " fill="#000000" style="stroke:;stroke-width:0.0;stroke-dasharray:;"/><text fill="#000000" font-family="sans-serif" font-size="14" lengthAdjust="spacing" textLength="4" x="523.1633" y="191.2851">&#160;</text><text fill="#000000" font-family="sans-serif" font-size="14" font-style="italic" lengthAdjust="spacing" textLength="85" x="527.1633" y="191.2851">Image Bytes</text></g><!--entity IFDm0s2_Tag_NextIFD--><g id="elem_IFDm0s2_Tag_NextIFD"><rect fill="#F1F1F1" height="36.2969" rx="2.5" ry="2.5" style="stroke:#181818;stroke-width:0.5;" width="92.3333" x="894.83" y="311.59"/><path d="M905.83,325.0535 L905.83,328.5535 L911.6633,334.3869 L915.1633,330.8869 L909.33,325.0535 L905.83,325.0535 M908.1633,326.2202 C908.805,326.2202 909.33,326.7452 909.33,327.3869 C909.33,328.0285 908.805,328.5535 908.1633,328.5535 C907.5217,328.5535 906.9967,328.0285 906.9967,327.3869 C906.9967,326.7452 907.5217,326.2202 908.1633,326.2202 " fill="#000000" style="stroke:;stroke-width:0.0;stroke-dasharray:;"/><text fill="#000000" font-family="sans-serif" font-size="14" lengthAdjust="spacing" textLength="57" x="920.1633" y="334.5851">Next IFD</text></g><!--entity IFDm0s2_Data--><g id="elem_IFDm0s2_Data"><rect fill="#F1F1F1" height="36.2969" rx="2.5" ry="2.5" style="stroke:#181818;stroke-width:0.5;" width="120.3333" x="739.83" y="311.59"/><path d="M750.83,325.0535 L750.83,334.3869 L760.1633,334.3869 L760.1633,325.0535 L750.83,325.0535 M751.9967,326.2202 L758.9967,326.2202 L758.9967,329.7202 L757.83,328.5535 L756.6633,329.7202 L758.9967,332.0535 L758.9967,333.2202 L757.83,333.2202 L753.1633,328.5535 L751.9967,329.7202 L751.9967,326.2202 " fill="#000000" style="stroke:;stroke-width:0.0;stroke-dasharray:;"/><text fill="#000000" font-family="sans-serif" font-size="14" lengthAdjust="spacing" textLength="4" x="761.1633" y="334.5851">&#160;</text><text fill="#000000" font-family="sans-serif" font-size="14" font-style="italic" lengthAdjust="spacing" textLength="85" x="765.1633" y="334.5851">Image Bytes</text></g><!--entity IFDm0s3_Data--><g id="elem_IFDm0s3_Data"><rect fill="#F1F1F1" height="36.2969" rx="2.5" ry="2.5" style="stroke:#181818;stroke-width:0.5;" width="120.3333" x="976.83" y="454.89"/><path d="M987.83,468.3535 L987.83,477.6869 L997.1633,477.6869 L997.1633,468.3535 L987.83,468.3535 M988.9967,469.5202 L995.9967,469.5202 L995.9967,473.0202 L994.83,471.8535 L993.6633,473.0202 L995.9967,475.3535 L995.9967,476.5202 L994.83,476.5202 L990.1633,471.8535 L988.9967,473.0202 L988.9967,469.5202 " fill="#000000" style="stroke:;stroke-width:0.0;stroke-dasharray:;"/><text fill="#000000" font-family="sans-serif" font-size="14" lengthAdjust="spacing" textLength="4" x="998.1633" y="477.8851">&#160;</text><text fill="#000000" font-family="sans-serif" font-size="14" font-style="italic" lengthAdjust="spacing" textLength="85" x="1002.1633" y="477.8851">Image Bytes</text></g><!--entity IFDm1s1_Tag_NextIFD--><g id="elem_IFDm1s1_Tag_NextIFD"><rect fill="#F1F1F1" height="36.2969" rx="2.5" ry="2.5" style="stroke:#181818;stroke-width:0.5;" width="92.3333" x="539.83" y="311.59"/><path d="M550.83,325.0535 L550.83,328.5535 L556.6633,334.3869 L560.1633,330.8869 L554.33,325.0535 L550.83,325.0535 M553.1633,326.2202 C553.805,326.2202 554.33,326.7452 554.33,327.3869 C554.33,328.0285 553.805,328.5535 553.1633,328.5535 C552.5217,328.5535 551.9967,328.0285 551.9967,327.3869 C551.9967,326.7452 552.5217,326.2202 553.1633,326.2202 " fill="#000000" style="stroke:;stroke-width:0.0;stroke-dasharray:;"/><text fill="#000000" font-family="sans-serif" font-size="14" lengthAdjust="spacing" textLength="57" x="565.1633" y="334.5851">Next IFD</text></g><!--entity IFDm1s1_Data--><g id="elem_IFDm1s1_Data"><rect fill="#F1F1F1" height="36.2969" rx="2.5" ry="2.5" style="stroke:#181818;stroke-width:0.5;" width="120.3333" x="384.83" y="311.59"/><path d="M395.83,325.0535 L395.83,334.3869 L405.1633,334.3869 L405.1633,325.0535 L395.83,325.0535 M396.9967,326.2202 L403.9967,326.2202 L403.9967,329.7202 L402.83,328.5535 L401.6633,329.7202 L403.9967,332.0535 L403.9967,333.2202 L402.83,333.2202 L398.1633,328.5535 L396.9967,329.7202 L396.9967,326.2202 " fill="#000000" style="stroke:;stroke-width:0.0;stroke-dasharray:;"/><text fill="#000000" font-family="sans-serif" font-size="14" lengthAdjust="spacing" textLength="4" x="406.1633" y="334.5851">&#160;</text><text fill="#000000" font-family="sans-serif" font-size="14" font-style="italic" lengthAdjust="spacing" textLength="85" x="410.1633" y="334.5851">Image Bytes</text></g><!--entity IFDm1s2_Tag_NextIFD--><g id="elem_IFDm1s2_Tag_NextIFD"><rect fill="#F1F1F1" height="36.2969" rx="2.5" ry="2.5" style="stroke:#181818;stroke-width:0.5;" width="92.3333" x="776.83" y="454.89"/><path d="M787.83,468.3535 L787.83,471.8535 L793.6633,477.6869 L797.1633,474.1869 L791.33,468.3535 L787.83,468.3535 M790.1633,469.5202 C790.805,469.5202 791.33,470.0452 791.33,470.6869 C791.33,471.3285 790.805,471.8535 790.1633,471.8535 C789.5217,471.8535 788.9967,471.3285 788.9967,470.6869 C788.9967,470.0452 789.5217,469.5202 790.1633,469.5202 " fill="#000000" style="stroke:;stroke-width:0.0;stroke-dasharray:;"/><text fill="#000000" font-family="sans-serif" font-size="14" lengthAdjust="spacing" textLength="57" x="802.1633" y="477.8851">Next IFD</text></g><!--entity IFDm1s2_Data--><g id="elem_IFDm1s2_Data"><rect fill="#F1F1F1" height="36.2969" rx="2.5" ry="2.5" style="stroke:#181818;stroke-width:0.5;" width="120.3333" x="621.83" y="454.89"/><path d="M632.83,468.3535 L632.83,477.6869 L642.1633,477.6869 L642.1633,468.3535 L632.83,468.3535 M633.9967,469.5202 L640.9967,469.5202 L640.9967,473.0202 L639.83,471.8535 L638.6633,473.0202 L640.9967,475.3535 L640.9967,476.5202 L639.83,476.5202 L635.1633,471.8535 L633.9967,473.0202 L633.9967,469.5202 " fill="#000000" style="stroke:;stroke-width:0.0;stroke-dasharray:;"/><text fill="#000000" font-family="sans-serif" font-size="14" lengthAdjust="spacing" textLength="4" x="643.1633" y="477.8851">&#160;</text><text fill="#000000" font-family="sans-serif" font-size="14" font-style="italic" lengthAdjust="spacing" textLength="85" x="647.1633" y="477.8851">Image Bytes</text></g><!--entity IFDm1s3_Data--><g id="elem_IFDm1s3_Data"><rect fill="#F1F1F1" height="36.2969" rx="2.5" ry="2.5" style="stroke:#181818;stroke-width:0.5;" width="120.3333" x="858.83" y="598.18"/><path d="M869.83,611.6435 L869.83,620.9769 L879.1633,620.9769 L879.1633,611.6435 L869.83,611.6435 M870.9967,612.8102 L877.9967,612.8102 L877.9967,616.3102 L876.83,615.1435 L875.6633,616.3102 L877.9967,618.6435 L877.9967,619.8102 L876.83,619.8102 L872.1633,615.1435 L870.9967,616.3102 L870.9967,612.8102 " fill="#000000" style="stroke:;stroke-width:0.0;stroke-dasharray:;"/><text fill="#000000" font-family="sans-serif" font-size="14" lengthAdjust="spacing" textLength="4" x="880.1633" y="621.1751">&#160;</text><text fill="#000000" font-family="sans-serif" font-size="14" font-style="italic" lengthAdjust="spacing" textLength="85" x="884.1633" y="621.1751">Image Bytes</text></g><!--link IFD0_Tag_NextIFD to IFD1--><g id="link_IFD0_Tag_NextIFD_IFD1"><path d="M199.29,77.61 C187.81,85.54 173.6,94.61 160,101.29 C150.29,106.06 144.35,101.35 137,109.29 C134.1225,112.4012 131.6486,115.8756 129.5227,119.5796 C128.9913,120.5056 128.4816,121.4459 127.9927,122.3985 C127.7483,122.8748 127.5091,123.3541 127.275,123.8363 C127.158,124.0774 127.0422,124.3192 126.9277,124.5616 C126.8705,124.6829 129.3469,119.3653 129.2903,119.4869 " fill="none" id="IFD0_Tag_NextIFD-to-IFD1" style="stroke:#181818;stroke-width:1.0;stroke-dasharray:7.0,7.0;"/><polygon fill="#181818" points="126.7569,124.9258,134.1829,118.4563,128.868,120.3933,126.9309,115.0785,126.7569,124.9258" style="stroke:#181818;stroke-width:1.0;"/></g><!--link IFD0_Tag_SubIFD to IFDm0s1--><g id="link_IFD0_Tag_SubIFD_IFDm0s1"><path d="M371.03,77.73 C382.83,86.57 396.75,97.82 408,109.29 C422.43,124.005 436.49,142.3325 447.1525,157.32 C449.8181,161.0669 452.2714,164.605 454.465,167.8257 C455.5619,169.4361 456.5938,170.9671 457.5548,172.4052 C457.675,172.585 454.4654,167.7713 454.5833,167.9481 " fill="none" id="IFD0_Tag_SubIFD-to-IFDm0s1" style="stroke:#181818;stroke-width:1.0;stroke-dasharray:7.0,7.0;"/><polygon fill="#181818" points="457.9119,172.9401,456.247,163.233,455.1381,168.7801,449.591,167.6712,457.9119,172.9401" style="stroke:#181818;stroke-width:1.0;"/></g><!--link IFDm0s1_Tag_NextIFD to IFDm0s2--><g id="link_IFDm0s1_Tag_NextIFD_IFDm0s2"><path d="M703.12,205.05 C703.1875,214.3725 703.275,226.5975 703.3686,239.7319 C703.4154,246.2991 703.4637,253.0936 703.5118,259.8663 C703.5238,261.5595 703.5359,263.2513 703.5478,264.9379 C703.5538,265.7812 703.5598,266.6232 703.5658,267.4633 C703.5672,267.6734 703.5262,261.8834 703.5276,262.0933 " fill="none" id="IFDm0s1_Tag_NextIFD-to-IFDm0s2" style="stroke:#181818;stroke-width:1.0;stroke-dasharray:7.0,7.0;"/><polygon fill="#181818" points="703.5702,268.0931,707.5063,259.0649,703.5347,263.0932,699.5065,259.1217,703.5702,268.0931" style="stroke:#181818;stroke-width:1.0;"/></g><!--link IFDm0s2_Tag_NextIFD to IFDm0s3--><g id="link_IFDm0s2_Tag_NextIFD_IFDm0s3"><path d="M941,348.35 C941,357.67 941,369.8931 941,383.0261 C941,389.5926 941,396.3865 941,403.1588 C941,404.8518 941,406.5435 941,408.23 C941,409.0732 941,409.9151 941,410.7553 C941,410.9653 941,405.1752 941,405.385 " fill="none" id="IFDm0s2_Tag_NextIFD-to-IFDm0s3" style="stroke:#181818;stroke-width:1.0;stroke-dasharray:7.0,7.0;"/><polygon fill="#181818" points="941,411.385,945,402.385,941,406.385,937,402.385,941,411.385" style="stroke:#181818;stroke-width:1.0;"/></g><!--link IFD1_Tag_SubIFD to IFDm1s1--><g id="link_IFD1_Tag_SubIFD_IFDm1s1"><path d="M349.88,205.05 C349.8125,214.3725 349.725,226.5975 349.6314,239.7319 C349.5846,246.2991 349.5363,253.0936 349.4882,259.8663 C349.4762,261.5595 349.4641,263.2513 349.4522,264.9379 C349.4462,265.7812 349.4402,266.6232 349.4342,267.4633 C349.4328,267.6734 349.4738,261.8834 349.4724,262.0933 " fill="none" id="IFD1_Tag_SubIFD-to-IFDm1s1" style="stroke:#181818;stroke-width:1.0;stroke-dasharray:7.0,7.0;"/><polygon fill="#181818" points="349.4298,268.0931,353.4935,259.1217,349.4653,263.0932,345.4937,259.0649,349.4298,268.0931" style="stroke:#181818;stroke-width:1.0;"/></g><!--link IFDm1s1_Tag_NextIFD to IFDm1s2--><g id="link_IFDm1s1_Tag_NextIFD_IFDm1s2"><path d="M586,348.35 C586,357.67 586,369.8931 586,383.0261 C586,389.5926 586,396.3865 586,403.1588 C586,404.8518 586,406.5435 586,408.23 C586,409.0732 586,409.9151 586,410.7553 C586,410.9653 586,405.1752 586,405.385 " fill="none" id="IFDm1s1_Tag_NextIFD-to-IFDm1s2" style="stroke:#181818;stroke-width:1.0;stroke-dasharray:7.0,7.0;"/><polygon fill="#181818" points="586,411.385,590,402.385,586,406.385,582,402.385,586,411.385" style="stroke:#181818;stroke-width:1.0;"/></g><!--link IFDm1s2_Tag_NextIFD to IFDm1s3--><g id="link_IFDm1s2_Tag_NextIFD_IFDm1s3"><path d="M823,491.64 C823,500.9625 823,513.1875 823,526.3219 C823,532.8891 823,539.6836 823,546.4563 C823,548.1495 823,549.8413 823,551.5279 C823,552.3712 823,553.2132 823,554.0533 C823,554.2634 823,548.4733 823,548.6831 " fill="none" id="IFDm1s2_Tag_NextIFD-to-IFDm1s3" style="stroke:#181818;stroke-width:1.0;stroke-dasharray:7.0,7.0;"/><polygon fill="#181818" points="823,554.6831,827,545.6831,823,549.6831,819,545.6831,823,554.6831" style="stroke:#181818;stroke-width:1.0;"/></g><!--SRC=[fP4nRuCm48Lt_ufJ8dKCdAawLGnjL2bBbxPpT2668C14jYCrglhVYw5D2PYa54_cU4_lEp-TfN9FYWhOK9GbgZp8xMEPbmgC8gchNq8Qfa-gtN4lL9xAh17D_UYMxeHBy2QtzKL0JBaMZCLbNarWzRJqOHxN1puOL4U9o91CSW6p-nj3IGZFujrOvGn8ruxrAoLhEwq-1ZmlXqtFqSpwXhIWH8JWUIjxWOUZ4ThpVhrBCiG-synubVay7oVauoc_kpei5c6jQADzkmfVuvyVr8ell-bbnDhVespM_O6q6ZSd7yF99tBoDcTtxnOhTxC6BjQheK4db0-41gvG75CaJYmIpuj4Lv7eBXB758aJYyHEaJXG9BgBn7yLYPqYSQ38IlS5]--></g></svg>