<?xml version="1.0" encoding="us-ascii" standalone="no"?><svg xmlns="http://www.w3.org/2000/svg" xmlns:xlink="http://www.w3.org/1999/xlink" contentStyleType="text/css" height="575px" preserveAspectRatio="none" style="width:982px;height:575px;" version="1.1" viewBox="0 0 982 575" width="982px" zoomAndPan="magnify"><defs/><g><!--cluster pyramid.tif--><g id="cluster_pyramid.tif"><path d="M6,8.5 L6,565.88 A2.5,2.5 0 0 0 8.5,568.38 L972.5,568.38 A2.5,2.5 0 0 0 975,565.88 L975,16 L965,6 L8.5,6 A2.5,2.5 0 0 0 6,8.5 " fill="none" style="stroke:#181818;stroke-width:1.0;"/><path d="M965,6 L965,13.5 A2.5,2.5 0 0 0 967.5,16 L975,16 " fill="none" style="stroke:#181818;stroke-width:1.0;"/><text fill="#000000" font-family="sans-serif" font-size="14" font-weight="bold" lengthAdjust="spacing" textLength="84" x="448.5" y="20.9951">pyramid.tif</text></g><!--cluster IFD0--><g id="cluster_IFD0"><path d="M32.5,49 L67.5,49 A3.75,3.75 0 0 1 70,51.5 L77,71.2969 L428.5,71.2969 A2.5,2.5 0 0 1 431,73.7969 L431,269.69 A2.5,2.5 0 0 1 428.5,272.19 L32.5,272.19 A2.5,2.5 0 0 1 30,269.69 L30,51.5 A2.5,2.5 0 0 1 32.5,49 " fill="#FFFFFF" style="stroke:#000000;stroke-width:1.5;"/><line style="stroke:#000000;stroke-width:1.5;" x1="30" x2="77" y1="71.2969" y2="71.2969"/><text fill="#000000" font-family="sans-serif" font-size="14" font-weight="bold" lengthAdjust="spacing" textLength="34" x="34" y="63.9951">IFD0</text></g><!--cluster IFD1--><g id="cluster_IFD1"><path d="M465.5,160.6 L500.5,160.6 A3.75,3.75 0 0 1 503,163.1 L510,182.8969 L940.5,182.8969 A2.5,2.5 0 0 1 943,185.3969 L943,421.29 A2.5,2.5 0 0 1 940.5,423.79 L465.5,423.79 A2.5,2.5 0 0 1 463,421.29 L463,163.1 A2.5,2.5 0 0 1 465.5,160.6 " fill="#FFFFFF" style="stroke:#000000;stroke-width:1.5;"/><line style="stroke:#000000;stroke-width:1.5;" x1="463" x2="510" y1="182.8969" y2="182.8969"/><text fill="#000000" font-family="sans-serif" font-size="14" font-weight="bold" lengthAdjust="spacing" textLength="34" x="467" y="175.5951">IFD1</text></g><!--cluster IFD2--><g id="cluster_IFD2"><path d="M56.5,304.19 L91.5,304.19 A3.75,3.75 0 0 1 94,306.69 L101,326.4869 L404.5,326.4869 A2.5,2.5 0 0 1 407,328.9869 L407,533.88 A2.5,2.5 0 0 1 404.5,536.38 L56.5,536.38 A2.5,2.5 0 0 1 54,533.88 L54,306.69 A2.5,2.5 0 0 1 56.5,304.19 " fill="#FFFFFF" style="stroke:#000000;stroke-width:1.5;"/><line style="stroke:#000000;stroke-width:1.5;" x1="54" x2="101" y1="326.4869" y2="326.4869"/><text fill="#000000" font-family="sans-serif" font-size="14" font-weight="bold" lengthAdjust="spacing" textLength="34" x="58" y="319.1851">IFD2</text></g><!--entity IFD0_Tag_SubfileType--><g id="elem_IFD0_Tag_SubfileType"><rect fill="#F1F1F1" height="52.5938" rx="2.5" ry="2.5" style="stroke:#181818;stroke-width:0.5;" width="133" x="45.5" y="84"/><path d="M56.5,97.4635 L56.5,100.9635 L62.3333,106.7969 L65.8333,103.2969 L60,97.4635 L56.5,97.4635 M58.8333,98.6302 C59.475,98.6302 60,99.1552 60,99.7969 C60,100.4385 59.475,100.9635 58.8333,100.9635 C58.1917,100.9635 57.6667,100.4385 57.6667,99.7969 C57.6667,99.1552 58.1917,98.6302 58.8333,98.6302 " fill="#000000" style="stroke:;stroke-width:0.0;stroke-dasharray:;"/><text fill="#000000" font-family="sans-serif" font-size="14" lengthAdjust="spacing" textLength="84" x="70.8333" y="106.9951">Subfile Type</text><text fill="#000000" font-family="sans-serif" font-size="14" font-weight="bold" lengthAdjust="spacing" textLength="113" x="55.5" y="123.292">Full-resolution</text></g><!--entity IFD0_Tag_Width--><g id="elem_IFD0_Tag_Width"><rect fill="#F1F1F1" height="52.5938" rx="2.5" ry="2.5" style="stroke:#181818;stroke-width:0.5;" width="74.3333" x="340.83" y="84"/><path d="M351.83,97.4635 L351.83,100.9635 L357.6633,106.7969 L361.1633,103.2969 L355.33,97.4635 L351.83,97.4635 M354.1633,98.6302 C354.805,98.6302 355.33,99.1552 355.33,99.7969 C355.33,100.4385 354.805,100.9635 354.1633,100.9635 C353.5217,100.9635 352.9967,100.4385 352.9967,99.7969 C352.9967,99.1552 353.5217,98.6302 354.1633,98.6302 " fill="#000000" style="stroke:;stroke-width:0.0;stroke-dasharray:;"/><text fill="#000000" font-family="sans-serif" font-size="14" lengthAdjust="spacing" textLength="39" x="366.1633" y="106.9951">Width</text><text fill="#000000" font-family="sans-serif" font-size="14" font-weight="bold" lengthAdjust="spacing" textLength="40" x="350.83" y="123.292">4096</text></g><!--entity IFD0_Tag_Height--><g id="elem_IFD0_Tag_Height"><rect fill="#F1F1F1" height="52.5938" rx="2.5" ry="2.5" style="stroke:#181818;stroke-width:0.5;" width="80.3333" x="98.83" y="203.6"/><path d="M109.83,217.0635 L109.83,220.5635 L115.6633,226.3969 L119.1633,222.8969 L113.33,217.0635 L109.83,217.0635 M112.1633,218.2302 C112.805,218.2302 113.33,218.7552 113.33,219.3969 C113.33,220.0385 112.805,220.5635 112.1633,220.5635 C111.5217,220.5635 110.9967,220.0385 110.9967,219.3969 C110.9967,218.7552 111.5217,218.2302 112.1633,218.2302 " fill="#000000" style="stroke:;stroke-width:0.0;stroke-dasharray:;"/><text fill="#000000" font-family="sans-serif" font-size="14" lengthAdjust="spacing" textLength="45" x="124.1633" y="226.5951">Height</text><text fill="#000000" font-family="sans-serif" font-size="14" font-weight="bold" lengthAdjust="spacing" textLength="40" x="108.83" y="242.892">2048</text></g><!--entity IFD0_Data--><g id="elem_IFD0_Data"><rect fill="#F1F1F1" height="36.2969" rx="2.5" ry="2.5" style="stroke:#181818;stroke-width:0.5;" width="120.3333" x="213.83" y="211.75"/><path d="M224.83,225.2135 L224.83,234.5469 L234.1633,234.5469 L234.1633,225.2135 L224.83,225.2135 M225.9967,226.3802 L232.9967,226.3802 L232.9967,229.8802 L231.83,228.7135 L230.6633,229.8802 L232.9967,232.2135 L232.9967,233.3802 L231.83,233.3802 L227.1633,228.7135 L225.9967,229.8802 L225.9967,226.3802 " fill="#000000" style="stroke:;stroke-width:0.0;stroke-dasharray:;"/><text fill="#000000" font-family="sans-serif" font-size="14" lengthAdjust="spacing" textLength="4" x="235.1633" y="234.7451">&#160;</text><text fill="#000000" font-family="sans-serif" font-size="14" font-style="italic" lengthAdjust="spacing" textLength="85" x="239.1633" y="234.7451">Image Bytes</text></g><!--entity IFD0_Tag_NextIFD--><g id="elem_IFD0_Tag_NextIFD"><rect fill="#F1F1F1" height="36.2969" rx="2.5" ry="2.5" style="stroke:#181818;stroke-width:0.5;" width="92.3333" x="213.83" y="92.15"/><path d="M224.83,105.6135 L224.83,109.1135 L230.6633,114.9469 L234.1633,111.4469 L228.33,105.6135 L224.83,105.6135 M227.1633,106.7802 C227.805,106.7802 228.33,107.3052 228.33,107.9469 C228.33,108.5885 227.805,109.1135 227.1633,109.1135 C226.5217,109.1135 225.9967,108.5885 225.9967,107.9469 C225.9967,107.3052 226.5217,106.7802 227.1633,106.7802 " fill="#000000" style="stroke:;stroke-width:0.0;stroke-dasharray:;"/><text fill="#000000" font-family="sans-serif" font-size="14" lengthAdjust="spacing" textLength="57" x="239.1633" y="115.1451">Next IFD</text></g><!--entity IFD1_Tag_SubfileType--><g id="elem_IFD1_Tag_SubfileType"><rect fill="#F1F1F1" height="52.5938" rx="2.5" ry="2.5" style="stroke:#181818;stroke-width:0.5;" width="175" x="634.5" y="203.6"/><path d="M645.5,217.0635 L645.5,220.5635 L651.3333,226.3969 L654.8333,222.8969 L649,217.0635 L645.5,217.0635 M647.8333,218.2302 C648.475,218.2302 649,218.7552 649,219.3969 C649,220.0385 648.475,220.5635 647.8333,220.5635 C647.1917,220.5635 646.6667,220.0385 646.6667,219.3969 C646.6667,218.7552 647.1917,218.2302 647.8333,218.2302 " fill="#000000" style="stroke:;stroke-width:0.0;stroke-dasharray:;"/><text fill="#000000" font-family="sans-serif" font-size="14" lengthAdjust="spacing" textLength="84" x="659.8333" y="226.5951">Subfile Type</text><text fill="#000000" font-family="sans-serif" font-size="14" font-weight="bold" lengthAdjust="spacing" textLength="155" x="644.5" y="242.892">Reduced-resolution</text></g><!--entity IFD1_Tag_Width--><g id="elem_IFD1_Tag_Width"><rect fill="#F1F1F1" height="52.5938" rx="2.5" ry="2.5" style="stroke:#181818;stroke-width:0.5;" width="74.3333" x="844.83" y="203.6"/><path d="M855.83,217.0635 L855.83,220.5635 L861.6633,226.3969 L865.1633,222.8969 L859.33,217.0635 L855.83,217.0635 M858.1633,218.2302 C858.805,218.2302 859.33,218.7552 859.33,219.3969 C859.33,220.0385 858.805,220.5635 858.1633,220.5635 C857.5217,220.5635 856.9967,220.0385 856.9967,219.3969 C856.9967,218.7552 857.5217,218.2302 858.1633,218.2302 " fill="#000000" style="stroke:;stroke-width:0.0;stroke-dasharray:;"/><text fill="#000000" font-family="sans-serif" font-size="14" lengthAdjust="spacing" textLength="39" x="870.1633" y="226.5951">Width</text><text fill="#000000" font-family="sans-serif" font-size="14" font-weight="bold" lengthAdjust="spacing" textLength="40" x="854.83" y="242.892">2048</text></g><!--entity IFD1_Tag_Height--><g id="elem_IFD1_Tag_Height"><rect fill="#F1F1F1" height="52.5938" rx="2.5" ry="2.5" style="stroke:#181818;stroke-width:0.5;" width="80.3333" x="681.83" y="347.19"/><path d="M692.83,360.6535 L692.83,364.1535 L698.6633,369.9869 L702.1633,366.4869 L696.33,360.6535 L692.83,360.6535 M695.1633,361.8202 C695.805,361.8202 696.33,362.3452 696.33,362.9869 C696.33,363.6285 695.805,364.1535 695.1633,364.1535 C694.5217,364.1535 693.9967,363.6285 693.9967,362.9869 C693.9967,362.3452 694.5217,361.8202 695.1633,361.8202 " fill="#000000" style="stroke:;stroke-width:0.0;stroke-dasharray:;"/><text fill="#000000" font-family="sans-serif" font-size="14" lengthAdjust="spacing" textLength="45" x="707.1633" y="370.1851">Height</text><text fill="#000000" font-family="sans-serif" font-size="14" font-weight="bold" lengthAdjust="spacing" textLength="40" x="691.83" y="386.482">1024</text></g><!--entity IFD1_Data--><g id="elem_IFD1_Data"><rect fill="#F1F1F1" height="36.2969" rx="2.5" ry="2.5" style="stroke:#181818;stroke-width:0.5;" width="120.3333" x="796.83" y="355.34"/><path d="M807.83,368.8035 L807.83,378.1369 L817.1633,378.1369 L817.1633,368.8035 L807.83,368.8035 M808.9967,369.9702 L815.9967,369.9702 L815.9967,373.4702 L814.83,372.3035 L813.6633,373.4702 L815.9967,375.8035 L815.9967,376.9702 L814.83,376.9702 L810.1633,372.3035 L808.9967,373.4702 L808.9967,369.9702 " fill="#000000" style="stroke:;stroke-width:0.0;stroke-dasharray:;"/><text fill="#000000" font-family="sans-serif" font-size="14" lengthAdjust="spacing" textLength="4" x="818.1633" y="378.3351">&#160;</text><text fill="#000000" font-family="sans-serif" font-size="14" font-style="italic" lengthAdjust="spacing" textLength="85" x="822.1633" y="378.3351">Image Bytes</text></g><!--entity IFD1_Tag_NextIFD--><g id="elem_IFD1_Tag_NextIFD"><rect fill="#F1F1F1" height="36.2969" rx="2.5" ry="2.5" style="stroke:#181818;stroke-width:0.5;" width="92.3333" x="506.83" y="211.75"/><path d="M517.83,225.2135 L517.83,228.7135 L523.6633,234.5469 L527.1633,231.0469 L521.33,225.2135 L517.83,225.2135 M520.1633,226.3802 C520.805,226.3802 521.33,226.9052 521.33,227.5469 C521.33,228.1885 520.805,228.7135 520.1633,228.7135 C519.5217,228.7135 518.9967,228.1885 518.9967,227.5469 C518.9967,226.9052 519.5217,226.3802 520.1633,226.3802 " fill="#000000" style="stroke:;stroke-width:0.0;stroke-dasharray:;"/><text fill="#000000" font-family="sans-serif" font-size="14" lengthAdjust="spacing" textLength="57" x="532.1633" y="234.7451">Next IFD</text></g><!--entity IFD2_Tag_SubfileType--><g id="elem_IFD2_Tag_SubfileType"><rect fill="#F1F1F1" height="52.5938" rx="2.5" ry="2.5" style="stroke:#181818;stroke-width:0.5;" width="175" x="78.5" y="347.19"/><path d="M89.5,360.6535 L89.5,364.1535 L95.3333,369.9869 L98.8333,366.4869 L93,360.6535 L89.5,360.6535 M91.8333,361.8202 C92.475,361.8202 93,362.3452 93,362.9869 C93,363.6285 92.475,364.1535 91.8333,364.1535 C91.1917,364.1535 90.6667,363.6285 90.6667,362.9869 C90.6667,362.3452 91.1917,361.8202 91.8333,361.8202 " fill="#000000" style="stroke:;stroke-width:0.0;stroke-dasharray:;"/><text fill="#000000" font-family="sans-serif" font-size="14" lengthAdjust="spacing" textLength="84" x="103.8333" y="370.1851">Subfile Type</text><text fill="#000000" font-family="sans-serif" font-size="14" font-weight="bold" lengthAdjust="spacing" textLength="155" x="88.5" y="386.482">Reduced-resolution</text></g><!--entity IFD2_Tag_Width--><g id="elem_IFD2_Tag_Width"><rect fill="#F1F1F1" height="52.5938" rx="2.5" ry="2.5" style="stroke:#181818;stroke-width:0.5;" width="74.3333" x="288.83" y="347.19"/><path d="M299.83,360.6535 L299.83,364.1535 L305.6633,369.9869 L309.1633,366.4869 L303.33,360.6535 L299.83,360.6535 M302.1633,361.8202 C302.805,361.8202 303.33,362.3452 303.33,362.9869 C303.33,363.6285 302.805,364.1535 302.1633,364.1535 C301.5217,364.1535 300.9967,363.6285 300.9967,362.9869 C300.9967,362.3452 301.5217,361.8202 302.1633,361.8202 " fill="#000000" style="stroke:;stroke-width:0.0;stroke-dasharray:;"/><text fill="#000000" font-family="sans-serif" font-size="14" lengthAdjust="spacing" textLength="39" x="314.1633" y="370.1851">Width</text><text fill="#000000" font-family="sans-serif" font-size="14" font-weight="bold" lengthAdjust="spacing" textLength="40" x="298.83" y="386.482">1024</text></g><!--entity IFD2_Tag_Height--><g id="elem_IFD2_Tag_Height"><rect fill="#F1F1F1" height="52.5938" rx="2.5" ry="2.5" style="stroke:#181818;stroke-width:0.5;" width="80.3333" x="125.83" y="459.79"/><path d="M136.83,473.2535 L136.83,476.7535 L142.6633,482.5869 L146.1633,479.0869 L140.33,473.2535 L136.83,473.2535 M139.1633,474.4202 C139.805,474.4202 140.33,474.9452 140.33,475.5869 C140.33,476.2285 139.805,476.7535 139.1633,476.7535 C138.5217,476.7535 137.9967,476.2285 137.9967,475.5869 C137.9967,474.9452 138.5217,474.4202 139.1633,474.4202 " fill="#000000" style="stroke:;stroke-width:0.0;stroke-dasharray:;"/><text fill="#000000" font-family="sans-serif" font-size="14" lengthAdjust="spacing" textLength="45" x="151.1633" y="482.7851">Height</text><text fill="#000000" font-family="sans-serif" font-size="14" font-weight="bold" lengthAdjust="spacing" textLength="30" x="135.83" y="499.082">512</text></g><!--entity IFD2_Data--><g id="elem_IFD2_Data"><rect fill="#F1F1F1" height="36.2969" rx="2.5" ry="2.5" style="stroke:#181818;stroke-width:0.5;" width="120.3333" x="240.83" y="467.93"/><path d="M251.83,481.3935 L251.83,490.7269 L261.1633,490.7269 L261.1633,481.3935 L251.83,481.3935 M252.9967,482.5602 L259.9967,482.5602 L259.9967,486.0602 L258.83,484.8935 L257.6633,486.0602 L259.9967,488.3935 L259.9967,489.5602 L258.83,489.5602 L254.1633,484.8935 L252.9967,486.0602 L252.9967,482.5602 " fill="#000000" style="stroke:;stroke-width:0.0;stroke-dasharray:;"/><text fill="#000000" font-family="sans-serif" font-size="14" lengthAdjust="spacing" textLength="4" x="262.1633" y="490.9251">&#160;</text><text fill="#000000" font-family="sans-serif" font-size="14" font-style="italic" lengthAdjust="spacing" textLength="85" x="266.1633" y="490.9251">Image Bytes</text></g><!--link IFD0_Tag_NextIFD to IFD1--><g id="link_IFD0_Tag_NextIFD_IFD1"><path d="M298.38,128.88 C306.37,131.92 314.85,134.71 323,136.6 C346.44,142.04 411.15,130.99 431,144.6 C439.4175,150.37 446.1144,158.405 451.4278,167.2408 C454.0845,171.6587 456.3954,176.2768 458.4025,180.912 C459.4061,183.2296 460.3338,185.5516 461.1907,187.8549 C461.6192,189.0066 462.0301,190.1536 462.4239,191.2931 C462.5223,191.578 462.6197,191.8624 462.7161,192.1463 C462.7643,192.2882 460.8997,186.743 460.9474,186.8847 " fill="none" id="IFD0_Tag_NextIFD-to-IFD1" style="stroke:#181818;stroke-width:1.0;"/><polygon fill="#181818" points="462.8598,192.5717,463.7826,182.7662,461.2661,187.8325,456.1998,185.3161,462.8598,192.5717" style="stroke:#181818;stroke-width:1.0;"/></g><!--link IFD1_Tag_NextIFD to IFD2--><g id="link_IFD1_Tag_NextIFD_IFD2"><path d="M537.08,248.16 C527.6,258.02 515.1,270.34 503,280.19 C498.03,284.24 496.04,284.24 491,288.19 C469.86,304.765 447.615,325.06 430.295,341.5825 C421.635,349.8438 414.2063,357.1619 408.7625,362.6003 C408.4223,362.9402 408.0898,363.2728 407.7652,363.5978 C407.603,363.7603 407.4427,363.9209 407.2844,364.0795 C407.2053,364.1589 411.3627,359.9885 411.2845,360.0669 " fill="none" id="IFD1_Tag_NextIFD-to-IFD2" style="stroke:#181818;stroke-width:1.0;"/><polygon fill="#181818" points="407.0485,364.3161,416.2354,360.7663,410.5785,360.7751,410.5698,355.1183,407.0485,364.3161" style="stroke:#181818;stroke-width:1.0;"/></g><!--SRC=[hP51Qm8n48Nl-ok2GW-2tKtOIWl5GojIBpsqbbu46NTdrs3CIfA5Il6_DudInR0LN3gdPEQz6VYUtd2v0mLRie9iKwggblbp9If5Z0AfxGYbYVIlQhtVeH9SRewYVfAbCC8smOVC_GD90K9Z51LS8DdjhOZdjuONv3iYjefAM26PJIS9wHU-JXDN2ZC3ihJEtkEDWN9CtkkLtpItXnPoC9ZMGWmLwahKXbUsqIEW_Rhb7ChbIUxK5vP-yjoitROqUHY5A_pmWla5URaspisIz3vq7wVjThw54iSaZcVkGPxs1dKSD_u96BXm-1M_Z1EU7tHT-_6-GnGmffqOls5UPvYtOgPTC9-3ebTYfWbBGtTtpFHQpFGlp644P3WSUqEO0llt55YN5CuviYjJkACiD7SFWJKXD31f6qmM7Nu0]--></g></svg>