<svg xmlns="http://www.w3.org/2000/svg" xmlns:xlink="http://www.w3.org/1999/xlink" version="1.1" height="999" width="999">
   <rect fill="#ffffff" fill-opacity="1.0" x="0" y="0" width="999" height="999" />
   <path fill="#000000" fill-opacity="1.0" d="M222 166.5 L222 207.2 C222,215.374 215.374,222 207.2,222 L125.8 222 C117.626,222 111,215.374 111,207.2 L111 125.8 C111,117.626 117.626,111 125.8,111 L207.2 111 C215.374,111 222,117.626 222,125.8 Z M222 832.5 L222 791.8 C222,783.626 215.374,777 207.2,777 L125.8 777 C117.626,777 111,783.626 111,791.8 L111 873.2 C111,881.374 117.626,888 125.8,888 L207.2 888 C215.374,888 222,881.374 222,873.2 Z M777 166.5 L777 207.2 C777,215.374 783.626,222 791.8,222 L873.2 222 C881.374,222 888,215.374 888,207.2 L888 125.8 C888,117.626 881.374,111 873.2,111 L791.8 111 C783.626,111 777,117.626 777,125.8 Z " />
   <path fill="#000000" fill-opacity="1.0" d="M240.5 74 L92.5 74 C82.288,74 74,82.288 74,92.5 L74 240.5 C74,250.712 82.288,259 92.5,259 L240.5 259 C250.712,259 259,250.712 259,240.5 L259 92.5 C259,82.288 250.712,74 240.5,74 Z M296 74 L296 259 C296,279.424 279.424,296 259,296 L74 296 C53.576,296 37,279.424 37,259 L37 74 C37,53.576 53.576,37 74,37 L259 37 C279.424,37 296,53.576 296,74 Z M240.5 925 L92.5 925 C82.288,925 74,916.712 74,906.5 L74 758.5 C74,748.288 82.288,740 92.5,740 L240.5 740 C250.712,740 259,748.288 259,758.5 L259 906.5 C259,916.712 250.712,925 240.5,925 Z M296 925 L296 740 C296,719.576 279.424,703 259,703 L74 703 C53.576,703 37,719.576 37,740 L37 925 C37,945.424 53.576,962 74,962 L259 962 C279.424,962 296,945.424 296,925 Z M758.5 74 L906.5 74 C916.712,74 925,82.288 925,92.5 L925 240.5 C925,250.712 916.712,259 906.5,259 L758.5 259 C748.288,259 740,250.712 740,240.5 L740 92.5 C740,82.288 748.288,74 758.5,74 Z M703 74 L703 259 C703,279.424 719.576,296 740,296 L925 296 C945.424,296 962,279.424 962,259 L962 74 C962,53.576 945.424,37 925,37 L740 37 C719.576,37 703,53.576 703,74 Z " />
   <path fill="#000000" fill-opacity="1.0" d="M405.15 55.5 L405.15 63.825 C405.15,68.423 401.423,72.15 396.825,72.15 L380.175 72.15 C375.577,72.15 371.85,68.423 371.85,63.825 L371.85 47.175 C371.85,42.577 375.577,38.85 380.175,38.85 L396.825 38.85 C401.423,38.85 405.15,42.577 405.15,47.175 Z M553.15 55.5 L553.15 63.825 C553.15,68.423 549.423,72.15 544.825,72.15 L528.175 72.15 C523.577,72.15 519.85,68.423 519.85,63.825 L519.85 47.175 C519.85,42.577 523.577,38.85 528.175,38.85 L544.825 38.85 C549.423,38.85 553.15,42.577 553.15,47.175 Z M405.15 92.5 L405.15 100.825 C405.15,105.423 401.423,109.15 396.825,109.15 L380.175 109.15 C375.577,109.15 371.85,105.423 371.85,100.825 L371.85 84.175 C371.85,79.577 375.577,75.85 380.175,75.85 L396.825 75.85 C401.423,75.85 405.15,79.577 405.15,84.175 Z M442.15 92.5 L442.15 100.825 C442.15,105.423 438.423,109.15 433.825,109.15 L417.175 109.15 C412.577,109.15 408.85,105.423 408.85,100.825 L408.85 84.175 C408.85,79.577 412.577,75.85 417.175,75.85 L433.825 75.85 C438.423,75.85 442.15,79.577 442.15,84.175 Z M479.15 92.5 L479.15 100.825 C479.15,105.423 475.423,109.15 470.825,109.15 L454.175 109.15 C449.577,109.15 445.85,105.423 445.85,100.825 L445.85 84.175 C445.85,79.577 449.577,75.85 454.175,75.85 L470.825 75.85 C475.423,75.85 479.15,79.577 479.15,84.175 Z M553.15 92.5 L553.15 100.825 C553.15,105.423 549.423,109.15 544.825,109.15 L528.175 109.15 C523.577,109.15 519.85,105.423 519.85,100.825 L519.85 84.175 C519.85,79.577 523.577,75.85 528.175,75.85 L544.825 75.85 C549.423,75.85 553.15,79.577 553.15,84.175 Z M590.15 92.5 L590.15 100.825 C590.15,105.423 586.423,109.15 581.825,109.15 L565.175 109.15 C560.577,109.15 556.85,105.423 556.85,100.825 L556.85 84.175 C556.85,79.577 560.577,75.85 565.175,75.85 L581.825 75.85 C586.423,75.85 590.15,79.577 590.15,84.175 Z M627.15 92.5 L627.15 100.825 C627.15,105.423 623.423,109.15 618.825,109.15 L602.175 109.15 C597.577,109.15 593.85,105.423 593.85,100.825 L593.85 84.175 C593.85,79.577 597.577,75.85 602.175,75.85 L618.825 75.85 C623.423,75.85 627.15,79.577 627.15,84.175 Z M664.15 92.5 L664.15 100.825 C664.15,105.423 660.423,109.15 655.825,109.15 L639.175 109.15 C634.577,109.15 630.85,105.423 630.85,100.825 L630.85 84.175 C630.85,79.577 634.577,75.85 639.175,75.85 L655.825 75.85 C660.423,75.85 664.15,79.577 664.15,84.175 Z M368.15 129.5 L368.15 137.825 C368.15,142.423 364.423,146.15 359.825,146.15 L343.175 146.15 C338.577,146.15 334.85,142.423 334.85,137.825 L334.85 121.175 C334.85,116.577 338.577,112.85 343.175,112.85 L359.825 112.85 C364.423,112.85 368.15,116.577 368.15,121.175 Z M405.15 129.5 L405.15 137.825 C405.15,142.423 401.423,146.15 396.825,146.15 L380.175 146.15 C375.577,146.15 371.85,142.423 371.85,137.825 L371.85 121.175 C371.85,116.577 375.577,112.85 380.175,112.85 L396.825 112.85 C401.423,112.85 405.15,116.577 405.15,121.175 Z M442.15 129.5 L442.15 137.825 C442.15,142.423 438.423,146.15 433.825,146.15 L417.175 146.15 C412.577,146.15 408.85,142.423 408.85,137.825 L408.85 121.175 C408.85,116.577 412.577,112.85 417.175,112.85 L433.825 112.85 C438.423,112.85 442.15,116.577 442.15,121.175 Z M516.15 129.5 L516.15 137.825 C516.15,142.423 512.423,146.15 507.825,146.15 L491.175 146.15 C486.577,146.15 482.85,142.423 482.85,137.825 L482.85 121.175 C482.85,116.577 486.577,112.85 491.175,112.85 L507.825 112.85 C512.423,112.85 516.15,116.577 516.15,121.175 Z M590.15 129.5 L590.15 137.825 C590.15,142.423 586.423,146.15 581.825,146.15 L565.175 146.15 C560.577,146.15 556.85,142.423 556.85,137.825 L556.85 121.175 C556.85,116.577 560.577,112.85 565.175,112.85 L581.825 112.85 C586.423,112.85 590.15,116.577 590.15,121.175 Z M627.15 129.5 L627.15 137.825 C627.15,142.423 623.423,146.15 618.825,146.15 L602.175 146.15 C597.577,146.15 593.85,142.423 593.85,137.825 L593.85 121.175 C593.85,116.577 597.577,112.85 602.175,112.85 L618.825 112.85 C623.423,112.85 627.15,116.577 627.15,121.175 Z M664.15 129.5 L664.15 137.825 C664.15,142.423 660.423,146.15 655.825,146.15 L639.175 146.15 C634.577,146.15 630.85,142.423 630.85,137.825 L630.85 121.175 C630.85,116.577 634.577,112.85 639.175,112.85 L655.825 112.85 C660.423,112.85 664.15,116.577 664.15,121.175 Z M368.15 166.5 L368.15 174.825 C368.15,179.423 364.423,183.15 359.825,183.15 L343.175 183.15 C338.577,183.15 334.85,179.423 334.85,174.825 L334.85 158.175 C334.85,153.577 338.577,149.85 343.175,149.85 L359.825 149.85 C364.423,149.85 368.15,153.577 368.15,158.175 Z M405.15 166.5 L405.15 174.825 C405.15,179.423 401.423,183.15 396.825,183.15 L380.175 183.15 C375.577,183.15 371.85,179.423 371.85,174.825 L371.85 158.175 C371.85,153.577 375.577,149.85 380.175,149.85 L396.825 149.85 C401.423,149.85 405.15,153.577 405.15,158.175 Z M627.15 166.5 L627.15 174.825 C627.15,179.423 623.423,183.15 618.825,183.15 L602.175 183.15 C597.577,183.15 593.85,179.423 593.85,174.825 L593.85 158.175 C593.85,153.577 597.577,149.85 602.175,149.85 L618.825 149.85 C623.423,149.85 627.15,153.577 627.15,158.175 Z M368.15 203.5 L368.15 211.825 C368.15,216.423 364.423,220.15 359.825,220.15 L343.175 220.15 C338.577,220.15 334.85,216.423 334.85,211.825 L334.85 195.175 C334.85,190.577 338.577,186.85 343.175,186.85 L359.825 186.85 C364.423,186.85 368.15,190.577 368.15,195.175 Z M479.15 203.5 L479.15 211.825 C479.15,216.423 475.423,220.15 470.825,220.15 L454.175 220.15 C449.577,220.15 445.85,216.423 445.85,211.825 L445.85 195.175 C445.85,190.577 449.577,186.85 454.175,186.85 L470.825 186.85 C475.423,186.85 479.15,190.577 479.15,195.175 Z M553.15 203.5 L553.15 211.825 C553.15,216.423 549.423,220.15 544.825,220.15 L528.175 220.15 C523.577,220.15 519.85,216.423 519.85,211.825 L519.85 195.175 C519.85,190.577 523.577,186.85 528.175,186.85 L544.825 186.85 C549.423,186.85 553.15,190.577 553.15,195.175 Z M664.15 203.5 L664.15 211.825 C664.15,216.423 660.423,220.15 655.825,220.15 L639.175 220.15 C634.577,220.15 630.85,216.423 630.85,211.825 L630.85 195.175 C630.85,190.577 634.577,186.85 639.175,186.85 L655.825 186.85 C660.423,186.85 664.15,190.577 664.15,195.175 Z M368.15 240.5 L368.15 248.825 C368.15,253.423 364.423,257.15 359.825,257.15 L343.175 257.15 C338.577,257.15 334.85,253.423 334.85,248.825 L334.85 232.175 C334.85,227.577 338.577,223.85 343.175,223.85 L359.825 223.85 C364.423,223.85 368.15,227.577 368.15,232.175 Z M405.15 240.5 L405.15 248.825 C405.15,253.423 401.423,257.15 396.825,257.15 L380.175 257.15 C375.577,257.15 371.85,253.423 371.85,248.825 L371.85 232.175 C371.85,227.577 375.577,223.85 380.175,223.85 L396.825 223.85 C401.423,223.85 405.15,227.577 405.15,232.175 Z M442.15 240.5 L442.15 248.825 C442.15,253.423 438.423,257.15 433.825,257.15 L417.175 257.15 C412.577,257.15 408.85,253.423 408.85,248.825 L408.85 232.175 C408.85,227.577 412.577,223.85 417.175,223.85 L433.825 223.85 C438.423,223.85 442.15,227.577 442.15,232.175 Z M479.15 240.5 L479.15 248.825 C479.15,253.423 475.423,257.15 470.825,257.15 L454.175 257.15 C449.577,257.15 445.85,253.423 445.85,248.825 L445.85 232.175 C445.85,227.577 449.577,223.85 454.175,223.85 L470.825 223.85 C475.423,223.85 479.15,227.577 479.15,232.175 Z M553.15 240.5 L553.15 248.825 C553.15,253.423 549.423,257.15 544.825,257.15 L528.175 257.15 C523.577,257.15 519.85,253.423 519.85,248.825 L519.85 232.175 C519.85,227.577 523.577,223.85 528.175,223.85 L544.825 223.85 C549.423,223.85 553.15,227.577 553.15,232.175 Z M590.15 240.5 L590.15 248.825 C590.15,253.423 586.423,257.15 581.825,257.15 L565.175 257.15 C560.577,257.15 556.85,253.423 556.85,248.825 L556.85 232.175 C556.85,227.577 560.577,223.85 565.175,223.85 L581.825 223.85 C586.423,223.85 590.15,227.577 590.15,232.175 Z M627.15 240.5 L627.15 248.825 C627.15,253.423 623.423,257.15 618.825,257.15 L602.175 257.15 C597.577,257.15 593.85,253.423 593.85,248.825 L593.85 232.175 C593.85,227.577 597.577,223.85 602.175,223.85 L618.825 223.85 C623.423,223.85 627.15,227.577 627.15,232.175 Z M664.15 240.5 L664.15 248.825 C664.15,253.423 660.423,257.15 655.825,257.15 L639.175 257.15 C634.577,257.15 630.85,253.423 630.85,248.825 L630.85 232.175 C630.85,227.577 634.577,223.85 639.175,223.85 L655.825 223.85 C660.423,223.85 664.15,227.577 664.15,232.175 Z M368.15 277.5 L368.15 285.825 C368.15,290.423 364.423,294.15 359.825,294.15 L343.175 294.15 C338.577,294.15 334.85,290.423 334.85,285.825 L334.85 269.175 C334.85,264.577 338.577,260.85 343.175,260.85 L359.825 260.85 C364.423,260.85 368.15,264.577 368.15,269.175 Z M442.15 277.5 L442.15 285.825 C442.15,290.423 438.423,294.15 433.825,294.15 L417.175 294.15 C412.577,294.15 408.85,290.423 408.85,285.825 L408.85 269.175 C408.85,264.577 412.577,260.85 417.175,260.85 L433.825 260.85 C438.423,260.85 442.15,264.577 442.15,269.175 Z M516.15 277.5 L516.15 285.825 C516.15,290.423 512.423,294.15 507.825,294.15 L491.175 294.15 C486.577,294.15 482.85,290.423 482.85,285.825 L482.85 269.175 C482.85,264.577 486.577,260.85 491.175,260.85 L507.825 260.85 C512.423,260.85 516.15,264.577 516.15,269.175 Z M590.15 277.5 L590.15 285.825 C590.15,290.423 586.423,294.15 581.825,294.15 L565.175 294.15 C560.577,294.15 556.85,290.423 556.85,285.825 L556.85 269.175 C556.85,264.577 560.577,260.85 565.175,260.85 L581.825 260.85 C586.423,260.85 590.15,264.577 590.15,269.175 Z M664.15 277.5 L664.15 285.825 C664.15,290.423 660.423,294.15 655.825,294.15 L639.175 294.15 C634.577,294.15 630.85,290.423 630.85,285.825 L630.85 269.175 C630.85,264.577 634.577,260.85 639.175,260.85 L655.825 260.85 C660.423,260.85 664.15,264.577 664.15,269.175 Z M368.15 314.5 L368.15 322.825 C368.15,327.423 364.423,331.15 359.825,331.15 L343.175 331.15 C338.577,331.15 334.85,327.423 334.85,322.825 L334.85 306.175 C334.85,301.577 338.577,297.85 343.175,297.85 L359.825 297.85 C364.423,297.85 368.15,301.577 368.15,306.175 Z M405.15 314.5 L405.15 322.825 C405.15,327.423 401.423,331.15 396.825,331.15 L380.175 331.15 C375.577,331.15 371.85,327.423 371.85,322.825 L371.85 306.175 C371.85,301.577 375.577,297.85 380.175,297.85 L396.825 297.85 C401.423,297.85 405.15,301.577 405.15,306.175 Z M442.15 314.5 L442.15 322.825 C442.15,327.423 438.423,331.15 433.825,331.15 L417.175 331.15 C412.577,331.15 408.85,327.423 408.85,322.825 L408.85 306.175 C408.85,301.577 412.577,297.85 417.175,297.85 L433.825 297.85 C438.423,297.85 442.15,301.577 442.15,306.175 Z M479.15 314.5 L479.15 322.825 C479.15,327.423 475.423,331.15 470.825,331.15 L454.175 331.15 C449.577,331.15 445.85,327.423 445.85,322.825 L445.85 306.175 C445.85,301.577 449.577,297.85 454.175,297.85 L470.825 297.85 C475.423,297.85 479.15,301.577 479.15,306.175 Z M553.15 314.5 L553.15 322.825 C553.15,327.423 549.423,331.15 544.825,331.15 L528.175 331.15 C523.577,331.15 519.85,327.423 519.85,322.825 L519.85 306.175 C519.85,301.577 523.577,297.85 528.175,297.85 L544.825 297.85 C549.423,297.85 553.15,301.577 553.15,306.175 Z M627.15 314.5 L627.15 322.825 C627.15,327.423 623.423,331.15 618.825,331.15 L602.175 331.15 C597.577,331.15 593.85,327.423 593.85,322.825 L593.85 306.175 C593.85,301.577 597.577,297.85 602.175,297.85 L618.825 297.85 C623.423,297.85 627.15,301.577 627.15,306.175 Z M664.15 314.5 L664.15 322.825 C664.15,327.423 660.423,331.15 655.825,331.15 L639.175 331.15 C634.577,331.15 630.85,327.423 630.85,322.825 L630.85 306.175 C630.85,301.577 634.577,297.85 639.175,297.85 L655.825 297.85 C660.423,297.85 664.15,301.577 664.15,306.175 Z M72.15 351.5 L72.15 359.825 C72.15,364.423 68.423,368.15 63.825,368.15 L47.175 368.15 C42.577,368.15 38.85,364.423 38.85,359.825 L38.85 343.175 C38.85,338.577 42.577,334.85 47.175,334.85 L63.825 334.85 C68.423,334.85 72.15,338.577 72.15,343.175 Z M146.15 351.5 L146.15 359.825 C146.15,364.423 142.423,368.15 137.825,368.15 L121.175 368.15 C116.577,368.15 112.85,364.423 112.85,359.825 L112.85 343.175 C112.85,338.577 116.577,334.85 121.175,334.85 L137.825 334.85 C142.423,334.85 146.15,338.577 146.15,343.175 Z M183.15 351.5 L183.15 359.825 C183.15,364.423 179.423,368.15 174.825,368.15 L158.175 368.15 C153.577,368.15 149.85,364.423 149.85,359.825 L149.85 343.175 C149.85,338.577 153.577,334.85 158.175,334.85 L174.825 334.85 C179.423,334.85 183.15,338.577 183.15,343.175 Z M220.15 351.5 L220.15 359.825 C220.15,364.423 216.423,368.15 211.825,368.15 L195.175 368.15 C190.577,368.15 186.85,364.423 186.85,359.825 L186.85 343.175 C186.85,338.577 190.577,334.85 195.175,334.85 L211.825 334.85 C216.423,334.85 220.15,338.577 220.15,343.175 Z M257.15 351.5 L257.15 359.825 C257.15,364.423 253.423,368.15 248.825,368.15 L232.175 368.15 C227.577,368.15 223.85,364.423 223.85,359.825 L223.85 343.175 C223.85,338.577 227.577,334.85 232.175,334.85 L248.825 334.85 C253.423,334.85 257.15,338.577 257.15,343.175 Z M294.15 351.5 L294.15 359.825 C294.15,364.423 290.423,368.15 285.825,368.15 L269.175 368.15 C264.577,368.15 260.85,364.423 260.85,359.825 L260.85 343.175 C260.85,338.577 264.577,334.85 269.175,334.85 L285.825 334.85 C290.423,334.85 294.15,338.577 294.15,343.175 Z M405.15 351.5 L405.15 359.825 C405.15,364.423 401.423,368.15 396.825,368.15 L380.175 368.15 C375.577,368.15 371.85,364.423 371.85,359.825 L371.85 343.175 C371.85,338.577 375.577,334.85 380.175,334.85 L396.825 334.85 C401.423,334.85 405.15,338.577 405.15,343.175 Z M516.15 351.5 L516.15 359.825 C516.15,364.423 512.423,368.15 507.825,368.15 L491.175 368.15 C486.577,368.15 482.85,364.423 482.85,359.825 L482.85 343.175 C482.85,338.577 486.577,334.85 491.175,334.85 L507.825 334.85 C512.423,334.85 516.15,338.577 516.15,343.175 Z M590.15 351.5 L590.15 359.825 C590.15,364.423 586.423,368.15 581.825,368.15 L565.175 368.15 C560.577,368.15 556.85,364.423 556.85,359.825 L556.85 343.175 C556.85,338.577 560.577,334.85 565.175,334.85 L581.825 334.85 C586.423,334.85 590.15,338.577 590.15,343.175 Z M738.15 351.5 L738.15 359.825 C738.15,364.423 734.423,368.15 729.825,368.15 L713.175 368.15 C708.577,368.15 704.85,364.423 704.85,359.825 L704.85 343.175 C704.85,338.577 708.577,334.85 713.175,334.85 L729.825 334.85 C734.423,334.85 738.15,338.577 738.15,343.175 Z M775.15 351.5 L775.15 359.825 C775.15,364.423 771.423,368.15 766.825,368.15 L750.175 368.15 C745.577,368.15 741.85,364.423 741.85,359.825 L741.85 343.175 C741.85,338.577 745.577,334.85 750.175,334.85 L766.825 334.85 C771.423,334.85 775.15,338.577 775.15,343.175 Z M812.15 351.5 L812.15 359.825 C812.15,364.423 808.423,368.15 803.825,368.15 L787.175 368.15 C782.577,368.15 778.85,364.423 778.85,359.825 L778.85 343.175 C778.85,338.577 782.577,334.85 787.175,334.85 L803.825 334.85 C808.423,334.85 812.15,338.577 812.15,343.175 Z M849.15 351.5 L849.15 359.825 C849.15,364.423 845.423,368.15 840.825,368.15 L824.175 368.15 C819.577,368.15 815.85,364.423 815.85,359.825 L815.85 343.175 C815.85,338.577 819.577,334.85 824.175,334.85 L840.825 334.85 C845.423,334.85 849.15,338.577 849.15,343.175 Z M886.15 351.5 L886.15 359.825 C886.15,364.423 882.423,368.15 877.825,368.15 L861.175 368.15 C856.577,368.15 852.85,364.423 852.85,359.825 L852.85 343.175 C852.85,338.577 856.577,334.85 861.175,334.85 L877.825 334.85 C882.423,334.85 886.15,338.577 886.15,343.175 Z M72.15 388.5 L72.15 396.825 C72.15,401.423 68.423,405.15 63.825,405.15 L47.175 405.15 C42.577,405.15 38.85,401.423 38.85,396.825 L38.85 380.175 C38.85,375.577 42.577,371.85 47.175,371.85 L63.825 371.85 C68.423,371.85 72.15,375.577 72.15,380.175 Z M109.15 388.5 L109.15 396.825 C109.15,401.423 105.423,405.15 100.825,405.15 L84.175 405.15 C79.577,405.15 75.85,401.423 75.85,396.825 L75.85 380.175 C75.85,375.577 79.577,371.85 84.175,371.85 L100.825 371.85 C105.423,371.85 109.15,375.577 109.15,380.175 Z M146.15 388.5 L146.15 396.825 C146.15,401.423 142.423,405.15 137.825,405.15 L121.175 405.15 C116.577,405.15 112.85,401.423 112.85,396.825 L112.85 380.175 C112.85,375.577 116.577,371.85 121.175,371.85 L137.825 371.85 C142.423,371.85 146.15,375.577 146.15,380.175 Z M183.15 388.5 L183.15 396.825 C183.15,401.423 179.423,405.15 174.825,405.15 L158.175 405.15 C153.577,405.15 149.85,401.423 149.85,396.825 L149.85 380.175 C149.85,375.577 153.577,371.85 158.175,371.85 L174.825 371.85 C179.423,371.85 183.15,375.577 183.15,380.175 Z M220.15 388.5 L220.15 396.825 C220.15,401.423 216.423,405.15 211.825,405.15 L195.175 405.15 C190.577,405.15 186.85,401.423 186.85,396.825 L186.85 380.175 C186.85,375.577 190.577,371.85 195.175,371.85 L211.825 371.85 C216.423,371.85 220.15,375.577 220.15,380.175 Z M479.15 388.5 L479.15 396.825 C479.15,401.423 475.423,405.15 470.825,405.15 L454.175 405.15 C449.577,405.15 445.85,401.423 445.85,396.825 L445.85 380.175 C445.85,375.577 449.577,371.85 454.175,371.85 L470.825 371.85 C475.423,371.85 479.15,375.577 479.15,380.175 Z M664.15 388.5 L664.15 396.825 C664.15,401.423 660.423,405.15 655.825,405.15 L639.175 405.15 C634.577,405.15 630.85,401.423 630.85,396.825 L630.85 380.175 C630.85,375.577 634.577,371.85 639.175,371.85 L655.825 371.85 C660.423,371.85 664.15,375.577 664.15,380.175 Z M701.15 388.5 L701.15 396.825 C701.15,401.423 697.423,405.15 692.825,405.15 L676.175 405.15 C671.577,405.15 667.85,401.423 667.85,396.825 L667.85 380.175 C667.85,375.577 671.577,371.85 676.175,371.85 L692.825 371.85 C697.423,371.85 701.15,375.577 701.15,380.175 Z M775.15 388.5 L775.15 396.825 C775.15,401.423 771.423,405.15 766.825,405.15 L750.175 405.15 C745.577,405.15 741.85,401.423 741.85,396.825 L741.85 380.175 C741.85,375.577 745.577,371.85 750.175,371.85 L766.825 371.85 C771.423,371.85 775.15,375.577 775.15,380.175 Z M923.15 388.5 L923.15 396.825 C923.15,401.423 919.423,405.15 914.825,405.15 L898.175 405.15 C893.577,405.15 889.85,401.423 889.85,396.825 L889.85 380.175 C889.85,375.577 893.577,371.85 898.175,371.85 L914.825 371.85 C919.423,371.85 923.15,375.577 923.15,380.175 Z M109.15 425.5 L109.15 433.825 C109.15,438.423 105.423,442.15 100.825,442.15 L84.175 442.15 C79.577,442.15 75.85,438.423 75.85,433.825 L75.85 417.175 C75.85,412.577 79.577,408.85 84.175,408.85 L100.825 408.85 C105.423,408.85 109.15,412.577 109.15,417.175 Z M183.15 425.5 L183.15 433.825 C183.15,438.423 179.423,442.15 174.825,442.15 L158.175 442.15 C153.577,442.15 149.85,438.423 149.85,433.825 L149.85 417.175 C149.85,412.577 153.577,408.85 158.175,408.85 L174.825 408.85 C179.423,408.85 183.15,412.577 183.15,417.175 Z M220.15 425.5 L220.15 433.825 C220.15,438.423 216.423,442.15 211.825,442.15 L195.175 442.15 C190.577,442.15 186.85,438.423 186.85,433.825 L186.85 417.175 C186.85,412.577 190.577,408.85 195.175,408.85 L211.825 408.85 C216.423,408.85 220.15,412.577 220.15,417.175 Z M257.15 425.5 L257.15 433.825 C257.15,438.423 253.423,442.15 248.825,442.15 L232.175 442.15 C227.577,442.15 223.85,438.423 223.85,433.825 L223.85 417.175 C223.85,412.577 227.577,408.85 232.175,408.85 L248.825 408.85 C253.423,408.85 257.15,412.577 257.15,417.175 Z M294.15 425.5 L294.15 433.825 C294.15,438.423 290.423,442.15 285.825,442.15 L269.175 442.15 C264.577,442.15 260.85,438.423 260.85,433.825 L260.85 417.175 C260.85,412.577 264.577,408.85 269.175,408.85 L285.825 408.85 C290.423,408.85 294.15,412.577 294.15,417.175 Z M331.15 425.5 L331.15 433.825 C331.15,438.423 327.423,442.15 322.825,442.15 L306.175 442.15 C301.577,442.15 297.85,438.423 297.85,433.825 L297.85 417.175 C297.85,412.577 301.577,408.85 306.175,408.85 L322.825 408.85 C327.423,408.85 331.15,412.577 331.15,417.175 Z M368.15 425.5 L368.15 433.825 C368.15,438.423 364.423,442.15 359.825,442.15 L343.175 442.15 C338.577,442.15 334.85,438.423 334.85,433.825 L334.85 417.175 C334.85,412.577 338.577,408.85 343.175,408.85 L359.825 408.85 C364.423,408.85 368.15,412.577 368.15,417.175 Z M442.15 425.5 L442.15 433.825 C442.15,438.423 438.423,442.15 433.825,442.15 L417.175 442.15 C412.577,442.15 408.85,438.423 408.85,433.825 L408.85 417.175 C408.85,412.577 412.577,408.85 417.175,408.85 L433.825 408.85 C438.423,408.85 442.15,412.577 442.15,417.175 Z M627.15 425.5 L627.15 433.825 C627.15,438.423 623.423,442.15 618.825,442.15 L602.175 442.15 C597.577,442.15 593.85,438.423 593.85,433.825 L593.85 417.175 C593.85,412.577 597.577,408.85 602.175,408.85 L618.825 408.85 C623.423,408.85 627.15,412.577 627.15,417.175 Z M738.15 425.5 L738.15 433.825 C738.15,438.423 734.423,442.15 729.825,442.15 L713.175 442.15 C708.577,442.15 704.85,438.423 704.85,433.825 L704.85 417.175 C704.85,412.577 708.577,408.85 713.175,408.85 L729.825 408.85 C734.423,408.85 738.15,412.577 738.15,417.175 Z M849.15 425.5 L849.15 433.825 C849.15,438.423 845.423,442.15 840.825,442.15 L824.175 442.15 C819.577,442.15 815.85,438.423 815.85,433.825 L815.85 417.175 C815.85,412.577 819.577,408.85 824.175,408.85 L840.825 408.85 C845.423,408.85 849.15,412.577 849.15,417.175 Z M923.15 425.5 L923.15 433.825 C923.15,438.423 919.423,442.15 914.825,442.15 L898.175 442.15 C893.577,442.15 889.85,438.423 889.85,433.825 L889.85 417.175 C889.85,412.577 893.577,408.85 898.175,408.85 L914.825 408.85 C919.423,408.85 923.15,412.577 923.15,417.175 Z M960.15 425.5 L960.15 433.825 C960.15,438.423 956.423,442.15 951.825,442.15 L935.175 442.15 C930.577,442.15 926.85,438.423 926.85,433.825 L926.85 417.175 C926.85,412.577 930.577,408.85 935.175,408.85 L951.825 408.85 C956.423,408.85 960.15,412.577 960.15,417.175 Z M72.15 462.5 L72.15 470.825 C72.15,475.423 68.423,479.15 63.825,479.15 L47.175 479.15 C42.577,479.15 38.85,475.423 38.85,470.825 L38.85 454.175 C38.85,449.577 42.577,445.85 47.175,445.85 L63.825 445.85 C68.423,445.85 72.15,449.577 72.15,454.175 Z M109.15 462.5 L109.15 470.825 C109.15,475.423 105.423,479.15 100.825,479.15 L84.175 479.15 C79.577,479.15 75.85,475.423 75.85,470.825 L75.85 454.175 C75.85,449.577 79.577,445.85 84.175,445.85 L100.825 445.85 C105.423,445.85 109.15,449.577 109.15,454.175 Z M146.15 462.5 L146.15 470.825 C146.15,475.423 142.423,479.15 137.825,479.15 L121.175 479.15 C116.577,479.15 112.85,475.423 112.85,470.825 L112.85 454.175 C112.85,449.577 116.577,445.85 121.175,445.85 L137.825 445.85 C142.423,445.85 146.15,449.577 146.15,454.175 Z M368.15 462.5 L368.15 470.825 C368.15,475.423 364.423,479.15 359.825,479.15 L343.175 479.15 C338.577,479.15 334.85,475.423 334.85,470.825 L334.85 454.175 C334.85,449.577 338.577,445.85 343.175,445.85 L359.825 445.85 C364.423,445.85 368.15,449.577 368.15,454.175 Z M405.15 462.5 L405.15 470.825 C405.15,475.423 401.423,479.15 396.825,479.15 L380.175 479.15 C375.577,479.15 371.85,475.423 371.85,470.825 L371.85 454.175 C371.85,449.577 375.577,445.85 380.175,445.85 L396.825 445.85 C401.423,445.85 405.15,449.577 405.15,454.175 Z M442.15 462.5 L442.15 470.825 C442.15,475.423 438.423,479.15 433.825,479.15 L417.175 479.15 C412.577,479.15 408.85,475.423 408.85,470.825 L408.85 454.175 C408.85,449.577 412.577,445.85 417.175,445.85 L433.825 445.85 C438.423,445.85 442.15,449.577 442.15,454.175 Z M516.15 462.5 L516.15 470.825 C516.15,475.423 512.423,479.15 507.825,479.15 L491.175 479.15 C486.577,479.15 482.85,475.423 482.85,470.825 L482.85 454.175 C482.85,449.577 486.577,445.85 491.175,445.85 L507.825 445.85 C512.423,445.85 516.15,449.577 516.15,454.175 Z M590.15 462.5 L590.15 470.825 C590.15,475.423 586.423,479.15 581.825,479.15 L565.175 479.15 C560.577,479.15 556.85,475.423 556.85,470.825 L556.85 454.175 C556.85,449.577 560.577,445.85 565.175,445.85 L581.825 445.85 C586.423,445.85 590.15,449.577 590.15,454.175 Z M664.15 462.5 L664.15 470.825 C664.15,475.423 660.423,479.15 655.825,479.15 L639.175 479.15 C634.577,479.15 630.85,475.423 630.85,470.825 L630.85 454.175 C630.85,449.577 634.577,445.85 639.175,445.85 L655.825 445.85 C660.423,445.85 664.15,449.577 664.15,454.175 Z M738.15 462.5 L738.15 470.825 C738.15,475.423 734.423,479.15 729.825,479.15 L713.175 479.15 C708.577,479.15 704.85,475.423 704.85,470.825 L704.85 454.175 C704.85,449.577 708.577,445.85 713.175,445.85 L729.825 445.85 C734.423,445.85 738.15,449.577 738.15,454.175 Z M775.15 462.5 L775.15 470.825 C775.15,475.423 771.423,479.15 766.825,479.15 L750.175 479.15 C745.577,479.15 741.85,475.423 741.85,470.825 L741.85 454.175 C741.85,449.577 745.577,445.85 750.175,445.85 L766.825 445.85 C771.423,445.85 775.15,449.577 775.15,454.175 Z M960.15 462.5 L960.15 470.825 C960.15,475.423 956.423,479.15 951.825,479.15 L935.175 479.15 C930.577,479.15 926.85,475.423 926.85,470.825 L926.85 454.175 C926.85,449.577 930.577,445.85 935.175,445.85 L951.825 445.85 C956.423,445.85 960.15,449.577 960.15,454.175 Z M109.15 499.5 L109.15 507.825 C109.15,512.423 105.423,516.15 100.825,516.15 L84.175 516.15 C79.577,516.15 75.85,512.423 75.85,507.825 L75.85 491.175 C75.85,486.577 79.577,482.85 84.175,482.85 L100.825 482.85 C105.423,482.85 109.15,486.577 109.15,491.175 Z M294.15 499.5 L294.15 507.825 C294.15,512.423 290.423,516.15 285.825,516.15 L269.175 516.15 C264.577,516.15 260.85,512.423 260.85,507.825 L260.85 491.175 C260.85,486.577 264.577,482.85 269.175,482.85 L285.825 482.85 C290.423,482.85 294.15,486.577 294.15,491.175 Z M405.15 499.5 L405.15 507.825 C405.15,512.423 401.423,516.15 396.825,516.15 L380.175 516.15 C375.577,516.15 371.85,512.423 371.85,507.825 L371.85 491.175 C371.85,486.577 375.577,482.85 380.175,482.85 L396.825 482.85 C401.423,482.85 405.15,486.577 405.15,491.175 Z M701.15 499.5 L701.15 507.825 C701.15,512.423 697.423,516.15 692.825,516.15 L676.175 516.15 C671.577,516.15 667.85,512.423 667.85,507.825 L667.85 491.175 C667.85,486.577 671.577,482.85 676.175,482.85 L692.825 482.85 C697.423,482.85 701.15,486.577 701.15,491.175 Z M738.15 499.5 L738.15 507.825 C738.15,512.423 734.423,516.15 729.825,516.15 L713.175 516.15 C708.577,516.15 704.85,512.423 704.85,507.825 L704.85 491.175 C704.85,486.577 708.577,482.85 713.175,482.85 L729.825 482.85 C734.423,482.85 738.15,486.577 738.15,491.175 Z M812.15 499.5 L812.15 507.825 C812.15,512.423 808.423,516.15 803.825,516.15 L787.175 516.15 C782.577,516.15 778.85,512.423 778.85,507.825 L778.85 491.175 C778.85,486.577 782.577,482.85 787.175,482.85 L803.825 482.85 C808.423,482.85 812.15,486.577 812.15,491.175 Z M886.15 499.5 L886.15 507.825 C886.15,512.423 882.423,516.15 877.825,516.15 L861.175 516.15 C856.577,516.15 852.85,512.423 852.85,507.825 L852.85 491.175 C852.85,486.577 856.577,482.85 861.175,482.85 L877.825 482.85 C882.423,482.85 886.15,486.577 886.15,491.175 Z M923.15 499.5 L923.15 507.825 C923.15,512.423 919.423,516.15 914.825,516.15 L898.175 516.15 C893.577,516.15 889.85,512.423 889.85,507.825 L889.85 491.175 C889.85,486.577 893.577,482.85 898.175,482.85 L914.825 482.85 C919.423,482.85 923.15,486.577 923.15,491.175 Z M960.15 499.5 L960.15 507.825 C960.15,512.423 956.423,516.15 951.825,516.15 L935.175 516.15 C930.577,516.15 926.85,512.423 926.85,507.825 L926.85 491.175 C926.85,486.577 930.577,482.85 935.175,482.85 L951.825 482.85 C956.423,482.85 960.15,486.577 960.15,491.175 Z M72.15 536.5 L72.15 544.825 C72.15,549.423 68.423,553.15 63.825,553.15 L47.175 553.15 C42.577,553.15 38.85,549.423 38.85,544.825 L38.85 528.175 C38.85,523.577 42.577,519.85 47.175,519.85 L63.825 519.85 C68.423,519.85 72.15,523.577 72.15,528.175 Z M109.15 536.5 L109.15 544.825 C109.15,549.423 105.423,553.15 100.825,553.15 L84.175 553.15 C79.577,553.15 75.85,549.423 75.85,544.825 L75.85 528.175 C75.85,523.577 79.577,519.85 84.175,519.85 L100.825 519.85 C105.423,519.85 109.15,523.577 109.15,528.175 Z M183.15 536.5 L183.15 544.825 C183.15,549.423 179.423,553.15 174.825,553.15 L158.175 553.15 C153.577,553.15 149.85,549.423 149.85,544.825 L149.85 528.175 C149.85,523.577 153.577,519.85 158.175,519.85 L174.825 519.85 C179.423,519.85 183.15,523.577 183.15,528.175 Z M257.15 536.5 L257.15 544.825 C257.15,549.423 253.423,553.15 248.825,553.15 L232.175 553.15 C227.577,553.15 223.85,549.423 223.85,544.825 L223.85 528.175 C223.85,523.577 227.577,519.85 232.175,519.85 L248.825 519.85 C253.423,519.85 257.15,523.577 257.15,528.175 Z M368.15 536.5 L368.15 544.825 C368.15,549.423 364.423,553.15 359.825,553.15 L343.175 553.15 C338.577,553.15 334.85,549.423 334.85,544.825 L334.85 528.175 C334.85,523.577 338.577,519.85 343.175,519.85 L359.825 519.85 C364.423,519.85 368.15,523.577 368.15,528.175 Z M516.15 536.5 L516.15 544.825 C516.15,549.423 512.423,553.15 507.825,553.15 L491.175 553.15 C486.577,553.15 482.85,549.423 482.85,544.825 L482.85 528.175 C482.85,523.577 486.577,519.85 491.175,519.85 L507.825 519.85 C512.423,519.85 516.15,523.577 516.15,528.175 Z M553.15 536.5 L553.15 544.825 C553.15,549.423 549.423,553.15 544.825,553.15 L528.175 553.15 C523.577,553.15 519.85,549.423 519.85,544.825 L519.85 528.175 C519.85,523.577 523.577,519.85 528.175,519.85 L544.825 519.85 C549.423,519.85 553.15,523.577 553.15,528.175 Z M590.15 536.5 L590.15 544.825 C590.15,549.423 586.423,553.15 581.825,553.15 L565.175 553.15 C560.577,553.15 556.85,549.423 556.85,544.825 L556.85 528.175 C556.85,523.577 560.577,519.85 565.175,519.85 L581.825 519.85 C586.423,519.85 590.15,523.577 590.15,528.175 Z M775.15 536.5 L775.15 544.825 C775.15,549.423 771.423,553.15 766.825,553.15 L750.175 553.15 C745.577,553.15 741.85,549.423 741.85,544.825 L741.85 528.175 C741.85,523.577 745.577,519.85 750.175,519.85 L766.825 519.85 C771.423,519.85 775.15,523.577 775.15,528.175 Z M849.15 536.5 L849.15 544.825 C849.15,549.423 845.423,553.15 840.825,553.15 L824.175 553.15 C819.577,553.15 815.85,549.423 815.85,544.825 L815.85 528.175 C815.85,523.577 819.577,519.85 824.175,519.85 L840.825 519.85 C845.423,519.85 849.15,523.577 849.15,528.175 Z M923.15 536.5 L923.15 544.825 C923.15,549.423 919.423,553.15 914.825,553.15 L898.175 553.15 C893.577,553.15 889.85,549.423 889.85,544.825 L889.85 528.175 C889.85,523.577 893.577,519.85 898.175,519.85 L914.825 519.85 C919.423,519.85 923.15,523.577 923.15,528.175 Z M72.15 573.5 L72.15 581.825 C72.15,586.423 68.423,590.15 63.825,590.15 L47.175 590.15 C42.577,590.15 38.85,586.423 38.85,581.825 L38.85 565.175 C38.85,560.577 42.577,556.85 47.175,556.85 L63.825 556.85 C68.423,556.85 72.15,560.577 72.15,565.175 Z M146.15 573.5 L146.15 581.825 C146.15,586.423 142.423,590.15 137.825,590.15 L121.175 590.15 C116.577,590.15 112.85,586.423 112.85,581.825 L112.85 565.175 C112.85,560.577 116.577,556.85 121.175,556.85 L137.825 556.85 C142.423,556.85 146.15,560.577 146.15,565.175 Z M294.15 573.5 L294.15 581.825 C294.15,586.423 290.423,590.15 285.825,590.15 L269.175 590.15 C264.577,590.15 260.85,586.423 260.85,581.825 L260.85 565.175 C260.85,560.577 264.577,556.85 269.175,556.85 L285.825 556.85 C290.423,556.85 294.15,560.577 294.15,565.175 Z M405.15 573.5 L405.15 581.825 C405.15,586.423 401.423,590.15 396.825,590.15 L380.175 590.15 C375.577,590.15 371.85,586.423 371.85,581.825 L371.85 565.175 C371.85,560.577 375.577,556.85 380.175,556.85 L396.825 556.85 C401.423,556.85 405.15,560.577 405.15,565.175 Z M442.15 573.5 L442.15 581.825 C442.15,586.423 438.423,590.15 433.825,590.15 L417.175 590.15 C412.577,590.15 408.85,586.423 408.85,581.825 L408.85 565.175 C408.85,560.577 412.577,556.85 417.175,556.85 L433.825 556.85 C438.423,556.85 442.15,560.577 442.15,565.175 Z M553.15 573.5 L553.15 581.825 C553.15,586.423 549.423,590.15 544.825,590.15 L528.175 590.15 C523.577,590.15 519.85,586.423 519.85,581.825 L519.85 565.175 C519.85,560.577 523.577,556.85 528.175,556.85 L544.825 556.85 C549.423,556.85 553.15,560.577 553.15,565.175 Z M590.15 573.5 L590.15 581.825 C590.15,586.423 586.423,590.15 581.825,590.15 L565.175 590.15 C560.577,590.15 556.85,586.423 556.85,581.825 L556.85 565.175 C556.85,560.577 560.577,556.85 565.175,556.85 L581.825 556.85 C586.423,556.85 590.15,560.577 590.15,565.175 Z M627.15 573.5 L627.15 581.825 C627.15,586.423 623.423,590.15 618.825,590.15 L602.175 590.15 C597.577,590.15 593.85,586.423 593.85,581.825 L593.85 565.175 C593.85,560.577 597.577,556.85 602.175,556.85 L618.825 556.85 C623.423,556.85 627.15,560.577 627.15,565.175 Z M664.15 573.5 L664.15 581.825 C664.15,586.423 660.423,590.15 655.825,590.15 L639.175 590.15 C634.577,590.15 630.85,586.423 630.85,581.825 L630.85 565.175 C630.85,560.577 634.577,556.85 639.175,556.85 L655.825 556.85 C660.423,556.85 664.15,560.577 664.15,565.175 Z M738.15 573.5 L738.15 581.825 C738.15,586.423 734.423,590.15 729.825,590.15 L713.175 590.15 C708.577,590.15 704.85,586.423 704.85,581.825 L704.85 565.175 C704.85,560.577 708.577,556.85 713.175,556.85 L729.825 556.85 C734.423,556.85 738.15,560.577 738.15,565.175 Z M775.15 573.5 L775.15 581.825 C775.15,586.423 771.423,590.15 766.825,590.15 L750.175 590.15 C745.577,590.15 741.85,586.423 741.85,581.825 L741.85 565.175 C741.85,560.577 745.577,556.85 750.175,556.85 L766.825 556.85 C771.423,556.85 775.15,560.577 775.15,565.175 Z M812.15 573.5 L812.15 581.825 C812.15,586.423 808.423,590.15 803.825,590.15 L787.175 590.15 C782.577,590.15 778.85,586.423 778.85,581.825 L778.85 565.175 C778.85,560.577 782.577,556.85 787.175,556.85 L803.825 556.85 C808.423,556.85 812.15,560.577 812.15,565.175 Z M849.15 573.5 L849.15 581.825 C849.15,586.423 845.423,590.15 840.825,590.15 L824.175 590.15 C819.577,590.15 815.85,586.423 815.85,581.825 L815.85 565.175 C815.85,560.577 819.577,556.85 824.175,556.85 L840.825 556.85 C845.423,556.85 849.15,560.577 849.15,565.175 Z M923.15 573.5 L923.15 581.825 C923.15,586.423 919.423,590.15 914.825,590.15 L898.175 590.15 C893.577,590.15 889.85,586.423 889.85,581.825 L889.85 565.175 C889.85,560.577 893.577,556.85 898.175,556.85 L914.825 556.85 C919.423,556.85 923.15,560.577 923.15,565.175 Z M960.15 573.5 L960.15 581.825 C960.15,586.423 956.423,590.15 951.825,590.15 L935.175 590.15 C930.577,590.15 926.85,586.423 926.85,581.825 L926.85 565.175 C926.85,560.577 930.577,556.85 935.175,556.85 L951.825 556.85 C956.423,556.85 960.15,560.577 960.15,565.175 Z M72.15 610.5 L72.15 618.825 C72.15,623.423 68.423,627.15 63.825,627.15 L47.175 627.15 C42.577,627.15 38.85,623.423 38.85,618.825 L38.85 602.175 C38.85,597.577 42.577,593.85 47.175,593.85 L63.825 593.85 C68.423,593.85 72.15,597.577 72.15,602.175 Z M146.15 610.5 L146.15 618.825 C146.15,623.423 142.423,627.15 137.825,627.15 L121.175 627.15 C116.577,627.15 112.85,623.423 112.85,618.825 L112.85 602.175 C112.85,597.577 116.577,593.85 121.175,593.85 L137.825 593.85 C142.423,593.85 146.15,597.577 146.15,602.175 Z M183.15 610.5 L183.15 618.825 C183.15,623.423 179.423,627.15 174.825,627.15 L158.175 627.15 C153.577,627.15 149.85,623.423 149.85,618.825 L149.85 602.175 C149.85,597.577 153.577,593.85 158.175,593.85 L174.825 593.85 C179.423,593.85 183.15,597.577 183.15,602.175 Z M331.15 610.5 L331.15 618.825 C331.15,623.423 327.423,627.15 322.825,627.15 L306.175 627.15 C301.577,627.15 297.85,623.423 297.85,618.825 L297.85 602.175 C297.85,597.577 301.577,593.85 306.175,593.85 L322.825 593.85 C327.423,593.85 331.15,597.577 331.15,602.175 Z M368.15 610.5 L368.15 618.825 C368.15,623.423 364.423,627.15 359.825,627.15 L343.175 627.15 C338.577,627.15 334.85,623.423 334.85,618.825 L334.85 602.175 C334.85,597.577 338.577,593.85 343.175,593.85 L359.825 593.85 C364.423,593.85 368.15,597.577 368.15,602.175 Z M442.15 610.5 L442.15 618.825 C442.15,623.423 438.423,627.15 433.825,627.15 L417.175 627.15 C412.577,627.15 408.85,623.423 408.85,618.825 L408.85 602.175 C408.85,597.577 412.577,593.85 417.175,593.85 L433.825 593.85 C438.423,593.85 442.15,597.577 442.15,602.175 Z M516.15 610.5 L516.15 618.825 C516.15,623.423 512.423,627.15 507.825,627.15 L491.175 627.15 C486.577,627.15 482.85,623.423 482.85,618.825 L482.85 602.175 C482.85,597.577 486.577,593.85 491.175,593.85 L507.825 593.85 C512.423,593.85 516.15,597.577 516.15,602.175 Z M553.15 610.5 L553.15 618.825 C553.15,623.423 549.423,627.15 544.825,627.15 L528.175 627.15 C523.577,627.15 519.85,623.423 519.85,618.825 L519.85 602.175 C519.85,597.577 523.577,593.85 528.175,593.85 L544.825 593.85 C549.423,593.85 553.15,597.577 553.15,602.175 Z M664.15 610.5 L664.15 618.825 C664.15,623.423 660.423,627.15 655.825,627.15 L639.175 627.15 C634.577,627.15 630.85,623.423 630.85,618.825 L630.85 602.175 C630.85,597.577 634.577,593.85 639.175,593.85 L655.825 593.85 C660.423,593.85 664.15,597.577 664.15,602.175 Z M775.15 610.5 L775.15 618.825 C775.15,623.423 771.423,627.15 766.825,627.15 L750.175 627.15 C745.577,627.15 741.85,623.423 741.85,618.825 L741.85 602.175 C741.85,597.577 745.577,593.85 750.175,593.85 L766.825 593.85 C771.423,593.85 775.15,597.577 775.15,602.175 Z M812.15 610.5 L812.15 618.825 C812.15,623.423 808.423,627.15 803.825,627.15 L787.175 627.15 C782.577,627.15 778.85,623.423 778.85,618.825 L778.85 602.175 C778.85,597.577 782.577,593.85 787.175,593.85 L803.825 593.85 C808.423,593.85 812.15,597.577 812.15,602.175 Z M960.15 610.5 L960.15 618.825 C960.15,623.423 956.423,627.15 951.825,627.15 L935.175 627.15 C930.577,627.15 926.85,623.423 926.85,618.825 L926.85 602.175 C926.85,597.577 930.577,593.85 935.175,593.85 L951.825 593.85 C956.423,593.85 960.15,597.577 960.15,602.175 Z M72.15 647.5 L72.15 655.825 C72.15,660.423 68.423,664.15 63.825,664.15 L47.175 664.15 C42.577,664.15 38.85,660.423 38.85,655.825 L38.85 639.175 C38.85,634.577 42.577,630.85 47.175,630.85 L63.825 630.85 C68.423,630.85 72.15,634.577 72.15,639.175 Z M146.15 647.5 L146.15 655.825 C146.15,660.423 142.423,664.15 137.825,664.15 L121.175 664.15 C116.577,664.15 112.85,660.423 112.85,655.825 L112.85 639.175 C112.85,634.577 116.577,630.85 121.175,630.85 L137.825 630.85 C142.423,630.85 146.15,634.577 146.15,639.175 Z M220.15 647.5 L220.15 655.825 C220.15,660.423 216.423,664.15 211.825,664.15 L195.175 664.15 C190.577,664.15 186.85,660.423 186.85,655.825 L186.85 639.175 C186.85,634.577 190.577,630.85 195.175,630.85 L211.825 630.85 C216.423,630.85 220.15,634.577 220.15,639.175 Z M294.15 647.5 L294.15 655.825 C294.15,660.423 290.423,664.15 285.825,664.15 L269.175 664.15 C264.577,664.15 260.85,660.423 260.85,655.825 L260.85 639.175 C260.85,634.577 264.577,630.85 269.175,630.85 L285.825 630.85 C290.423,630.85 294.15,634.577 294.15,639.175 Z M368.15 647.5 L368.15 655.825 C368.15,660.423 364.423,664.15 359.825,664.15 L343.175 664.15 C338.577,664.15 334.85,660.423 334.85,655.825 L334.85 639.175 C334.85,634.577 338.577,630.85 343.175,630.85 L359.825 630.85 C364.423,630.85 368.15,634.577 368.15,639.175 Z M405.15 647.5 L405.15 655.825 C405.15,660.423 401.423,664.15 396.825,664.15 L380.175 664.15 C375.577,664.15 371.85,660.423 371.85,655.825 L371.85 639.175 C371.85,634.577 375.577,630.85 380.175,630.85 L396.825 630.85 C401.423,630.85 405.15,634.577 405.15,639.175 Z M516.15 647.5 L516.15 655.825 C516.15,660.423 512.423,664.15 507.825,664.15 L491.175 664.15 C486.577,664.15 482.85,660.423 482.85,655.825 L482.85 639.175 C482.85,634.577 486.577,630.85 491.175,630.85 L507.825 630.85 C512.423,630.85 516.15,634.577 516.15,639.175 Z M590.15 647.5 L590.15 655.825 C590.15,660.423 586.423,664.15 581.825,664.15 L565.175 664.15 C560.577,664.15 556.85,660.423 556.85,655.825 L556.85 639.175 C556.85,634.577 560.577,630.85 565.175,630.85 L581.825 630.85 C586.423,630.85 590.15,634.577 590.15,639.175 Z M627.15 647.5 L627.15 655.825 C627.15,660.423 623.423,664.15 618.825,664.15 L602.175 664.15 C597.577,664.15 593.85,660.423 593.85,655.825 L593.85 639.175 C593.85,634.577 597.577,630.85 602.175,630.85 L618.825 630.85 C623.423,630.85 627.15,634.577 627.15,639.175 Z M664.15 647.5 L664.15 655.825 C664.15,660.423 660.423,664.15 655.825,664.15 L639.175 664.15 C634.577,664.15 630.85,660.423 630.85,655.825 L630.85 639.175 C630.85,634.577 634.577,630.85 639.175,630.85 L655.825 630.85 C660.423,630.85 664.15,634.577 664.15,639.175 Z M701.15 647.5 L701.15 655.825 C701.15,660.423 697.423,664.15 692.825,664.15 L676.175 664.15 C671.577,664.15 667.85,660.423 667.85,655.825 L667.85 639.175 C667.85,634.577 671.577,630.85 676.175,630.85 L692.825 630.85 C697.423,630.85 701.15,634.577 701.15,639.175 Z M738.15 647.5 L738.15 655.825 C738.15,660.423 734.423,664.15 729.825,664.15 L713.175 664.15 C708.577,664.15 704.85,660.423 704.85,655.825 L704.85 639.175 C704.85,634.577 708.577,630.85 713.175,630.85 L729.825 630.85 C734.423,630.85 738.15,634.577 738.15,639.175 Z M775.15 647.5 L775.15 655.825 C775.15,660.423 771.423,664.15 766.825,664.15 L750.175 664.15 C745.577,664.15 741.85,660.423 741.85,655.825 L741.85 639.175 C741.85,634.577 745.577,630.85 750.175,630.85 L766.825 630.85 C771.423,630.85 775.15,634.577 775.15,639.175 Z M812.15 647.5 L812.15 655.825 C812.15,660.423 808.423,664.15 803.825,664.15 L787.175 664.15 C782.577,664.15 778.85,660.423 778.85,655.825 L778.85 639.175 C778.85,634.577 782.577,630.85 787.175,630.85 L803.825 630.85 C808.423,630.85 812.15,634.577 812.15,639.175 Z M886.15 647.5 L886.15 655.825 C886.15,660.423 882.423,664.15 877.825,664.15 L861.175 664.15 C856.577,664.15 852.85,660.423 852.85,655.825 L852.85 639.175 C852.85,634.577 856.577,630.85 861.175,630.85 L877.825 630.85 C882.423,630.85 886.15,634.577 886.15,639.175 Z M368.15 684.5 L368.15 692.825 C368.15,697.423 364.423,701.15 359.825,701.15 L343.175 701.15 C338.577,701.15 334.85,697.423 334.85,692.825 L334.85 676.175 C334.85,671.577 338.577,667.85 343.175,667.85 L359.825 667.85 C364.423,667.85 368.15,671.577 368.15,676.175 Z M405.15 684.5 L405.15 692.825 C405.15,697.423 401.423,701.15 396.825,701.15 L380.175 701.15 C375.577,701.15 371.85,697.423 371.85,692.825 L371.85 676.175 C371.85,671.577 375.577,667.85 380.175,667.85 L396.825 667.85 C401.423,667.85 405.15,671.577 405.15,676.175 Z M442.15 684.5 L442.15 692.825 C442.15,697.423 438.423,701.15 433.825,701.15 L417.175 701.15 C412.577,701.15 408.85,697.423 408.85,692.825 L408.85 676.175 C408.85,671.577 412.577,667.85 417.175,667.85 L433.825 667.85 C438.423,667.85 442.15,671.577 442.15,676.175 Z M664.15 684.5 L664.15 692.825 C664.15,697.423 660.423,701.15 655.825,701.15 L639.175 701.15 C634.577,701.15 630.85,697.423 630.85,692.825 L630.85 676.175 C630.85,671.577 634.577,667.85 639.175,667.85 L655.825 667.85 C660.423,667.85 664.15,671.577 664.15,676.175 Z M812.15 684.5 L812.15 692.825 C812.15,697.423 808.423,701.15 803.825,701.15 L787.175 701.15 C782.577,701.15 778.85,697.423 778.85,692.825 L778.85 676.175 C778.85,671.577 782.577,667.85 787.175,667.85 L803.825 667.85 C808.423,667.85 812.15,671.577 812.15,676.175 Z M849.15 684.5 L849.15 692.825 C849.15,697.423 845.423,701.15 840.825,701.15 L824.175 701.15 C819.577,701.15 815.85,697.423 815.85,692.825 L815.85 676.175 C815.85,671.577 819.577,667.85 824.175,667.85 L840.825 667.85 C845.423,667.85 849.15,671.577 849.15,676.175 Z M405.15 721.5 L405.15 729.825 C405.15,734.423 401.423,738.15 396.825,738.15 L380.175 738.15 C375.577,738.15 371.85,734.423 371.85,729.825 L371.85 713.175 C371.85,708.577 375.577,704.85 380.175,704.85 L396.825 704.85 C401.423,704.85 405.15,708.577 405.15,713.175 Z M442.15 721.5 L442.15 729.825 C442.15,734.423 438.423,738.15 433.825,738.15 L417.175 738.15 C412.577,738.15 408.85,734.423 408.85,729.825 L408.85 713.175 C408.85,708.577 412.577,704.85 417.175,704.85 L433.825 704.85 C438.423,704.85 442.15,708.577 442.15,713.175 Z M479.15 721.5 L479.15 729.825 C479.15,734.423 475.423,738.15 470.825,738.15 L454.175 738.15 C449.577,738.15 445.85,734.423 445.85,729.825 L445.85 713.175 C445.85,708.577 449.577,704.85 454.175,704.85 L470.825 704.85 C475.423,704.85 479.15,708.577 479.15,713.175 Z M516.15 721.5 L516.15 729.825 C516.15,734.423 512.423,738.15 507.825,738.15 L491.175 738.15 C486.577,738.15 482.85,734.423 482.85,729.825 L482.85 713.175 C482.85,708.577 486.577,704.85 491.175,704.85 L507.825 704.85 C512.423,704.85 516.15,708.577 516.15,713.175 Z M664.15 721.5 L664.15 729.825 C664.15,734.423 660.423,738.15 655.825,738.15 L639.175 738.15 C634.577,738.15 630.85,734.423 630.85,729.825 L630.85 713.175 C630.85,708.577 634.577,704.85 639.175,704.85 L655.825 704.85 C660.423,704.85 664.15,708.577 664.15,713.175 Z M738.15 721.5 L738.15 729.825 C738.15,734.423 734.423,738.15 729.825,738.15 L713.175 738.15 C708.577,738.15 704.85,734.423 704.85,729.825 L704.85 713.175 C704.85,708.577 708.577,704.85 713.175,704.85 L729.825 704.85 C734.423,704.85 738.15,708.577 738.15,713.175 Z M812.15 721.5 L812.15 729.825 C812.15,734.423 808.423,738.15 803.825,738.15 L787.175 738.15 C782.577,738.15 778.85,734.423 778.85,729.825 L778.85 713.175 C778.85,708.577 782.577,704.85 787.175,704.85 L803.825 704.85 C808.423,704.85 812.15,708.577 812.15,713.175 Z M886.15 721.5 L886.15 729.825 C886.15,734.423 882.423,738.15 877.825,738.15 L861.175 738.15 C856.577,738.15 852.85,734.423 852.85,729.825 L852.85 713.175 C852.85,708.577 856.577,704.85 861.175,704.85 L877.825 704.85 C882.423,704.85 886.15,708.577 886.15,713.175 Z M923.15 721.5 L923.15 729.825 C923.15,734.423 919.423,738.15 914.825,738.15 L898.175 738.15 C893.577,738.15 889.85,734.423 889.85,729.825 L889.85 713.175 C889.85,708.577 893.577,704.85 898.175,704.85 L914.825 704.85 C919.423,704.85 923.15,708.577 923.15,713.175 Z M960.15 721.5 L960.15 729.825 C960.15,734.423 956.423,738.15 951.825,738.15 L935.175 738.15 C930.577,738.15 926.85,734.423 926.85,729.825 L926.85 713.175 C926.85,708.577 930.577,704.85 935.175,704.85 L951.825 704.85 C956.423,704.85 960.15,708.577 960.15,713.175 Z M368.15 758.5 L368.15 766.825 C368.15,771.423 364.423,775.15 359.825,775.15 L343.175 775.15 C338.577,775.15 334.85,771.423 334.85,766.825 L334.85 750.175 C334.85,745.577 338.577,741.85 343.175,741.85 L359.825 741.85 C364.423,741.85 368.15,745.577 368.15,750.175 Z M479.15 758.5 L479.15 766.825 C479.15,771.423 475.423,775.15 470.825,775.15 L454.175 775.15 C449.577,775.15 445.85,771.423 445.85,766.825 L445.85 750.175 C445.85,745.577 449.577,741.85 454.175,741.85 L470.825 741.85 C475.423,741.85 479.15,745.577 479.15,750.175 Z M590.15 758.5 L590.15 766.825 C590.15,771.423 586.423,775.15 581.825,775.15 L565.175 775.15 C560.577,775.15 556.85,771.423 556.85,766.825 L556.85 750.175 C556.85,745.577 560.577,741.85 565.175,741.85 L581.825 741.85 C586.423,741.85 590.15,745.577 590.15,750.175 Z M627.15 758.5 L627.15 766.825 C627.15,771.423 623.423,775.15 618.825,775.15 L602.175 775.15 C597.577,775.15 593.85,771.423 593.85,766.825 L593.85 750.175 C593.85,745.577 597.577,741.85 602.175,741.85 L618.825 741.85 C623.423,741.85 627.15,745.577 627.15,750.175 Z M664.15 758.5 L664.15 766.825 C664.15,771.423 660.423,775.15 655.825,775.15 L639.175 775.15 C634.577,775.15 630.85,771.423 630.85,766.825 L630.85 750.175 C630.85,745.577 634.577,741.85 639.175,741.85 L655.825 741.85 C660.423,741.85 664.15,745.577 664.15,750.175 Z M812.15 758.5 L812.15 766.825 C812.15,771.423 808.423,775.15 803.825,775.15 L787.175 775.15 C782.577,775.15 778.85,771.423 778.85,766.825 L778.85 750.175 C778.85,745.577 782.577,741.85 787.175,741.85 L803.825 741.85 C808.423,741.85 812.15,745.577 812.15,750.175 Z M849.15 758.5 L849.15 766.825 C849.15,771.423 845.423,775.15 840.825,775.15 L824.175 775.15 C819.577,775.15 815.85,771.423 815.85,766.825 L815.85 750.175 C815.85,745.577 819.577,741.85 824.175,741.85 L840.825 741.85 C845.423,741.85 849.15,745.577 849.15,750.175 Z M368.15 795.5 L368.15 803.825 C368.15,808.423 364.423,812.15 359.825,812.15 L343.175 812.15 C338.577,812.15 334.85,808.423 334.85,803.825 L334.85 787.175 C334.85,782.577 338.577,778.85 343.175,778.85 L359.825 778.85 C364.423,778.85 368.15,782.577 368.15,787.175 Z M479.15 795.5 L479.15 803.825 C479.15,808.423 475.423,812.15 470.825,812.15 L454.175 812.15 C449.577,812.15 445.85,808.423 445.85,803.825 L445.85 787.175 C445.85,782.577 449.577,778.85 454.175,778.85 L470.825 778.85 C475.423,778.85 479.15,782.577 479.15,787.175 Z M627.15 795.5 L627.15 803.825 C627.15,808.423 623.423,812.15 618.825,812.15 L602.175 812.15 C597.577,812.15 593.85,808.423 593.85,803.825 L593.85 787.175 C593.85,782.577 597.577,778.85 602.175,778.85 L618.825 778.85 C623.423,778.85 627.15,782.577 627.15,787.175 Z M664.15 795.5 L664.15 803.825 C664.15,808.423 660.423,812.15 655.825,812.15 L639.175 812.15 C634.577,812.15 630.85,808.423 630.85,803.825 L630.85 787.175 C630.85,782.577 634.577,778.85 639.175,778.85 L655.825 778.85 C660.423,778.85 664.15,782.577 664.15,787.175 Z M701.15 795.5 L701.15 803.825 C701.15,808.423 697.423,812.15 692.825,812.15 L676.175 812.15 C671.577,812.15 667.85,808.423 667.85,803.825 L667.85 787.175 C667.85,782.577 671.577,778.85 676.175,778.85 L692.825 778.85 C697.423,778.85 701.15,782.577 701.15,787.175 Z M738.15 795.5 L738.15 803.825 C738.15,808.423 734.423,812.15 729.825,812.15 L713.175 812.15 C708.577,812.15 704.85,808.423 704.85,803.825 L704.85 787.175 C704.85,782.577 708.577,778.85 713.175,778.85 L729.825 778.85 C734.423,778.85 738.15,782.577 738.15,787.175 Z M775.15 795.5 L775.15 803.825 C775.15,808.423 771.423,812.15 766.825,812.15 L750.175 812.15 C745.577,812.15 741.85,808.423 741.85,803.825 L741.85 787.175 C741.85,782.577 745.577,778.85 750.175,778.85 L766.825 778.85 C771.423,778.85 775.15,782.577 775.15,787.175 Z M812.15 795.5 L812.15 803.825 C812.15,808.423 808.423,812.15 803.825,812.15 L787.175 812.15 C782.577,812.15 778.85,808.423 778.85,803.825 L778.85 787.175 C778.85,782.577 782.577,778.85 787.175,778.85 L803.825 778.85 C808.423,778.85 812.15,782.577 812.15,787.175 Z M886.15 795.5 L886.15 803.825 C886.15,808.423 882.423,812.15 877.825,812.15 L861.175 812.15 C856.577,812.15 852.85,808.423 852.85,803.825 L852.85 787.175 C852.85,782.577 856.577,778.85 861.175,778.85 L877.825 778.85 C882.423,778.85 886.15,782.577 886.15,787.175 Z M960.15 795.5 L960.15 803.825 C960.15,808.423 956.423,812.15 951.825,812.15 L935.175 812.15 C930.577,812.15 926.85,808.423 926.85,803.825 L926.85 787.175 C926.85,782.577 930.577,778.85 935.175,778.85 L951.825 778.85 C956.423,778.85 960.15,782.577 960.15,787.175 Z M368.15 832.5 L368.15 840.825 C368.15,845.423 364.423,849.15 359.825,849.15 L343.175 849.15 C338.577,849.15 334.85,845.423 334.85,840.825 L334.85 824.175 C334.85,819.577 338.577,815.85 343.175,815.85 L359.825 815.85 C364.423,815.85 368.15,819.577 368.15,824.175 Z M516.15 832.5 L516.15 840.825 C516.15,845.423 512.423,849.15 507.825,849.15 L491.175 849.15 C486.577,849.15 482.85,845.423 482.85,840.825 L482.85 824.175 C482.85,819.577 486.577,815.85 491.175,815.85 L507.825 815.85 C512.423,815.85 516.15,819.577 516.15,824.175 Z M553.15 832.5 L553.15 840.825 C553.15,845.423 549.423,849.15 544.825,849.15 L528.175 849.15 C523.577,849.15 519.85,845.423 519.85,840.825 L519.85 824.175 C519.85,819.577 523.577,815.85 528.175,815.85 L544.825 815.85 C549.423,815.85 553.15,819.577 553.15,824.175 Z M590.15 832.5 L590.15 840.825 C590.15,845.423 586.423,849.15 581.825,849.15 L565.175 849.15 C560.577,849.15 556.85,845.423 556.85,840.825 L556.85 824.175 C556.85,819.577 560.577,815.85 565.175,815.85 L581.825 815.85 C586.423,815.85 590.15,819.577 590.15,824.175 Z M627.15 832.5 L627.15 840.825 C627.15,845.423 623.423,849.15 618.825,849.15 L602.175 849.15 C597.577,849.15 593.85,845.423 593.85,840.825 L593.85 824.175 C593.85,819.577 597.577,815.85 602.175,815.85 L618.825 815.85 C623.423,815.85 627.15,819.577 627.15,824.175 Z M738.15 832.5 L738.15 840.825 C738.15,845.423 734.423,849.15 729.825,849.15 L713.175 849.15 C708.577,849.15 704.85,845.423 704.85,840.825 L704.85 824.175 C704.85,819.577 708.577,815.85 713.175,815.85 L729.825 815.85 C734.423,815.85 738.15,819.577 738.15,824.175 Z M812.15 832.5 L812.15 840.825 C812.15,845.423 808.423,849.15 803.825,849.15 L787.175 849.15 C782.577,849.15 778.85,845.423 778.85,840.825 L778.85 824.175 C778.85,819.577 782.577,815.85 787.175,815.85 L803.825 815.85 C808.423,815.85 812.15,819.577 812.15,824.175 Z M849.15 832.5 L849.15 840.825 C849.15,845.423 845.423,849.15 840.825,849.15 L824.175 849.15 C819.577,849.15 815.85,845.423 815.85,840.825 L815.85 824.175 C815.85,819.577 819.577,815.85 824.175,815.85 L840.825 815.85 C845.423,815.85 849.15,819.577 849.15,824.175 Z M886.15 832.5 L886.15 840.825 C886.15,845.423 882.423,849.15 877.825,849.15 L861.175 849.15 C856.577,849.15 852.85,845.423 852.85,840.825 L852.85 824.175 C852.85,819.577 856.577,815.85 861.175,815.85 L877.825 815.85 C882.423,815.85 886.15,819.577 886.15,824.175 Z M923.15 832.5 L923.15 840.825 C923.15,845.423 919.423,849.15 914.825,849.15 L898.175 849.15 C893.577,849.15 889.85,845.423 889.85,840.825 L889.85 824.175 C889.85,819.577 893.577,815.85 898.175,815.85 L914.825 815.85 C919.423,815.85 923.15,819.577 923.15,824.175 Z M960.15 832.5 L960.15 840.825 C960.15,845.423 956.423,849.15 951.825,849.15 L935.175 849.15 C930.577,849.15 926.85,845.423 926.85,840.825 L926.85 824.175 C926.85,819.577 930.577,815.85 935.175,815.85 L951.825 815.85 C956.423,815.85 960.15,819.577 960.15,824.175 Z M368.15 869.5 L368.15 877.825 C368.15,882.423 364.423,886.15 359.825,886.15 L343.175 886.15 C338.577,886.15 334.85,882.423 334.85,877.825 L334.85 861.175 C334.85,856.577 338.577,852.85 343.175,852.85 L359.825 852.85 C364.423,852.85 368.15,856.577 368.15,861.175 Z M405.15 869.5 L405.15 877.825 C405.15,882.423 401.423,886.15 396.825,886.15 L380.175 886.15 C375.577,886.15 371.85,882.423 371.85,877.825 L371.85 861.175 C371.85,856.577 375.577,852.85 380.175,852.85 L396.825 852.85 C401.423,852.85 405.15,856.577 405.15,861.175 Z M442.15 869.5 L442.15 877.825 C442.15,882.423 438.423,886.15 433.825,886.15 L417.175 886.15 C412.577,886.15 408.85,882.423 408.85,877.825 L408.85 861.175 C408.85,856.577 412.577,852.85 417.175,852.85 L433.825 852.85 C438.423,852.85 442.15,856.577 442.15,861.175 Z M553.15 869.5 L553.15 877.825 C553.15,882.423 549.423,886.15 544.825,886.15 L528.175 886.15 C523.577,886.15 519.85,882.423 519.85,877.825 L519.85 861.175 C519.85,856.577 523.577,852.85 528.175,852.85 L544.825 852.85 C549.423,852.85 553.15,856.577 553.15,861.175 Z M590.15 869.5 L590.15 877.825 C590.15,882.423 586.423,886.15 581.825,886.15 L565.175 886.15 C560.577,886.15 556.85,882.423 556.85,877.825 L556.85 861.175 C556.85,856.577 560.577,852.85 565.175,852.85 L581.825 852.85 C586.423,852.85 590.15,856.577 590.15,861.175 Z M627.15 869.5 L627.15 877.825 C627.15,882.423 623.423,886.15 618.825,886.15 L602.175 886.15 C597.577,886.15 593.85,882.423 593.85,877.825 L593.85 861.175 C593.85,856.577 597.577,852.85 602.175,852.85 L618.825 852.85 C623.423,852.85 627.15,856.577 627.15,861.175 Z M664.15 869.5 L664.15 877.825 C664.15,882.423 660.423,886.15 655.825,886.15 L639.175 886.15 C634.577,886.15 630.85,882.423 630.85,877.825 L630.85 861.175 C630.85,856.577 634.577,852.85 639.175,852.85 L655.825 852.85 C660.423,852.85 664.15,856.577 664.15,861.175 Z M701.15 869.5 L701.15 877.825 C701.15,882.423 697.423,886.15 692.825,886.15 L676.175 886.15 C671.577,886.15 667.85,882.423 667.85,877.825 L667.85 861.175 C667.85,856.577 671.577,852.85 676.175,852.85 L692.825 852.85 C697.423,852.85 701.15,856.577 701.15,861.175 Z M849.15 869.5 L849.15 877.825 C849.15,882.423 845.423,886.15 840.825,886.15 L824.175 886.15 C819.577,886.15 815.85,882.423 815.85,877.825 L815.85 861.175 C815.85,856.577 819.577,852.85 824.175,852.85 L840.825 852.85 C845.423,852.85 849.15,856.577 849.15,861.175 Z M886.15 869.5 L886.15 877.825 C886.15,882.423 882.423,886.15 877.825,886.15 L861.175 886.15 C856.577,886.15 852.85,882.423 852.85,877.825 L852.85 861.175 C852.85,856.577 856.577,852.85 861.175,852.85 L877.825 852.85 C882.423,852.85 886.15,856.577 886.15,861.175 Z M960.15 869.5 L960.15 877.825 C960.15,882.423 956.423,886.15 951.825,886.15 L935.175 886.15 C930.577,886.15 926.85,882.423 926.85,877.825 L926.85 861.175 C926.85,856.577 930.577,852.85 935.175,852.85 L951.825 852.85 C956.423,852.85 960.15,856.577 960.15,861.175 Z M405.15 906.5 L405.15 914.825 C405.15,919.423 401.423,923.15 396.825,923.15 L380.175 923.15 C375.577,923.15 371.85,919.423 371.85,914.825 L371.85 898.175 C371.85,893.577 375.577,889.85 380.175,889.85 L396.825 889.85 C401.423,889.85 405.15,893.577 405.15,898.175 Z M516.15 906.5 L516.15 914.825 C516.15,919.423 512.423,923.15 507.825,923.15 L491.175 923.15 C486.577,923.15 482.85,919.423 482.85,914.825 L482.85 898.175 C482.85,893.577 486.577,889.85 491.175,889.85 L507.825 889.85 C512.423,889.85 516.15,893.577 516.15,898.175 Z M553.15 906.5 L553.15 914.825 C553.15,919.423 549.423,923.15 544.825,923.15 L528.175 923.15 C523.577,923.15 519.85,919.423 519.85,914.825 L519.85 898.175 C519.85,893.577 523.577,889.85 528.175,889.85 L544.825 889.85 C549.423,889.85 553.15,893.577 553.15,898.175 Z M664.15 906.5 L664.15 914.825 C664.15,919.423 660.423,923.15 655.825,923.15 L639.175 923.15 C634.577,923.15 630.85,919.423 630.85,914.825 L630.85 898.175 C630.85,893.577 634.577,889.85 639.175,889.85 L655.825 889.85 C660.423,889.85 664.15,893.577 664.15,898.175 Z M701.15 906.5 L701.15 914.825 C701.15,919.423 697.423,923.15 692.825,923.15 L676.175 923.15 C671.577,923.15 667.85,919.423 667.85,914.825 L667.85 898.175 C667.85,893.577 671.577,889.85 676.175,889.85 L692.825 889.85 C697.423,889.85 701.15,893.577 701.15,898.175 Z M738.15 906.5 L738.15 914.825 C738.15,919.423 734.423,923.15 729.825,923.15 L713.175 923.15 C708.577,923.15 704.85,919.423 704.85,914.825 L704.85 898.175 C704.85,893.577 708.577,889.85 713.175,889.85 L729.825 889.85 C734.423,889.85 738.15,893.577 738.15,898.175 Z M775.15 906.5 L775.15 914.825 C775.15,919.423 771.423,923.15 766.825,923.15 L750.175 923.15 C745.577,923.15 741.85,919.423 741.85,914.825 L741.85 898.175 C741.85,893.577 745.577,889.85 750.175,889.85 L766.825 889.85 C771.423,889.85 775.15,893.577 775.15,898.175 Z M812.15 906.5 L812.15 914.825 C812.15,919.423 808.423,923.15 803.825,923.15 L787.175 923.15 C782.577,923.15 778.85,919.423 778.85,914.825 L778.85 898.175 C778.85,893.577 782.577,889.85 787.175,889.85 L803.825 889.85 C808.423,889.85 812.15,893.577 812.15,898.175 Z M849.15 906.5 L849.15 914.825 C849.15,919.423 845.423,923.15 840.825,923.15 L824.175 923.15 C819.577,923.15 815.85,919.423 815.85,914.825 L815.85 898.175 C815.85,893.577 819.577,889.85 824.175,889.85 L840.825 889.85 C845.423,889.85 849.15,893.577 849.15,898.175 Z M960.15 906.5 L960.15 914.825 C960.15,919.423 956.423,923.15 951.825,923.15 L935.175 923.15 C930.577,923.15 926.85,919.423 926.85,914.825 L926.85 898.175 C926.85,893.577 930.577,889.85 935.175,889.85 L951.825 889.85 C956.423,889.85 960.15,893.577 960.15,898.175 Z M368.15 943.5 L368.15 951.825 C368.15,956.423 364.423,960.15 359.825,960.15 L343.175 960.15 C338.577,960.15 334.85,956.423 334.85,951.825 L334.85 935.175 C334.85,930.577 338.577,926.85 343.175,926.85 L359.825 926.85 C364.423,926.85 368.15,930.577 368.15,935.175 Z M405.15 943.5 L405.15 951.825 C405.15,956.423 401.423,960.15 396.825,960.15 L380.175 960.15 C375.577,960.15 371.85,956.423 371.85,951.825 L371.85 935.175 C371.85,930.577 375.577,926.85 380.175,926.85 L396.825 926.85 C401.423,926.85 405.15,930.577 405.15,935.175 Z M442.15 943.5 L442.15 951.825 C442.15,956.423 438.423,960.15 433.825,960.15 L417.175 960.15 C412.577,960.15 408.85,956.423 408.85,951.825 L408.85 935.175 C408.85,930.577 412.577,926.85 417.175,926.85 L433.825 926.85 C438.423,926.85 442.15,930.577 442.15,935.175 Z M516.15 943.5 L516.15 951.825 C516.15,956.423 512.423,960.15 507.825,960.15 L491.175 960.15 C486.577,960.15 482.85,956.423 482.85,951.825 L482.85 935.175 C482.85,930.577 486.577,926.85 491.175,926.85 L507.825 926.85 C512.423,926.85 516.15,930.577 516.15,935.175 Z M590.15 943.5 L590.15 951.825 C590.15,956.423 586.423,960.15 581.825,960.15 L565.175 960.15 C560.577,960.15 556.85,956.423 556.85,951.825 L556.85 935.175 C556.85,930.577 560.577,926.85 565.175,926.85 L581.825 926.85 C586.423,926.85 590.15,930.577 590.15,935.175 Z M627.15 943.5 L627.15 951.825 C627.15,956.423 623.423,960.15 618.825,960.15 L602.175 960.15 C597.577,960.15 593.85,956.423 593.85,951.825 L593.85 935.175 C593.85,930.577 597.577,926.85 602.175,926.85 L618.825 926.85 C623.423,926.85 627.15,930.577 627.15,935.175 Z M701.15 943.5 L701.15 951.825 C701.15,956.423 697.423,960.15 692.825,960.15 L676.175 960.15 C671.577,960.15 667.85,956.423 667.85,951.825 L667.85 935.175 C667.85,930.577 671.577,926.85 676.175,926.85 L692.825 926.85 C697.423,926.85 701.15,930.577 701.15,935.175 Z M738.15 943.5 L738.15 951.825 C738.15,956.423 734.423,960.15 729.825,960.15 L713.175 960.15 C708.577,960.15 704.85,956.423 704.85,951.825 L704.85 935.175 C704.85,930.577 708.577,926.85 713.175,926.85 L729.825 926.85 C734.423,926.85 738.15,930.577 738.15,935.175 Z M775.15 943.5 L775.15 951.825 C775.15,956.423 771.423,960.15 766.825,960.15 L750.175 960.15 C745.577,960.15 741.85,956.423 741.85,951.825 L741.85 935.175 C741.85,930.577 745.577,926.85 750.175,926.85 L766.825 926.85 C771.423,926.85 775.15,930.577 775.15,935.175 Z M812.15 943.5 L812.15 951.825 C812.15,956.423 808.423,960.15 803.825,960.15 L787.175 960.15 C782.577,960.15 778.85,956.423 778.85,951.825 L778.85 935.175 C778.85,930.577 782.577,926.85 787.175,926.85 L803.825 926.85 C808.423,926.85 812.15,930.577 812.15,935.175 Z M849.15 943.5 L849.15 951.825 C849.15,956.423 845.423,960.15 840.825,960.15 L824.175 960.15 C819.577,960.15 815.85,956.423 815.85,951.825 L815.85 935.175 C815.85,930.577 819.577,926.85 824.175,926.85 L840.825 926.85 C845.423,926.85 849.15,930.577 849.15,935.175 Z M886.15 943.5 L886.15 951.825 C886.15,956.423 882.423,960.15 877.825,960.15 L861.175 960.15 C856.577,960.15 852.85,956.423 852.85,951.825 L852.85 935.175 C852.85,930.577 856.577,926.85 861.175,926.85 L877.825 926.85 C882.423,926.85 886.15,930.577 886.15,935.175 Z M923.15 943.5 L923.15 951.825 C923.15,956.423 919.423,960.15 914.825,960.15 L898.175 960.15 C893.577,960.15 889.85,956.423 889.85,951.825 L889.85 935.175 C889.85,930.577 893.577,926.85 898.175,926.85 L914.825 926.85 C919.423,926.85 923.15,930.577 923.15,935.175 Z M960.15 943.5 L960.15 951.825 C960.15,956.423 956.423,960.15 951.825,960.15 L935.175 960.15 C930.577,960.15 926.85,956.423 926.85,951.825 L926.85 935.175 C926.85,930.577 930.577,926.85 935.175,926.85 L951.825 926.85 C956.423,926.85 960.15,930.577 960.15,935.175 Z " />
</svg>
