<svg xmlns="http://www.w3.org/2000/svg" xmlns:xlink="http://www.w3.org/1999/xlink" version="1.1" height="989" width="989">
   <rect fill="#f5f4f3" fill-opacity="1.0" x="0" y="0" width="989" height="989" />
   <path fill="#1c1816" fill-opacity="1.0" d="M258 193.5 L258 240.8 C258,250.299 250.299,258 240.8,258 L146.2 258 C136.701,258 129,250.299 129,240.8 L129 146.2 C129,136.701 136.701,129 146.2,129 L240.8 129 C250.299,129 258,136.701 258,146.2 Z M258 795.5 L258 748.2 C258,738.701 250.299,731 240.8,731 L146.2 731 C136.701,731 129,738.701 129,748.2 L129 842.8 C129,852.299 136.701,860 146.2,860 L240.8 860 C250.299,860 258,852.299 258,842.8 Z M731 193.5 L731 240.8 C731,250.299 738.701,258 748.2,258 L842.8 258 C852.299,258 860,250.299 860,240.8 L860 146.2 C860,136.701 852.299,129 842.8,129 L748.2 129 C738.701,129 731,136.701 731,146.2 Z " />
   <path fill="#1c1816" fill-opacity="1.0" d="M279.5 86 L107.5 86 C95.632,86 86,95.632 86,107.5 L86 279.5 C86,291.368 95.632,301 107.5,301 L279.5 301 C291.368,301 301,291.368 301,279.5 L301 107.5 C301,95.632 291.368,86 279.5,86 Z M344 86 L344 301 C344,324.736 324.736,344 301,344 L86 344 C62.264,344 43,324.736 43,301 L43 86 C43,62.264 62.264,43 86,43 L301 43 C324.736,43 344,62.264 344,86 Z M279.5 903 L107.5 903 C95.632,903 86,893.368 86,881.5 L86 709.5 C86,697.632 95.632,688 107.5,688 L279.5 688 C291.368,688 301,697.632 301,709.5 L301 881.5 C301,893.368 291.368,903 279.5,903 Z M344 903 L344 688 C344,664.264 324.736,645 301,645 L86 645 C62.264,645 43,664.264 43,688 L43 903 C43,926.736 62.264,946 86,946 L301 946 C324.736,946 344,926.736 344,903 Z M709.5 86 L881.5 86 C893.368,86 903,95.632 903,107.5 L903 279.5 C903,291.368 893.368,301 881.5,301 L709.5 301 C697.632,301 688,291.368 688,279.5 L688 107.5 C688,95.632 697.632,86 709.5,86 Z M645 86 L645 301 C645,324.736 664.264,344 688,344 L903 344 C926.736,344 946,324.736 946,301 L946 86 C946,62.264 926.736,43 903,43 L688 43 C664.264,43 645,62.264 645,86 Z " />
   <path fill="#1c1816" fill-opacity="1.0" d="M470.85 64.5 L470.85 74.175 C470.85,79.518 466.518,83.85 461.175,83.85 L441.825 83.85 C436.482,83.85 432.15,79.518 432.15,74.175 L432.15 54.825 C432.15,49.482 436.482,45.15 441.825,45.15 L461.175 45.15 C466.518,45.15 470.85,49.482 470.85,54.825 Z M556.85 64.5 L556.85 74.175 C556.85,79.518 552.518,83.85 547.175,83.85 L527.825 83.85 C522.482,83.85 518.15,79.518 518.15,74.175 L518.15 54.825 C518.15,49.482 522.482,45.15 527.825,45.15 L547.175 45.15 C552.518,45.15 556.85,49.482 556.85,54.825 Z M599.85 64.5 L599.85 74.175 C599.85,79.518 595.518,83.85 590.175,83.85 L570.825 83.85 C565.482,83.85 561.15,79.518 561.15,74.175 L561.15 54.825 C561.15,49.482 565.482,45.15 570.825,45.15 L590.175 45.15 C595.518,45.15 599.85,49.482 599.85,54.825 Z M427.85 107.5 L427.85 117.175 C427.85,122.518 423.518,126.85 418.175,126.85 L398.825 126.85 C393.482,126.85 389.15,122.518 389.15,117.175 L389.15 97.825 C389.15,92.482 393.482,88.15 398.825,88.15 L418.175 88.15 C423.518,88.15 427.85,92.482 427.85,97.825 Z M470.85 107.5 L470.85 117.175 C470.85,122.518 466.518,126.85 461.175,126.85 L441.825 126.85 C436.482,126.85 432.15,122.518 432.15,117.175 L432.15 97.825 C432.15,92.482 436.482,88.15 441.825,88.15 L461.175 88.15 C466.518,88.15 470.85,92.482 470.85,97.825 Z M599.85 150.5 L599.85 160.175 C599.85,165.518 595.518,169.85 590.175,169.85 L570.825 169.85 C565.482,169.85 561.15,165.518 561.15,160.175 L561.15 140.825 C561.15,135.482 565.482,131.15 570.825,131.15 L590.175 131.15 C595.518,131.15 599.85,135.482 599.85,140.825 Z M470.85 193.5 L470.85 203.175 C470.85,208.518 466.518,212.85 461.175,212.85 L441.825 212.85 C436.482,212.85 432.15,208.518 432.15,203.175 L432.15 183.825 C432.15,178.482 436.482,174.15 441.825,174.15 L461.175 174.15 C466.518,174.15 470.85,178.482 470.85,183.825 Z M556.85 193.5 L556.85 203.175 C556.85,208.518 552.518,212.85 547.175,212.85 L527.825 212.85 C522.482,212.85 518.15,208.518 518.15,203.175 L518.15 183.825 C518.15,178.482 522.482,174.15 527.825,174.15 L547.175 174.15 C552.518,174.15 556.85,178.482 556.85,183.825 Z M427.85 236.5 L427.85 246.175 C427.85,251.518 423.518,255.85 418.175,255.85 L398.825 255.85 C393.482,255.85 389.15,251.518 389.15,246.175 L389.15 226.825 C389.15,221.482 393.482,217.15 398.825,217.15 L418.175 217.15 C423.518,217.15 427.85,221.482 427.85,226.825 Z M470.85 236.5 L470.85 246.175 C470.85,251.518 466.518,255.85 461.175,255.85 L441.825 255.85 C436.482,255.85 432.15,251.518 432.15,246.175 L432.15 226.825 C432.15,221.482 436.482,217.15 441.825,217.15 L461.175 217.15 C466.518,217.15 470.85,221.482 470.85,226.825 Z M599.85 236.5 L599.85 246.175 C599.85,251.518 595.518,255.85 590.175,255.85 L570.825 255.85 C565.482,255.85 561.15,251.518 561.15,246.175 L561.15 226.825 C561.15,221.482 565.482,217.15 570.825,217.15 L590.175 217.15 C595.518,217.15 599.85,221.482 599.85,226.825 Z M470.85 279.5 L470.85 289.175 C470.85,294.518 466.518,298.85 461.175,298.85 L441.825 298.85 C436.482,298.85 432.15,294.518 432.15,289.175 L432.15 269.825 C432.15,264.482 436.482,260.15 441.825,260.15 L461.175 260.15 C466.518,260.15 470.85,264.482 470.85,269.825 Z M513.85 279.5 L513.85 289.175 C513.85,294.518 509.518,298.85 504.175,298.85 L484.825 298.85 C479.482,298.85 475.15,294.518 475.15,289.175 L475.15 269.825 C475.15,264.482 479.482,260.15 484.825,260.15 L504.175 260.15 C509.518,260.15 513.85,264.482 513.85,269.825 Z M556.85 279.5 L556.85 289.175 C556.85,294.518 552.518,298.85 547.175,298.85 L527.825 298.85 C522.482,298.85 518.15,294.518 518.15,289.175 L518.15 269.825 C518.15,264.482 522.482,260.15 527.825,260.15 L547.175 260.15 C552.518,260.15 556.85,264.482 556.85,269.825 Z M427.85 322.5 L427.85 332.175 C427.85,337.518 423.518,341.85 418.175,341.85 L398.825 341.85 C393.482,341.85 389.15,337.518 389.15,332.175 L389.15 312.825 C389.15,307.482 393.482,303.15 398.825,303.15 L418.175 303.15 C423.518,303.15 427.85,307.482 427.85,312.825 Z M513.85 322.5 L513.85 332.175 C513.85,337.518 509.518,341.85 504.175,341.85 L484.825 341.85 C479.482,341.85 475.15,337.518 475.15,332.175 L475.15 312.825 C475.15,307.482 479.482,303.15 484.825,303.15 L504.175 303.15 C509.518,303.15 513.85,307.482 513.85,312.825 Z M599.85 322.5 L599.85 332.175 C599.85,337.518 595.518,341.85 590.175,341.85 L570.825 341.85 C565.482,341.85 561.15,337.518 561.15,332.175 L561.15 312.825 C561.15,307.482 565.482,303.15 570.825,303.15 L590.175 303.15 C595.518,303.15 599.85,307.482 599.85,312.825 Z M470.85 365.5 L470.85 375.175 C470.85,380.518 466.518,384.85 461.175,384.85 L441.825 384.85 C436.482,384.85 432.15,380.518 432.15,375.175 L432.15 355.825 C432.15,350.482 436.482,346.15 441.825,346.15 L461.175 346.15 C466.518,346.15 470.85,350.482 470.85,355.825 Z M599.85 365.5 L599.85 375.175 C599.85,380.518 595.518,384.85 590.175,384.85 L570.825 384.85 C565.482,384.85 561.15,380.518 561.15,375.175 L561.15 355.825 C561.15,350.482 565.482,346.15 570.825,346.15 L590.175 346.15 C595.518,346.15 599.85,350.482 599.85,355.825 Z M83.85 408.5 L83.85 418.175 C83.85,423.518 79.518,427.85 74.175,427.85 L54.825 427.85 C49.482,427.85 45.15,423.518 45.15,418.175 L45.15 398.825 C45.15,393.482 49.482,389.15 54.825,389.15 L74.175 389.15 C79.518,389.15 83.85,393.482 83.85,398.825 Z M169.85 408.5 L169.85 418.175 C169.85,423.518 165.518,427.85 160.175,427.85 L140.825 427.85 C135.482,427.85 131.15,423.518 131.15,418.175 L131.15 398.825 C131.15,393.482 135.482,389.15 140.825,389.15 L160.175 389.15 C165.518,389.15 169.85,393.482 169.85,398.825 Z M255.85 408.5 L255.85 418.175 C255.85,423.518 251.518,427.85 246.175,427.85 L226.825 427.85 C221.482,427.85 217.15,423.518 217.15,418.175 L217.15 398.825 C217.15,393.482 221.482,389.15 226.825,389.15 L246.175 389.15 C251.518,389.15 255.85,393.482 255.85,398.825 Z M341.85 408.5 L341.85 418.175 C341.85,423.518 337.518,427.85 332.175,427.85 L312.825 427.85 C307.482,427.85 303.15,423.518 303.15,418.175 L303.15 398.825 C303.15,393.482 307.482,389.15 312.825,389.15 L332.175 389.15 C337.518,389.15 341.85,393.482 341.85,398.825 Z M513.85 408.5 L513.85 418.175 C513.85,423.518 509.518,427.85 504.175,427.85 L484.825 427.85 C479.482,427.85 475.15,423.518 475.15,418.175 L475.15 398.825 C475.15,393.482 479.482,389.15 484.825,389.15 L504.175 389.15 C509.518,389.15 513.85,393.482 513.85,398.825 Z M556.85 408.5 L556.85 418.175 C556.85,423.518 552.518,427.85 547.175,427.85 L527.825 427.85 C522.482,427.85 518.15,423.518 518.15,418.175 L518.15 398.825 C518.15,393.482 522.482,389.15 527.825,389.15 L547.175 389.15 C552.518,389.15 556.85,393.482 556.85,398.825 Z M771.85 408.5 L771.85 418.175 C771.85,423.518 767.518,427.85 762.175,427.85 L742.825 427.85 C737.482,427.85 733.15,423.518 733.15,418.175 L733.15 398.825 C733.15,393.482 737.482,389.15 742.825,389.15 L762.175 389.15 C767.518,389.15 771.85,393.482 771.85,398.825 Z M900.85 408.5 L900.85 418.175 C900.85,423.518 896.518,427.85 891.175,427.85 L871.825 427.85 C866.482,427.85 862.15,423.518 862.15,418.175 L862.15 398.825 C862.15,393.482 866.482,389.15 871.825,389.15 L891.175 389.15 C896.518,389.15 900.85,393.482 900.85,398.825 Z M126.85 451.5 L126.85 461.175 C126.85,466.518 122.518,470.85 117.175,470.85 L97.825 470.85 C92.482,470.85 88.15,466.518 88.15,461.175 L88.15 441.825 C88.15,436.482 92.482,432.15 97.825,432.15 L117.175 432.15 C122.518,432.15 126.85,436.482 126.85,441.825 Z M169.85 451.5 L169.85 461.175 C169.85,466.518 165.518,470.85 160.175,470.85 L140.825 470.85 C135.482,470.85 131.15,466.518 131.15,461.175 L131.15 441.825 C131.15,436.482 135.482,432.15 140.825,432.15 L160.175 432.15 C165.518,432.15 169.85,436.482 169.85,441.825 Z M212.85 451.5 L212.85 461.175 C212.85,466.518 208.518,470.85 203.175,470.85 L183.825 470.85 C178.482,470.85 174.15,466.518 174.15,461.175 L174.15 441.825 C174.15,436.482 178.482,432.15 183.825,432.15 L203.175 432.15 C208.518,432.15 212.85,436.482 212.85,441.825 Z M255.85 451.5 L255.85 461.175 C255.85,466.518 251.518,470.85 246.175,470.85 L226.825 470.85 C221.482,470.85 217.15,466.518 217.15,461.175 L217.15 441.825 C217.15,436.482 221.482,432.15 226.825,432.15 L246.175 432.15 C251.518,432.15 255.85,436.482 255.85,441.825 Z M384.85 451.5 L384.85 461.175 C384.85,466.518 380.518,470.85 375.175,470.85 L355.825 470.85 C350.482,470.85 346.15,466.518 346.15,461.175 L346.15 441.825 C346.15,436.482 350.482,432.15 355.825,432.15 L375.175 432.15 C380.518,432.15 384.85,436.482 384.85,441.825 Z M513.85 451.5 L513.85 461.175 C513.85,466.518 509.518,470.85 504.175,470.85 L484.825 470.85 C479.482,470.85 475.15,466.518 475.15,461.175 L475.15 441.825 C475.15,436.482 479.482,432.15 484.825,432.15 L504.175 432.15 C509.518,432.15 513.85,436.482 513.85,441.825 Z M556.85 451.5 L556.85 461.175 C556.85,466.518 552.518,470.85 547.175,470.85 L527.825 470.85 C522.482,470.85 518.15,466.518 518.15,461.175 L518.15 441.825 C518.15,436.482 522.482,432.15 527.825,432.15 L547.175 432.15 C552.518,432.15 556.85,436.482 556.85,441.825 Z M599.85 451.5 L599.85 461.175 C599.85,466.518 595.518,470.85 590.175,470.85 L570.825 470.85 C565.482,470.85 561.15,466.518 561.15,461.175 L561.15 441.825 C561.15,436.482 565.482,432.15 570.825,432.15 L590.175 432.15 C595.518,432.15 599.85,436.482 599.85,441.825 Z M685.85 451.5 L685.85 461.175 C685.85,466.518 681.518,470.85 676.175,470.85 L656.825 470.85 C651.482,470.85 647.15,466.518 647.15,461.175 L647.15 441.825 C647.15,436.482 651.482,432.15 656.825,432.15 L676.175 432.15 C681.518,432.15 685.85,436.482 685.85,441.825 Z M728.85 451.5 L728.85 461.175 C728.85,466.518 724.518,470.85 719.175,470.85 L699.825 470.85 C694.482,470.85 690.15,466.518 690.15,461.175 L690.15 441.825 C690.15,436.482 694.482,432.15 699.825,432.15 L719.175 432.15 C724.518,432.15 728.85,436.482 728.85,441.825 Z M771.85 451.5 L771.85 461.175 C771.85,466.518 767.518,470.85 762.175,470.85 L742.825 470.85 C737.482,470.85 733.15,466.518 733.15,461.175 L733.15 441.825 C733.15,436.482 737.482,432.15 742.825,432.15 L762.175 432.15 C767.518,432.15 771.85,436.482 771.85,441.825 Z M943.85 451.5 L943.85 461.175 C943.85,466.518 939.518,470.85 934.175,470.85 L914.825 470.85 C909.482,470.85 905.15,466.518 905.15,461.175 L905.15 441.825 C905.15,436.482 909.482,432.15 914.825,432.15 L934.175 432.15 C939.518,432.15 943.85,436.482 943.85,441.825 Z M126.85 494.5 L126.85 504.175 C126.85,509.518 122.518,513.85 117.175,513.85 L97.825 513.85 C92.482,513.85 88.15,509.518 88.15,504.175 L88.15 484.825 C88.15,479.482 92.482,475.15 97.825,475.15 L117.175 475.15 C122.518,475.15 126.85,479.482 126.85,484.825 Z M169.85 494.5 L169.85 504.175 C169.85,509.518 165.518,513.85 160.175,513.85 L140.825 513.85 C135.482,513.85 131.15,509.518 131.15,504.175 L131.15 484.825 C131.15,479.482 135.482,475.15 140.825,475.15 L160.175 475.15 C165.518,475.15 169.85,479.482 169.85,484.825 Z M212.85 494.5 L212.85 504.175 C212.85,509.518 208.518,513.85 203.175,513.85 L183.825 513.85 C178.482,513.85 174.15,509.518 174.15,504.175 L174.15 484.825 C174.15,479.482 178.482,475.15 183.825,475.15 L203.175 475.15 C208.518,475.15 212.85,479.482 212.85,484.825 Z M298.85 494.5 L298.85 504.175 C298.85,509.518 294.518,513.85 289.175,513.85 L269.825 513.85 C264.482,513.85 260.15,509.518 260.15,504.175 L260.15 484.825 C260.15,479.482 264.482,475.15 269.825,475.15 L289.175 475.15 C294.518,475.15 298.85,479.482 298.85,484.825 Z M341.85 494.5 L341.85 504.175 C341.85,509.518 337.518,513.85 332.175,513.85 L312.825 513.85 C307.482,513.85 303.15,509.518 303.15,504.175 L303.15 484.825 C303.15,479.482 307.482,475.15 312.825,475.15 L332.175 475.15 C337.518,475.15 341.85,479.482 341.85,484.825 Z M427.85 494.5 L427.85 504.175 C427.85,509.518 423.518,513.85 418.175,513.85 L398.825 513.85 C393.482,513.85 389.15,509.518 389.15,504.175 L389.15 484.825 C389.15,479.482 393.482,475.15 398.825,475.15 L418.175 475.15 C423.518,475.15 427.85,479.482 427.85,484.825 Z M470.85 494.5 L470.85 504.175 C470.85,509.518 466.518,513.85 461.175,513.85 L441.825 513.85 C436.482,513.85 432.15,509.518 432.15,504.175 L432.15 484.825 C432.15,479.482 436.482,475.15 441.825,475.15 L461.175 475.15 C466.518,475.15 470.85,479.482 470.85,484.825 Z M513.85 494.5 L513.85 504.175 C513.85,509.518 509.518,513.85 504.175,513.85 L484.825 513.85 C479.482,513.85 475.15,509.518 475.15,504.175 L475.15 484.825 C475.15,479.482 479.482,475.15 484.825,475.15 L504.175 475.15 C509.518,475.15 513.85,479.482 513.85,484.825 Z M556.85 494.5 L556.85 504.175 C556.85,509.518 552.518,513.85 547.175,513.85 L527.825 513.85 C522.482,513.85 518.15,509.518 518.15,504.175 L518.15 484.825 C518.15,479.482 522.482,475.15 527.825,475.15 L547.175 475.15 C552.518,475.15 556.85,479.482 556.85,484.825 Z M599.85 494.5 L599.85 504.175 C599.85,509.518 595.518,513.85 590.175,513.85 L570.825 513.85 C565.482,513.85 561.15,509.518 561.15,504.175 L561.15 484.825 C561.15,479.482 565.482,475.15 570.825,475.15 L590.175 475.15 C595.518,475.15 599.85,479.482 599.85,484.825 Z M642.85 494.5 L642.85 504.175 C642.85,509.518 638.518,513.85 633.175,513.85 L613.825 513.85 C608.482,513.85 604.15,509.518 604.15,504.175 L604.15 484.825 C604.15,479.482 608.482,475.15 613.825,475.15 L633.175 475.15 C638.518,475.15 642.85,479.482 642.85,484.825 Z M771.85 494.5 L771.85 504.175 C771.85,509.518 767.518,513.85 762.175,513.85 L742.825 513.85 C737.482,513.85 733.15,509.518 733.15,504.175 L733.15 484.825 C733.15,479.482 737.482,475.15 742.825,475.15 L762.175 475.15 C767.518,475.15 771.85,479.482 771.85,484.825 Z M857.85 494.5 L857.85 504.175 C857.85,509.518 853.518,513.85 848.175,513.85 L828.825 513.85 C823.482,513.85 819.15,509.518 819.15,504.175 L819.15 484.825 C819.15,479.482 823.482,475.15 828.825,475.15 L848.175 475.15 C853.518,475.15 857.85,479.482 857.85,484.825 Z M900.85 494.5 L900.85 504.175 C900.85,509.518 896.518,513.85 891.175,513.85 L871.825 513.85 C866.482,513.85 862.15,509.518 862.15,504.175 L862.15 484.825 C862.15,479.482 866.482,475.15 871.825,475.15 L891.175 475.15 C896.518,475.15 900.85,479.482 900.85,484.825 Z M943.85 494.5 L943.85 504.175 C943.85,509.518 939.518,513.85 934.175,513.85 L914.825 513.85 C909.482,513.85 905.15,509.518 905.15,504.175 L905.15 484.825 C905.15,479.482 909.482,475.15 914.825,475.15 L934.175 475.15 C939.518,475.15 943.85,479.482 943.85,484.825 Z M126.85 537.5 L126.85 547.175 C126.85,552.518 122.518,556.85 117.175,556.85 L97.825 556.85 C92.482,556.85 88.15,552.518 88.15,547.175 L88.15 527.825 C88.15,522.482 92.482,518.15 97.825,518.15 L117.175 518.15 C122.518,518.15 126.85,522.482 126.85,527.825 Z M212.85 537.5 L212.85 547.175 C212.85,552.518 208.518,556.85 203.175,556.85 L183.825 556.85 C178.482,556.85 174.15,552.518 174.15,547.175 L174.15 527.825 C174.15,522.482 178.482,518.15 183.825,518.15 L203.175 518.15 C208.518,518.15 212.85,522.482 212.85,527.825 Z M384.85 537.5 L384.85 547.175 C384.85,552.518 380.518,556.85 375.175,556.85 L355.825 556.85 C350.482,556.85 346.15,552.518 346.15,547.175 L346.15 527.825 C346.15,522.482 350.482,518.15 355.825,518.15 L375.175 518.15 C380.518,518.15 384.85,522.482 384.85,527.825 Z M771.85 537.5 L771.85 547.175 C771.85,552.518 767.518,556.85 762.175,556.85 L742.825 556.85 C737.482,556.85 733.15,552.518 733.15,547.175 L733.15 527.825 C733.15,522.482 737.482,518.15 742.825,518.15 L762.175 518.15 C767.518,518.15 771.85,522.482 771.85,527.825 Z M900.85 537.5 L900.85 547.175 C900.85,552.518 896.518,556.85 891.175,556.85 L871.825 556.85 C866.482,556.85 862.15,552.518 862.15,547.175 L862.15 527.825 C862.15,522.482 866.482,518.15 871.825,518.15 L891.175 518.15 C896.518,518.15 900.85,522.482 900.85,527.825 Z M83.85 580.5 L83.85 590.175 C83.85,595.518 79.518,599.85 74.175,599.85 L54.825 599.85 C49.482,599.85 45.15,595.518 45.15,590.175 L45.15 570.825 C45.15,565.482 49.482,561.15 54.825,561.15 L74.175 561.15 C79.518,561.15 83.85,565.482 83.85,570.825 Z M126.85 580.5 L126.85 590.175 C126.85,595.518 122.518,599.85 117.175,599.85 L97.825 599.85 C92.482,599.85 88.15,595.518 88.15,590.175 L88.15 570.825 C88.15,565.482 92.482,561.15 97.825,561.15 L117.175 561.15 C122.518,561.15 126.85,565.482 126.85,570.825 Z M212.85 580.5 L212.85 590.175 C212.85,595.518 208.518,599.85 203.175,599.85 L183.825 599.85 C178.482,599.85 174.15,595.518 174.15,590.175 L174.15 570.825 C174.15,565.482 178.482,561.15 183.825,561.15 L203.175 561.15 C208.518,561.15 212.85,565.482 212.85,570.825 Z M255.85 580.5 L255.85 590.175 C255.85,595.518 251.518,599.85 246.175,599.85 L226.825 599.85 C221.482,599.85 217.15,595.518 217.15,590.175 L217.15 570.825 C217.15,565.482 221.482,561.15 226.825,561.15 L246.175 561.15 C251.518,561.15 255.85,565.482 255.85,570.825 Z M298.85 580.5 L298.85 590.175 C298.85,595.518 294.518,599.85 289.175,599.85 L269.825 599.85 C264.482,599.85 260.15,595.518 260.15,590.175 L260.15 570.825 C260.15,565.482 264.482,561.15 269.825,561.15 L289.175 561.15 C294.518,561.15 298.85,565.482 298.85,570.825 Z M341.85 580.5 L341.85 590.175 C341.85,595.518 337.518,599.85 332.175,599.85 L312.825 599.85 C307.482,599.85 303.15,595.518 303.15,590.175 L303.15 570.825 C303.15,565.482 307.482,561.15 312.825,561.15 L332.175 561.15 C337.518,561.15 341.85,565.482 341.85,570.825 Z M427.85 580.5 L427.85 590.175 C427.85,595.518 423.518,599.85 418.175,599.85 L398.825 599.85 C393.482,599.85 389.15,595.518 389.15,590.175 L389.15 570.825 C389.15,565.482 393.482,561.15 398.825,561.15 L418.175 561.15 C423.518,561.15 427.85,565.482 427.85,570.825 Z M728.85 580.5 L728.85 590.175 C728.85,595.518 724.518,599.85 719.175,599.85 L699.825 599.85 C694.482,599.85 690.15,595.518 690.15,590.175 L690.15 570.825 C690.15,565.482 694.482,561.15 699.825,561.15 L719.175 561.15 C724.518,561.15 728.85,565.482 728.85,570.825 Z M814.85 580.5 L814.85 590.175 C814.85,595.518 810.518,599.85 805.175,599.85 L785.825 599.85 C780.482,599.85 776.15,595.518 776.15,590.175 L776.15 570.825 C776.15,565.482 780.482,561.15 785.825,561.15 L805.175 561.15 C810.518,561.15 814.85,565.482 814.85,570.825 Z M427.85 623.5 L427.85 633.175 C427.85,638.518 423.518,642.85 418.175,642.85 L398.825 642.85 C393.482,642.85 389.15,638.518 389.15,633.175 L389.15 613.825 C389.15,608.482 393.482,604.15 398.825,604.15 L418.175 604.15 C423.518,604.15 427.85,608.482 427.85,613.825 Z M470.85 623.5 L470.85 633.175 C470.85,638.518 466.518,642.85 461.175,642.85 L441.825 642.85 C436.482,642.85 432.15,638.518 432.15,633.175 L432.15 613.825 C432.15,608.482 436.482,604.15 441.825,604.15 L461.175 604.15 C466.518,604.15 470.85,608.482 470.85,613.825 Z M556.85 623.5 L556.85 633.175 C556.85,638.518 552.518,642.85 547.175,642.85 L527.825 642.85 C522.482,642.85 518.15,638.518 518.15,633.175 L518.15 613.825 C518.15,608.482 522.482,604.15 527.825,604.15 L547.175 604.15 C552.518,604.15 556.85,608.482 556.85,613.825 Z M599.85 623.5 L599.85 633.175 C599.85,638.518 595.518,642.85 590.175,642.85 L570.825 642.85 C565.482,642.85 561.15,638.518 561.15,633.175 L561.15 613.825 C561.15,608.482 565.482,604.15 570.825,604.15 L590.175 604.15 C595.518,604.15 599.85,608.482 599.85,613.825 Z M728.85 623.5 L728.85 633.175 C728.85,638.518 724.518,642.85 719.175,642.85 L699.825 642.85 C694.482,642.85 690.15,638.518 690.15,633.175 L690.15 613.825 C690.15,608.482 694.482,604.15 699.825,604.15 L719.175 604.15 C724.518,604.15 728.85,608.482 728.85,613.825 Z M771.85 623.5 L771.85 633.175 C771.85,638.518 767.518,642.85 762.175,642.85 L742.825 642.85 C737.482,642.85 733.15,638.518 733.15,633.175 L733.15 613.825 C733.15,608.482 737.482,604.15 742.825,604.15 L762.175 604.15 C767.518,604.15 771.85,608.482 771.85,613.825 Z M900.85 623.5 L900.85 633.175 C900.85,638.518 896.518,642.85 891.175,642.85 L871.825 642.85 C866.482,642.85 862.15,638.518 862.15,633.175 L862.15 613.825 C862.15,608.482 866.482,604.15 871.825,604.15 L891.175 604.15 C896.518,604.15 900.85,608.482 900.85,613.825 Z M943.85 623.5 L943.85 633.175 C943.85,638.518 939.518,642.85 934.175,642.85 L914.825 642.85 C909.482,642.85 905.15,638.518 905.15,633.175 L905.15 613.825 C905.15,608.482 909.482,604.15 914.825,604.15 L934.175 604.15 C939.518,604.15 943.85,608.482 943.85,613.825 Z M556.85 666.5 L556.85 676.175 C556.85,681.518 552.518,685.85 547.175,685.85 L527.825 685.85 C522.482,685.85 518.15,681.518 518.15,676.175 L518.15 656.825 C518.15,651.482 522.482,647.15 527.825,647.15 L547.175 647.15 C552.518,647.15 556.85,651.482 556.85,656.825 Z M599.85 666.5 L599.85 676.175 C599.85,681.518 595.518,685.85 590.175,685.85 L570.825 685.85 C565.482,685.85 561.15,681.518 561.15,676.175 L561.15 656.825 C561.15,651.482 565.482,647.15 570.825,647.15 L590.175 647.15 C595.518,647.15 599.85,651.482 599.85,656.825 Z M685.85 666.5 L685.85 676.175 C685.85,681.518 681.518,685.85 676.175,685.85 L656.825 685.85 C651.482,685.85 647.15,681.518 647.15,676.175 L647.15 656.825 C647.15,651.482 651.482,647.15 656.825,647.15 L676.175 647.15 C681.518,647.15 685.85,651.482 685.85,656.825 Z M771.85 666.5 L771.85 676.175 C771.85,681.518 767.518,685.85 762.175,685.85 L742.825 685.85 C737.482,685.85 733.15,681.518 733.15,676.175 L733.15 656.825 C733.15,651.482 737.482,647.15 742.825,647.15 L762.175 647.15 C767.518,647.15 771.85,651.482 771.85,656.825 Z M857.85 666.5 L857.85 676.175 C857.85,681.518 853.518,685.85 848.175,685.85 L828.825 685.85 C823.482,685.85 819.15,681.518 819.15,676.175 L819.15 656.825 C819.15,651.482 823.482,647.15 828.825,647.15 L848.175 647.15 C853.518,647.15 857.85,651.482 857.85,656.825 Z M900.85 666.5 L900.85 676.175 C900.85,681.518 896.518,685.85 891.175,685.85 L871.825 685.85 C866.482,685.85 862.15,681.518 862.15,676.175 L862.15 656.825 C862.15,651.482 866.482,647.15 871.825,647.15 L891.175 647.15 C896.518,647.15 900.85,651.482 900.85,656.825 Z M943.85 666.5 L943.85 676.175 C943.85,681.518 939.518,685.85 934.175,685.85 L914.825 685.85 C909.482,685.85 905.15,681.518 905.15,676.175 L905.15 656.825 C905.15,651.482 909.482,647.15 914.825,647.15 L934.175 647.15 C939.518,647.15 943.85,651.482 943.85,656.825 Z M470.85 709.5 L470.85 719.175 C470.85,724.518 466.518,728.85 461.175,728.85 L441.825 728.85 C436.482,728.85 432.15,724.518 432.15,719.175 L432.15 699.825 C432.15,694.482 436.482,690.15 441.825,690.15 L461.175 690.15 C466.518,690.15 470.85,694.482 470.85,699.825 Z M513.85 709.5 L513.85 719.175 C513.85,724.518 509.518,728.85 504.175,728.85 L484.825 728.85 C479.482,728.85 475.15,724.518 475.15,719.175 L475.15 699.825 C475.15,694.482 479.482,690.15 484.825,690.15 L504.175 690.15 C509.518,690.15 513.85,694.482 513.85,699.825 Z M556.85 709.5 L556.85 719.175 C556.85,724.518 552.518,728.85 547.175,728.85 L527.825 728.85 C522.482,728.85 518.15,724.518 518.15,719.175 L518.15 699.825 C518.15,694.482 522.482,690.15 527.825,690.15 L547.175 690.15 C552.518,690.15 556.85,694.482 556.85,699.825 Z M599.85 709.5 L599.85 719.175 C599.85,724.518 595.518,728.85 590.175,728.85 L570.825 728.85 C565.482,728.85 561.15,724.518 561.15,719.175 L561.15 699.825 C561.15,694.482 565.482,690.15 570.825,690.15 L590.175 690.15 C595.518,690.15 599.85,694.482 599.85,699.825 Z M728.85 709.5 L728.85 719.175 C728.85,724.518 724.518,728.85 719.175,728.85 L699.825 728.85 C694.482,728.85 690.15,724.518 690.15,719.175 L690.15 699.825 C690.15,694.482 694.482,690.15 699.825,690.15 L719.175 690.15 C724.518,690.15 728.85,694.482 728.85,699.825 Z M771.85 709.5 L771.85 719.175 C771.85,724.518 767.518,728.85 762.175,728.85 L742.825 728.85 C737.482,728.85 733.15,724.518 733.15,719.175 L733.15 699.825 C733.15,694.482 737.482,690.15 742.825,690.15 L762.175 690.15 C767.518,690.15 771.85,694.482 771.85,699.825 Z M900.85 709.5 L900.85 719.175 C900.85,724.518 896.518,728.85 891.175,728.85 L871.825 728.85 C866.482,728.85 862.15,724.518 862.15,719.175 L862.15 699.825 C862.15,694.482 866.482,690.15 871.825,690.15 L891.175 690.15 C896.518,690.15 900.85,694.482 900.85,699.825 Z M943.85 709.5 L943.85 719.175 C943.85,724.518 939.518,728.85 934.175,728.85 L914.825 728.85 C909.482,728.85 905.15,724.518 905.15,719.175 L905.15 699.825 C905.15,694.482 909.482,690.15 914.825,690.15 L934.175 690.15 C939.518,690.15 943.85,694.482 943.85,699.825 Z M427.85 752.5 L427.85 762.175 C427.85,767.518 423.518,771.85 418.175,771.85 L398.825 771.85 C393.482,771.85 389.15,767.518 389.15,762.175 L389.15 742.825 C389.15,737.482 393.482,733.15 398.825,733.15 L418.175 733.15 C423.518,733.15 427.85,737.482 427.85,742.825 Z M513.85 752.5 L513.85 762.175 C513.85,767.518 509.518,771.85 504.175,771.85 L484.825 771.85 C479.482,771.85 475.15,767.518 475.15,762.175 L475.15 742.825 C475.15,737.482 479.482,733.15 484.825,733.15 L504.175 733.15 C509.518,733.15 513.85,737.482 513.85,742.825 Z M556.85 752.5 L556.85 762.175 C556.85,767.518 552.518,771.85 547.175,771.85 L527.825 771.85 C522.482,771.85 518.15,767.518 518.15,762.175 L518.15 742.825 C518.15,737.482 522.482,733.15 527.825,733.15 L547.175 733.15 C552.518,733.15 556.85,737.482 556.85,742.825 Z M642.85 752.5 L642.85 762.175 C642.85,767.518 638.518,771.85 633.175,771.85 L613.825 771.85 C608.482,771.85 604.15,767.518 604.15,762.175 L604.15 742.825 C604.15,737.482 608.482,733.15 613.825,733.15 L633.175 733.15 C638.518,733.15 642.85,737.482 642.85,742.825 Z M814.85 752.5 L814.85 762.175 C814.85,767.518 810.518,771.85 805.175,771.85 L785.825 771.85 C780.482,771.85 776.15,767.518 776.15,762.175 L776.15 742.825 C776.15,737.482 780.482,733.15 785.825,733.15 L805.175 733.15 C810.518,733.15 814.85,737.482 814.85,742.825 Z M900.85 752.5 L900.85 762.175 C900.85,767.518 896.518,771.85 891.175,771.85 L871.825 771.85 C866.482,771.85 862.15,767.518 862.15,762.175 L862.15 742.825 C862.15,737.482 866.482,733.15 871.825,733.15 L891.175 733.15 C896.518,733.15 900.85,737.482 900.85,742.825 Z M470.85 795.5 L470.85 805.175 C470.85,810.518 466.518,814.85 461.175,814.85 L441.825 814.85 C436.482,814.85 432.15,810.518 432.15,805.175 L432.15 785.825 C432.15,780.482 436.482,776.15 441.825,776.15 L461.175 776.15 C466.518,776.15 470.85,780.482 470.85,785.825 Z M513.85 795.5 L513.85 805.175 C513.85,810.518 509.518,814.85 504.175,814.85 L484.825 814.85 C479.482,814.85 475.15,810.518 475.15,805.175 L475.15 785.825 C475.15,780.482 479.482,776.15 484.825,776.15 L504.175 776.15 C509.518,776.15 513.85,780.482 513.85,785.825 Z M556.85 795.5 L556.85 805.175 C556.85,810.518 552.518,814.85 547.175,814.85 L527.825 814.85 C522.482,814.85 518.15,810.518 518.15,805.175 L518.15 785.825 C518.15,780.482 522.482,776.15 527.825,776.15 L547.175 776.15 C552.518,776.15 556.85,780.482 556.85,785.825 Z M599.85 795.5 L599.85 805.175 C599.85,810.518 595.518,814.85 590.175,814.85 L570.825 814.85 C565.482,814.85 561.15,810.518 561.15,805.175 L561.15 785.825 C561.15,780.482 565.482,776.15 570.825,776.15 L590.175 776.15 C595.518,776.15 599.85,780.482 599.85,785.825 Z M642.85 795.5 L642.85 805.175 C642.85,810.518 638.518,814.85 633.175,814.85 L613.825 814.85 C608.482,814.85 604.15,810.518 604.15,805.175 L604.15 785.825 C604.15,780.482 608.482,776.15 613.825,776.15 L633.175 776.15 C638.518,776.15 642.85,780.482 642.85,785.825 Z M771.85 795.5 L771.85 805.175 C771.85,810.518 767.518,814.85 762.175,814.85 L742.825 814.85 C737.482,814.85 733.15,810.518 733.15,805.175 L733.15 785.825 C733.15,780.482 737.482,776.15 742.825,776.15 L762.175 776.15 C767.518,776.15 771.85,780.482 771.85,785.825 Z M814.85 795.5 L814.85 805.175 C814.85,810.518 810.518,814.85 805.175,814.85 L785.825 814.85 C780.482,814.85 776.15,810.518 776.15,805.175 L776.15 785.825 C776.15,780.482 780.482,776.15 785.825,776.15 L805.175 776.15 C810.518,776.15 814.85,780.482 814.85,785.825 Z M900.85 795.5 L900.85 805.175 C900.85,810.518 896.518,814.85 891.175,814.85 L871.825 814.85 C866.482,814.85 862.15,810.518 862.15,805.175 L862.15 785.825 C862.15,780.482 866.482,776.15 871.825,776.15 L891.175 776.15 C896.518,776.15 900.85,780.482 900.85,785.825 Z M427.85 838.5 L427.85 848.175 C427.85,853.518 423.518,857.85 418.175,857.85 L398.825 857.85 C393.482,857.85 389.15,853.518 389.15,848.175 L389.15 828.825 C389.15,823.482 393.482,819.15 398.825,819.15 L418.175 819.15 C423.518,819.15 427.85,823.482 427.85,828.825 Z M513.85 838.5 L513.85 848.175 C513.85,853.518 509.518,857.85 504.175,857.85 L484.825 857.85 C479.482,857.85 475.15,853.518 475.15,848.175 L475.15 828.825 C475.15,823.482 479.482,819.15 484.825,819.15 L504.175 819.15 C509.518,819.15 513.85,823.482 513.85,828.825 Z M599.85 838.5 L599.85 848.175 C599.85,853.518 595.518,857.85 590.175,857.85 L570.825 857.85 C565.482,857.85 561.15,853.518 561.15,848.175 L561.15 828.825 C561.15,823.482 565.482,819.15 570.825,819.15 L590.175 819.15 C595.518,819.15 599.85,823.482 599.85,828.825 Z M685.85 838.5 L685.85 848.175 C685.85,853.518 681.518,857.85 676.175,857.85 L656.825 857.85 C651.482,857.85 647.15,853.518 647.15,848.175 L647.15 828.825 C647.15,823.482 651.482,819.15 656.825,819.15 L676.175 819.15 C681.518,819.15 685.85,823.482 685.85,828.825 Z M771.85 838.5 L771.85 848.175 C771.85,853.518 767.518,857.85 762.175,857.85 L742.825 857.85 C737.482,857.85 733.15,853.518 733.15,848.175 L733.15 828.825 C733.15,823.482 737.482,819.15 742.825,819.15 L762.175 819.15 C767.518,819.15 771.85,823.482 771.85,828.825 Z M857.85 838.5 L857.85 848.175 C857.85,853.518 853.518,857.85 848.175,857.85 L828.825 857.85 C823.482,857.85 819.15,853.518 819.15,848.175 L819.15 828.825 C819.15,823.482 823.482,819.15 828.825,819.15 L848.175 819.15 C853.518,819.15 857.85,823.482 857.85,828.825 Z M943.85 838.5 L943.85 848.175 C943.85,853.518 939.518,857.85 934.175,857.85 L914.825 857.85 C909.482,857.85 905.15,853.518 905.15,848.175 L905.15 828.825 C905.15,823.482 909.482,819.15 914.825,819.15 L934.175 819.15 C939.518,819.15 943.85,823.482 943.85,828.825 Z M470.85 881.5 L470.85 891.175 C470.85,896.518 466.518,900.85 461.175,900.85 L441.825 900.85 C436.482,900.85 432.15,896.518 432.15,891.175 L432.15 871.825 C432.15,866.482 436.482,862.15 441.825,862.15 L461.175 862.15 C466.518,862.15 470.85,866.482 470.85,871.825 Z M556.85 881.5 L556.85 891.175 C556.85,896.518 552.518,900.85 547.175,900.85 L527.825 900.85 C522.482,900.85 518.15,896.518 518.15,891.175 L518.15 871.825 C518.15,866.482 522.482,862.15 527.825,862.15 L547.175 862.15 C552.518,862.15 556.85,866.482 556.85,871.825 Z M599.85 881.5 L599.85 891.175 C599.85,896.518 595.518,900.85 590.175,900.85 L570.825 900.85 C565.482,900.85 561.15,896.518 561.15,891.175 L561.15 871.825 C561.15,866.482 565.482,862.15 570.825,862.15 L590.175 862.15 C595.518,862.15 599.85,866.482 599.85,871.825 Z M771.85 881.5 L771.85 891.175 C771.85,896.518 767.518,900.85 762.175,900.85 L742.825 900.85 C737.482,900.85 733.15,896.518 733.15,891.175 L733.15 871.825 C733.15,866.482 737.482,862.15 742.825,862.15 L762.175 862.15 C767.518,862.15 771.85,866.482 771.85,871.825 Z M900.85 881.5 L900.85 891.175 C900.85,896.518 896.518,900.85 891.175,900.85 L871.825 900.85 C866.482,900.85 862.15,896.518 862.15,891.175 L862.15 871.825 C862.15,866.482 866.482,862.15 871.825,862.15 L891.175 862.15 C896.518,862.15 900.85,866.482 900.85,871.825 Z M427.85 924.5 L427.85 934.175 C427.85,939.518 423.518,943.85 418.175,943.85 L398.825 943.85 C393.482,943.85 389.15,939.518 389.15,934.175 L389.15 914.825 C389.15,909.482 393.482,905.15 398.825,905.15 L418.175 905.15 C423.518,905.15 427.85,909.482 427.85,914.825 Z M599.85 924.5 L599.85 934.175 C599.85,939.518 595.518,943.85 590.175,943.85 L570.825 943.85 C565.482,943.85 561.15,939.518 561.15,934.175 L561.15 914.825 C561.15,909.482 565.482,905.15 570.825,905.15 L590.175 905.15 C595.518,905.15 599.85,909.482 599.85,914.825 Z M771.85 924.5 L771.85 934.175 C771.85,939.518 767.518,943.85 762.175,943.85 L742.825 943.85 C737.482,943.85 733.15,939.518 733.15,934.175 L733.15 914.825 C733.15,909.482 737.482,905.15 742.825,905.15 L762.175 905.15 C767.518,905.15 771.85,909.482 771.85,914.825 Z M814.85 924.5 L814.85 934.175 C814.85,939.518 810.518,943.85 805.175,943.85 L785.825 943.85 C780.482,943.85 776.15,939.518 776.15,934.175 L776.15 914.825 C776.15,909.482 780.482,905.15 785.825,905.15 L805.175 905.15 C810.518,905.15 814.85,909.482 814.85,914.825 Z M900.85 924.5 L900.85 934.175 C900.85,939.518 896.518,943.85 891.175,943.85 L871.825 943.85 C866.482,943.85 862.15,939.518 862.15,934.175 L862.15 914.825 C862.15,909.482 866.482,905.15 871.825,905.15 L891.175 905.15 C896.518,905.15 900.85,909.482 900.85,914.825 Z M943.85 924.5 L943.85 934.175 C943.85,939.518 939.518,943.85 934.175,943.85 L914.825 943.85 C909.482,943.85 905.15,939.518 905.15,934.175 L905.15 914.825 C905.15,909.482 909.482,905.15 914.825,905.15 L934.175 905.15 C939.518,905.15 943.85,909.482 943.85,914.825 Z " />
</svg>
