<?xml version="1.0" encoding="us-ascii" standalone="no"?><svg xmlns="http://www.w3.org/2000/svg" xmlns:xlink="http://www.w3.org/1999/xlink" contentStyleType="text/css" height="575px" preserveAspectRatio="none" style="width:847px;height:575px;" version="1.1" viewBox="0 0 847 575" width="847px" zoomAndPan="magnify"><defs/><g><!--cluster pyramid-subifd.tif--><g id="cluster_pyramid-subifd.tif"><path d="M6,8.5 L6,565.88 A2.5,2.5 0 0 0 8.5,568.38 L837.5,568.38 A2.5,2.5 0 0 0 840,565.88 L840,16 L830,6 L8.5,6 A2.5,2.5 0 0 0 6,8.5 " fill="none" style="stroke:#181818;stroke-width:1.0;"/><path d="M830,6 L830,13.5 A2.5,2.5 0 0 0 832.5,16 L840,16 " fill="none" style="stroke:#181818;stroke-width:1.0;"/><text fill="#000000" font-family="sans-serif" font-size="14" font-weight="bold" lengthAdjust="spacing" textLength="139" x="353.5" y="20.9951">pyramid-subifd.tif</text></g><!--cluster IFD0--><g id="cluster_IFD0"><path d="M425.5,49 L460.5,49 A3.75,3.75 0 0 1 463,51.5 L470,71.2969 L813.5,71.2969 A2.5,2.5 0 0 1 816,73.7969 L816,269.69 A2.5,2.5 0 0 1 813.5,272.19 L425.5,272.19 A2.5,2.5 0 0 1 423,269.69 L423,51.5 A2.5,2.5 0 0 1 425.5,49 " fill="#FFFFFF" style="stroke:#000000;stroke-width:1.5;"/><line style="stroke:#000000;stroke-width:1.5;" x1="423" x2="470" y1="71.2969" y2="71.2969"/><text fill="#000000" font-family="sans-serif" font-size="14" font-weight="bold" lengthAdjust="spacing" textLength="34" x="427" y="63.9951">IFD0</text></g><!--cluster IFDm0s0--><g id="cluster_IFDm0s0"><path d="M40.5,160.6 L65.5,160.6 A3.75,3.75 0 0 1 68,163.1 L75,182.8969 L388.5,182.8969 A2.5,2.5 0 0 1 391,185.3969 L391,421.29 A2.5,2.5 0 0 1 388.5,423.79 L40.5,423.79 A2.5,2.5 0 0 1 38,421.29 L38,163.1 A2.5,2.5 0 0 1 40.5,160.6 " fill="none" style="stroke:#000000;stroke-width:1.5;"/><line style="stroke:#000000;stroke-width:1.5;" x1="38" x2="75" y1="182.8969" y2="182.8969"/><text fill="#000000" font-family="sans-serif" font-size="14" font-weight="bold" lengthAdjust="spacing" textLength="24" x="42" y="175.5951">IFD</text></g><!--cluster IFDm0s1--><g id="cluster_IFDm0s1"><path d="M445.5,304.19 L470.5,304.19 A3.75,3.75 0 0 1 473,306.69 L480,326.4869 L793.5,326.4869 A2.5,2.5 0 0 1 796,328.9869 L796,533.88 A2.5,2.5 0 0 1 793.5,536.38 L445.5,536.38 A2.5,2.5 0 0 1 443,533.88 L443,306.69 A2.5,2.5 0 0 1 445.5,304.19 " fill="none" style="stroke:#000000;stroke-width:1.5;"/><line style="stroke:#000000;stroke-width:1.5;" x1="443" x2="480" y1="326.4869" y2="326.4869"/><text fill="#000000" font-family="sans-serif" font-size="14" font-weight="bold" lengthAdjust="spacing" textLength="24" x="447" y="319.1851">IFD</text></g><!--entity IFD0_Tag_SubfileType--><g id="elem_IFD0_Tag_SubfileType"><rect fill="#F1F1F1" height="52.5938" rx="2.5" ry="2.5" style="stroke:#181818;stroke-width:0.5;" width="133" x="667.5" y="84"/><path d="M678.5,97.4635 L678.5,100.9635 L684.3333,106.7969 L687.8333,103.2969 L682,97.4635 L678.5,97.4635 M680.8333,98.6302 C681.475,98.6302 682,99.1552 682,99.7969 C682,100.4385 681.475,100.9635 680.8333,100.9635 C680.1917,100.9635 679.6667,100.4385 679.6667,99.7969 C679.6667,99.1552 680.1917,98.6302 680.8333,98.6302 " fill="#000000" style="stroke:;stroke-width:0.0;stroke-dasharray:;"/><text fill="#000000" font-family="sans-serif" font-size="14" lengthAdjust="spacing" textLength="84" x="692.8333" y="106.9951">Subfile Type</text><text fill="#000000" font-family="sans-serif" font-size="14" font-weight="bold" lengthAdjust="spacing" textLength="113" x="677.5" y="123.292">Full-resolution</text></g><!--entity IFD0_Tag_Width--><g id="elem_IFD0_Tag_Width"><rect fill="#F1F1F1" height="52.5938" rx="2.5" ry="2.5" style="stroke:#181818;stroke-width:0.5;" width="74.3333" x="438.83" y="84"/><path d="M449.83,97.4635 L449.83,100.9635 L455.6633,106.7969 L459.1633,103.2969 L453.33,97.4635 L449.83,97.4635 M452.1633,98.6302 C452.805,98.6302 453.33,99.1552 453.33,99.7969 C453.33,100.4385 452.805,100.9635 452.1633,100.9635 C451.5217,100.9635 450.9967,100.4385 450.9967,99.7969 C450.9967,99.1552 451.5217,98.6302 452.1633,98.6302 " fill="#000000" style="stroke:;stroke-width:0.0;stroke-dasharray:;"/><text fill="#000000" font-family="sans-serif" font-size="14" lengthAdjust="spacing" textLength="39" x="464.1633" y="106.9951">Width</text><text fill="#000000" font-family="sans-serif" font-size="14" font-weight="bold" lengthAdjust="spacing" textLength="40" x="448.83" y="123.292">4096</text></g><!--entity IFD0_Tag_Height--><g id="elem_IFD0_Tag_Height"><rect fill="#F1F1F1" height="52.5938" rx="2.5" ry="2.5" style="stroke:#181818;stroke-width:0.5;" width="80.3333" x="514.83" y="203.6"/><path d="M525.83,217.0635 L525.83,220.5635 L531.6633,226.3969 L535.1633,222.8969 L529.33,217.0635 L525.83,217.0635 M528.1633,218.2302 C528.805,218.2302 529.33,218.7552 529.33,219.3969 C529.33,220.0385 528.805,220.5635 528.1633,220.5635 C527.5217,220.5635 526.9967,220.0385 526.9967,219.3969 C526.9967,218.7552 527.5217,218.2302 528.1633,218.2302 " fill="#000000" style="stroke:;stroke-width:0.0;stroke-dasharray:;"/><text fill="#000000" font-family="sans-serif" font-size="14" lengthAdjust="spacing" textLength="45" x="540.1633" y="226.5951">Height</text><text fill="#000000" font-family="sans-serif" font-size="14" font-weight="bold" lengthAdjust="spacing" textLength="40" x="524.83" y="242.892">2048</text></g><!--entity IFD0_Tag_SubIFD--><g id="elem_IFD0_Tag_SubIFD"><rect fill="#F1F1F1" height="36.2969" rx="2.5" ry="2.5" style="stroke:#181818;stroke-width:0.5;" width="84.3333" x="547.83" y="92.15"/><path d="M558.83,105.6135 L558.83,109.1135 L564.6633,114.9469 L568.1633,111.4469 L562.33,105.6135 L558.83,105.6135 M561.1633,106.7802 C561.805,106.7802 562.33,107.3052 562.33,107.9469 C562.33,108.5885 561.805,109.1135 561.1633,109.1135 C560.5217,109.1135 559.9967,108.5885 559.9967,107.9469 C559.9967,107.3052 560.5217,106.7802 561.1633,106.7802 " fill="#000000" style="stroke:;stroke-width:0.0;stroke-dasharray:;"/><text fill="#000000" font-family="sans-serif" font-size="14" lengthAdjust="spacing" textLength="49" x="573.1633" y="115.1451">SubIFD</text></g><!--entity IFD0_Data--><g id="elem_IFD0_Data"><rect fill="#F1F1F1" height="36.2969" rx="2.5" ry="2.5" style="stroke:#181818;stroke-width:0.5;" width="120.3333" x="629.83" y="211.75"/><path d="M640.83,225.2135 L640.83,234.5469 L650.1633,234.5469 L650.1633,225.2135 L640.83,225.2135 M641.9967,226.3802 L648.9967,226.3802 L648.9967,229.8802 L647.83,228.7135 L646.6633,229.8802 L648.9967,232.2135 L648.9967,233.3802 L647.83,233.3802 L643.1633,228.7135 L641.9967,229.8802 L641.9967,226.3802 " fill="#000000" style="stroke:;stroke-width:0.0;stroke-dasharray:;"/><text fill="#000000" font-family="sans-serif" font-size="14" lengthAdjust="spacing" textLength="4" x="651.1633" y="234.7451">&#160;</text><text fill="#000000" font-family="sans-serif" font-size="14" font-style="italic" lengthAdjust="spacing" textLength="85" x="655.1633" y="234.7451">Image Bytes</text></g><!--entity IFDm0s0_Tag_SubfileType--><g id="elem_IFDm0s0_Tag_SubfileType"><rect fill="#F1F1F1" height="52.5938" rx="2.5" ry="2.5" style="stroke:#181818;stroke-width:0.5;" width="175" x="62.5" y="203.6"/><path d="M73.5,217.0635 L73.5,220.5635 L79.3333,226.3969 L82.8333,222.8969 L77,217.0635 L73.5,217.0635 M75.8333,218.2302 C76.475,218.2302 77,218.7552 77,219.3969 C77,220.0385 76.475,220.5635 75.8333,220.5635 C75.1917,220.5635 74.6667,220.0385 74.6667,219.3969 C74.6667,218.7552 75.1917,218.2302 75.8333,218.2302 " fill="#000000" style="stroke:;stroke-width:0.0;stroke-dasharray:;"/><text fill="#000000" font-family="sans-serif" font-size="14" lengthAdjust="spacing" textLength="84" x="87.8333" y="226.5951">Subfile Type</text><text fill="#000000" font-family="sans-serif" font-size="14" font-weight="bold" lengthAdjust="spacing" textLength="155" x="72.5" y="242.892">Reduced-resolution</text></g><!--entity IFDm0s0_Tag_Width--><g id="elem_IFDm0s0_Tag_Width"><rect fill="#F1F1F1" height="52.5938" rx="2.5" ry="2.5" style="stroke:#181818;stroke-width:0.5;" width="74.3333" x="272.83" y="203.6"/><path d="M283.83,217.0635 L283.83,220.5635 L289.6633,226.3969 L293.1633,222.8969 L287.33,217.0635 L283.83,217.0635 M286.1633,218.2302 C286.805,218.2302 287.33,218.7552 287.33,219.3969 C287.33,220.0385 286.805,220.5635 286.1633,220.5635 C285.5217,220.5635 284.9967,220.0385 284.9967,219.3969 C284.9967,218.7552 285.5217,218.2302 286.1633,218.2302 " fill="#000000" style="stroke:;stroke-width:0.0;stroke-dasharray:;"/><text fill="#000000" font-family="sans-serif" font-size="14" lengthAdjust="spacing" textLength="39" x="298.1633" y="226.5951">Width</text><text fill="#000000" font-family="sans-serif" font-size="14" font-weight="bold" lengthAdjust="spacing" textLength="40" x="282.83" y="242.892">2048</text></g><!--entity IFDm0s0_Tag_Height--><g id="elem_IFDm0s0_Tag_Height"><rect fill="#F1F1F1" height="52.5938" rx="2.5" ry="2.5" style="stroke:#181818;stroke-width:0.5;" width="80.3333" x="109.83" y="347.19"/><path d="M120.83,360.6535 L120.83,364.1535 L126.6633,369.9869 L130.1633,366.4869 L124.33,360.6535 L120.83,360.6535 M123.1633,361.8202 C123.805,361.8202 124.33,362.3452 124.33,362.9869 C124.33,363.6285 123.805,364.1535 123.1633,364.1535 C122.5217,364.1535 121.9967,363.6285 121.9967,362.9869 C121.9967,362.3452 122.5217,361.8202 123.1633,361.8202 " fill="#000000" style="stroke:;stroke-width:0.0;stroke-dasharray:;"/><text fill="#000000" font-family="sans-serif" font-size="14" lengthAdjust="spacing" textLength="45" x="135.1633" y="370.1851">Height</text><text fill="#000000" font-family="sans-serif" font-size="14" font-weight="bold" lengthAdjust="spacing" textLength="40" x="119.83" y="386.482">1024</text></g><!--entity IFDm0s0_Data--><g id="elem_IFDm0s0_Data"><rect fill="#F1F1F1" height="36.2969" rx="2.5" ry="2.5" style="stroke:#181818;stroke-width:0.5;" width="120.3333" x="224.83" y="355.34"/><path d="M235.83,368.8035 L235.83,378.1369 L245.1633,378.1369 L245.1633,368.8035 L235.83,368.8035 M236.9967,369.9702 L243.9967,369.9702 L243.9967,373.4702 L242.83,372.3035 L241.6633,373.4702 L243.9967,375.8035 L243.9967,376.9702 L242.83,376.9702 L238.1633,372.3035 L236.9967,373.4702 L236.9967,369.9702 " fill="#000000" style="stroke:;stroke-width:0.0;stroke-dasharray:;"/><text fill="#000000" font-family="sans-serif" font-size="14" lengthAdjust="spacing" textLength="4" x="246.1633" y="378.3351">&#160;</text><text fill="#000000" font-family="sans-serif" font-size="14" font-style="italic" lengthAdjust="spacing" textLength="85" x="250.1633" y="378.3351">Image Bytes</text></g><!--entity IFDm0s1_Tag_SubfileType--><g id="elem_IFDm0s1_Tag_SubfileType"><rect fill="#F1F1F1" height="52.5938" rx="2.5" ry="2.5" style="stroke:#181818;stroke-width:0.5;" width="175" x="467.5" y="347.19"/><path d="M478.5,360.6535 L478.5,364.1535 L484.3333,369.9869 L487.8333,366.4869 L482,360.6535 L478.5,360.6535 M480.8333,361.8202 C481.475,361.8202 482,362.3452 482,362.9869 C482,363.6285 481.475,364.1535 480.8333,364.1535 C480.1917,364.1535 479.6667,363.6285 479.6667,362.9869 C479.6667,362.3452 480.1917,361.8202 480.8333,361.8202 " fill="#000000" style="stroke:;stroke-width:0.0;stroke-dasharray:;"/><text fill="#000000" font-family="sans-serif" font-size="14" lengthAdjust="spacing" textLength="84" x="492.8333" y="370.1851">Subfile Type</text><text fill="#000000" font-family="sans-serif" font-size="14" font-weight="bold" lengthAdjust="spacing" textLength="155" x="477.5" y="386.482">Reduced-resolution</text></g><!--entity IFDm0s1_Tag_Width--><g id="elem_IFDm0s1_Tag_Width"><rect fill="#F1F1F1" height="52.5938" rx="2.5" ry="2.5" style="stroke:#181818;stroke-width:0.5;" width="74.3333" x="677.83" y="347.19"/><path d="M688.83,360.6535 L688.83,364.1535 L694.6633,369.9869 L698.1633,366.4869 L692.33,360.6535 L688.83,360.6535 M691.1633,361.8202 C691.805,361.8202 692.33,362.3452 692.33,362.9869 C692.33,363.6285 691.805,364.1535 691.1633,364.1535 C690.5217,364.1535 689.9967,363.6285 689.9967,362.9869 C689.9967,362.3452 690.5217,361.8202 691.1633,361.8202 " fill="#000000" style="stroke:;stroke-width:0.0;stroke-dasharray:;"/><text fill="#000000" font-family="sans-serif" font-size="14" lengthAdjust="spacing" textLength="39" x="703.1633" y="370.1851">Width</text><text fill="#000000" font-family="sans-serif" font-size="14" font-weight="bold" lengthAdjust="spacing" textLength="40" x="687.83" y="386.482">1024</text></g><!--entity IFDm0s1_Tag_Height--><g id="elem_IFDm0s1_Tag_Height"><rect fill="#F1F1F1" height="52.5938" rx="2.5" ry="2.5" style="stroke:#181818;stroke-width:0.5;" width="80.3333" x="514.83" y="459.79"/><path d="M525.83,473.2535 L525.83,476.7535 L531.6633,482.5869 L535.1633,479.0869 L529.33,473.2535 L525.83,473.2535 M528.1633,474.4202 C528.805,474.4202 529.33,474.9452 529.33,475.5869 C529.33,476.2285 528.805,476.7535 528.1633,476.7535 C527.5217,476.7535 526.9967,476.2285 526.9967,475.5869 C526.9967,474.9452 527.5217,474.4202 528.1633,474.4202 " fill="#000000" style="stroke:;stroke-width:0.0;stroke-dasharray:;"/><text fill="#000000" font-family="sans-serif" font-size="14" lengthAdjust="spacing" textLength="45" x="540.1633" y="482.7851">Height</text><text fill="#000000" font-family="sans-serif" font-size="14" font-weight="bold" lengthAdjust="spacing" textLength="30" x="524.83" y="499.082">512</text></g><!--entity IFDm0s1_Data--><g id="elem_IFDm0s1_Data"><rect fill="#F1F1F1" height="36.2969" rx="2.5" ry="2.5" style="stroke:#181818;stroke-width:0.5;" width="120.3333" x="629.83" y="467.93"/><path d="M640.83,481.3935 L640.83,490.7269 L650.1633,490.7269 L650.1633,481.3935 L640.83,481.3935 M641.9967,482.5602 L648.9967,482.5602 L648.9967,486.0602 L647.83,484.8935 L646.6633,486.0602 L648.9967,488.3935 L648.9967,489.5602 L647.83,489.5602 L643.1633,484.8935 L641.9967,486.0602 L641.9967,482.5602 " fill="#000000" style="stroke:;stroke-width:0.0;stroke-dasharray:;"/><text fill="#000000" font-family="sans-serif" font-size="14" lengthAdjust="spacing" textLength="4" x="651.1633" y="490.9251">&#160;</text><text fill="#000000" font-family="sans-serif" font-size="14" font-style="italic" lengthAdjust="spacing" textLength="85" x="655.1633" y="490.9251">Image Bytes</text></g><!--link IFD0_Tag_SubIFD to IFDm0s0--><g id="link_IFD0_Tag_SubIFD_IFDm0s0"><path d="M554.14,128.9 C546.65,131.94 538.69,134.72 531,136.6 C507.62,142.31 442.85,130.99 423,144.6 C414.5825,150.37 407.8856,158.405 402.5722,167.2408 C399.9155,171.6587 397.6046,176.2768 395.5975,180.912 C394.5939,183.2296 393.6662,185.5516 392.8093,187.8549 C392.3808,189.0066 391.9699,190.1536 391.5761,191.2931 C391.4777,191.578 391.3803,191.8624 391.2839,192.1463 C391.2357,192.2882 393.1003,186.743 393.0526,186.8847 " fill="none" id="IFD0_Tag_SubIFD-to-IFDm0s0" style="stroke:#181818;stroke-width:1.0;"/><polygon fill="#181818" points="391.1402,192.5717,397.8002,185.3161,392.7339,187.8325,390.2174,182.7662,391.1402,192.5717" style="stroke:#181818;stroke-width:1.0;"/></g><!--link IFD0_Tag_SubIFD to IFDm0s1--><g id="link_IFD0_Tag_SubIFD_IFDm0s1"><path d="M626.48,128.93 C634.1,131.97 642.19,134.74 650,136.6 C662.79,139.64 758.62,135.4 768,144.6 C803.735,179.63 809.1375,235.3825 805.41,282.9738 C804.4781,294.8716 802.9756,306.2593 801.2338,316.6856 C800.3629,321.8988 799.4321,326.8716 798.4829,331.5477 C798.0084,333.8857 797.5292,336.1496 797.0505,338.3322 C796.8112,339.4235 796.5721,340.4945 796.3337,341.5443 C796.2741,341.8067 797.5538,336.2192 797.4943,336.479 " fill="none" id="IFD0_Tag_SubIFD-to-IFDm0s1" style="stroke:#181818;stroke-width:1.0;"/><polygon fill="#181818" points="796.1551,342.3276,802.063,334.4475,797.2711,337.4538,794.2648,332.6619,796.1551,342.3276" style="stroke:#181818;stroke-width:1.0;"/></g><!--SRC=[hP51Qy8m68Rl_HKV2Zi8NPFIoGR3moOohvjZbu5yDcaDnbIIz526_trfT0vhLwPRJX_ztlT9-zIiXDgWnZKiC5tbkYWLUonaeS5gLCQjkBA1EQIMrOPhATHg5-gJDC4XRmkyAkO73XbAmuCW4vB3fd8XmK9JBaJ6hgt8u2C0Tx92kZnC9sC2_SoV_QO-cgSMLUu0lVihY_a8Nig51yxSVUzgC9YKKeQQcqAMLXJkGG_GUDnyXlby7w_J7T0tmUoofYNaRjX4-6L7-OcBV6dhTaoIssPxj-t-81S-UMitjvV46dC-WYYQrWCyL9QRAFhkZz6YRsw3Xk1zP4qCEKlnCsTbobchvHfsYUXZLGVAxrrJ4YSjW2xTtUOyeYclyKSW34TVsP_jql-qIo-nUoA7dcdtXiOj_J_9fMV8fS7s4m00]--></g></svg>