<?xml version="1.0" encoding="us-ascii" standalone="no"?><svg xmlns="http://www.w3.org/2000/svg" xmlns:xlink="http://www.w3.org/1999/xlink" contentStyleType="text/css" height="616px" preserveAspectRatio="none" style="width:1323px;height:616px;" version="1.1" viewBox="0 0 1323 616" width="1323px" zoomAndPan="magnify"><defs/><g><!--cluster multipage-detail.tif--><g id="cluster_multipage-detail.tif"><path d="M6,8.5 L6,606.62 A2.5,2.5 0 0 0 8.5,609.12 L1313.5,609.12 A2.5,2.5 0 0 0 1316,606.62 L1316,16 L1306,6 L8.5,6 A2.5,2.5 0 0 0 6,8.5 " fill="none" style="stroke:#181818;stroke-width:1.0;"/><path d="M1306,6 L1306,13.5 A2.5,2.5 0 0 0 1308.5,16 L1316,16 " fill="none" style="stroke:#181818;stroke-width:1.0;"/><text fill="#000000" font-family="sans-serif" font-size="14" font-weight="bold" lengthAdjust="spacing" textLength="147" x="587.5" y="20.9951">multipage-detail.tif</text></g><!--cluster IFD0--><g id="cluster_IFD0"><path d="M32.5,49 L67.5,49 A3.75,3.75 0 0 1 70,51.5 L77,71.2969 L620.5,71.2969 A2.5,2.5 0 0 1 623,73.7969 L623,294.14 A2.5,2.5 0 0 1 620.5,296.64 L32.5,296.64 A2.5,2.5 0 0 1 30,294.14 L30,51.5 A2.5,2.5 0 0 1 32.5,49 " fill="#FFFFFF" style="stroke:#000000;stroke-width:1.5;"/><line style="stroke:#000000;stroke-width:1.5;" x1="30" x2="77" y1="71.2969" y2="71.2969"/><text fill="#000000" font-family="sans-serif" font-size="14" font-weight="bold" lengthAdjust="spacing" textLength="34" x="34" y="63.9951">IFD0</text></g><!--cluster IFD1--><g id="cluster_IFD1"><path d="M657.5,176.89 L692.5,176.89 A3.75,3.75 0 0 1 695,179.39 L702,199.1869 L1281.5,199.1869 A2.5,2.5 0 0 1 1284,201.6869 L1284,453.88 A2.5,2.5 0 0 1 1281.5,456.38 L657.5,456.38 A2.5,2.5 0 0 1 655,453.88 L655,179.39 A2.5,2.5 0 0 1 657.5,176.89 " fill="#FFFFFF" style="stroke:#000000;stroke-width:1.5;"/><line style="stroke:#000000;stroke-width:1.5;" x1="655" x2="702" y1="199.1869" y2="199.1869"/><text fill="#000000" font-family="sans-serif" font-size="14" font-weight="bold" lengthAdjust="spacing" textLength="34" x="659" y="191.8851">IFD1</text></g><!--cluster IFD2--><g id="cluster_IFD2"><path d="M100.5,328.64 L135.5,328.64 A3.75,3.75 0 0 1 138,331.14 L145,350.9369 L596.5,350.9369 A2.5,2.5 0 0 1 599,353.4369 L599,574.62 A2.5,2.5 0 0 1 596.5,577.12 L100.5,577.12 A2.5,2.5 0 0 1 98,574.62 L98,331.14 A2.5,2.5 0 0 1 100.5,328.64 " fill="#FFFFFF" style="stroke:#000000;stroke-width:1.5;"/><line style="stroke:#000000;stroke-width:1.5;" x1="98" x2="145" y1="350.9369" y2="350.9369"/><text fill="#000000" font-family="sans-serif" font-size="14" font-weight="bold" lengthAdjust="spacing" textLength="34" x="102" y="343.6351">IFD2</text></g><!--entity IFD0_Tag_NextIFD--><g id="elem_IFD0_Tag_NextIFD"><rect fill="#F1F1F1" height="36.2969" rx="2.5" ry="2.5" style="stroke:#181818;stroke-width:0.5;" width="92.3333" x="154.83" y="100.3"/><path d="M165.83,113.7635 L165.83,117.2635 L171.6633,123.0969 L175.1633,119.5969 L169.33,113.7635 L165.83,113.7635 M168.1633,114.9302 C168.805,114.9302 169.33,115.4552 169.33,116.0969 C169.33,116.7385 168.805,117.2635 168.1633,117.2635 C167.5217,117.2635 166.9967,116.7385 166.9967,116.0969 C166.9967,115.4552 167.5217,114.9302 168.1633,114.9302 " fill="#000000" style="stroke:;stroke-width:0.0;stroke-dasharray:;"/><text fill="#000000" font-family="sans-serif" font-size="14" lengthAdjust="spacing" textLength="57" x="180.1633" y="123.2951">Next IFD</text></g><!--entity IFD0_Tag_Width--><g id="elem_IFD0_Tag_Width"><rect fill="#F1F1F1" height="52.5938" rx="2.5" ry="2.5" style="stroke:#181818;stroke-width:0.5;" width="74.3333" x="45.83" y="92.15"/><path d="M56.83,105.6135 L56.83,109.1135 L62.6633,114.9469 L66.1633,111.4469 L60.33,105.6135 L56.83,105.6135 M59.1633,106.7802 C59.805,106.7802 60.33,107.3052 60.33,107.9469 C60.33,108.5885 59.805,109.1135 59.1633,109.1135 C58.5217,109.1135 57.9967,108.5885 57.9967,107.9469 C57.9967,107.3052 58.5217,106.7802 59.1633,106.7802 " fill="#000000" style="stroke:;stroke-width:0.0;stroke-dasharray:;"/><text fill="#000000" font-family="sans-serif" font-size="14" lengthAdjust="spacing" textLength="39" x="71.1633" y="115.1451">Width</text><text fill="#000000" font-family="sans-serif" font-size="14" font-weight="bold" lengthAdjust="spacing" textLength="30" x="55.83" y="131.442">612</text></g><!--entity IFD0_Tag_Height--><g id="elem_IFD0_Tag_Height"><rect fill="#F1F1F1" height="52.5938" rx="2.5" ry="2.5" style="stroke:#181818;stroke-width:0.5;" width="80.3333" x="281.83" y="92.15"/><path d="M292.83,105.6135 L292.83,109.1135 L298.6633,114.9469 L302.1633,111.4469 L296.33,105.6135 L292.83,105.6135 M295.1633,106.7802 C295.805,106.7802 296.33,107.3052 296.33,107.9469 C296.33,108.5885 295.805,109.1135 295.1633,109.1135 C294.5217,109.1135 293.9967,108.5885 293.9967,107.9469 C293.9967,107.3052 294.5217,106.7802 295.1633,106.7802 " fill="#000000" style="stroke:;stroke-width:0.0;stroke-dasharray:;"/><text fill="#000000" font-family="sans-serif" font-size="14" lengthAdjust="spacing" textLength="45" x="307.1633" y="115.1451">Height</text><text fill="#000000" font-family="sans-serif" font-size="14" font-weight="bold" lengthAdjust="spacing" textLength="30" x="291.83" y="131.442">792</text></g><!--entity IFD0_Tag_SubfileType--><g id="elem_IFD0_Tag_SubfileType"><rect fill="#F1F1F1" height="68.8906" rx="2.5" ry="2.5" style="stroke:#181818;stroke-width:0.5;" width="209" x="397.5" y="84"/><path d="M408.5,97.4635 L408.5,100.9635 L414.3333,106.7969 L417.8333,103.2969 L412,97.4635 L408.5,97.4635 M410.8333,98.6302 C411.475,98.6302 412,99.1552 412,99.7969 C412,100.4385 411.475,100.9635 410.8333,100.9635 C410.1917,100.9635 409.6667,100.4385 409.6667,99.7969 C409.6667,99.1552 410.1917,98.6302 410.8333,98.6302 " fill="#000000" style="stroke:;stroke-width:0.0;stroke-dasharray:;"/><text fill="#000000" font-family="sans-serif" font-size="14" lengthAdjust="spacing" textLength="84" x="422.8333" y="106.9951">Subfile Type</text><text fill="#000000" font-family="sans-serif" font-size="14" font-weight="bold" lengthAdjust="spacing" textLength="113" x="407.5" y="123.292">Full-resolution</text><text fill="#000000" font-family="sans-serif" font-size="14" font-weight="bold" lengthAdjust="spacing" textLength="189" x="407.5" y="139.5889">Single of multiple pages</text></g><!--entity IFD0_Tag_PageNumber--><g id="elem_IFD0_Tag_PageNumber"><rect fill="#F1F1F1" height="52.5938" rx="2.5" ry="2.5" style="stroke:#181818;stroke-width:0.5;" width="129.3333" x="78.33" y="228.04"/><path d="M89.33,241.5035 L89.33,245.0035 L95.1633,250.8369 L98.6633,247.3369 L92.83,241.5035 L89.33,241.5035 M91.6633,242.6702 C92.305,242.6702 92.83,243.1952 92.83,243.8369 C92.83,244.4785 92.305,245.0035 91.6633,245.0035 C91.0217,245.0035 90.4967,244.4785 90.4967,243.8369 C90.4967,243.1952 91.0217,242.6702 91.6633,242.6702 " fill="#000000" style="stroke:;stroke-width:0.0;stroke-dasharray:;"/><text fill="#000000" font-family="sans-serif" font-size="14" lengthAdjust="spacing" textLength="94" x="103.6633" y="251.0351">Page Number</text><text fill="#000000" font-family="sans-serif" font-size="14" font-weight="bold" lengthAdjust="spacing" textLength="10" x="88.33" y="267.332">1</text></g><!--entity IFD0_Data--><g id="elem_IFD0_Data"><rect fill="#F1F1F1" height="36.2969" rx="2.5" ry="2.5" style="stroke:#181818;stroke-width:0.5;" width="120.3333" x="242.83" y="236.19"/><path d="M253.83,249.6535 L253.83,258.9869 L263.1633,258.9869 L263.1633,249.6535 L253.83,249.6535 M254.9967,250.8202 L261.9967,250.8202 L261.9967,254.3202 L260.83,253.1535 L259.6633,254.3202 L261.9967,256.6535 L261.9967,257.8202 L260.83,257.8202 L256.1633,253.1535 L254.9967,254.3202 L254.9967,250.8202 " fill="#000000" style="stroke:;stroke-width:0.0;stroke-dasharray:;"/><text fill="#000000" font-family="sans-serif" font-size="14" lengthAdjust="spacing" textLength="4" x="264.1633" y="259.1851">&#160;</text><text fill="#000000" font-family="sans-serif" font-size="14" font-style="italic" lengthAdjust="spacing" textLength="85" x="268.1633" y="259.1851">Image Bytes</text></g><!--entity IFD1_Tag_NextIFD--><g id="elem_IFD1_Tag_NextIFD"><rect fill="#F1F1F1" height="36.2969" rx="2.5" ry="2.5" style="stroke:#181818;stroke-width:0.5;" width="92.3333" x="698.83" y="236.19"/><path d="M709.83,249.6535 L709.83,253.1535 L715.6633,258.9869 L719.1633,255.4869 L713.33,249.6535 L709.83,249.6535 M712.1633,250.8202 C712.805,250.8202 713.33,251.3452 713.33,251.9869 C713.33,252.6285 712.805,253.1535 712.1633,253.1535 C711.5217,253.1535 710.9967,252.6285 710.9967,251.9869 C710.9967,251.3452 711.5217,250.8202 712.1633,250.8202 " fill="#000000" style="stroke:;stroke-width:0.0;stroke-dasharray:;"/><text fill="#000000" font-family="sans-serif" font-size="14" lengthAdjust="spacing" textLength="57" x="724.1633" y="259.1851">Next IFD</text></g><!--entity IFD1_Tag_Width--><g id="elem_IFD1_Tag_Width"><rect fill="#F1F1F1" height="52.5938" rx="2.5" ry="2.5" style="stroke:#181818;stroke-width:0.5;" width="74.3333" x="825.83" y="228.04"/><path d="M836.83,241.5035 L836.83,245.0035 L842.6633,250.8369 L846.1633,247.3369 L840.33,241.5035 L836.83,241.5035 M839.1633,242.6702 C839.805,242.6702 840.33,243.1952 840.33,243.8369 C840.33,244.4785 839.805,245.0035 839.1633,245.0035 C838.5217,245.0035 837.9967,244.4785 837.9967,243.8369 C837.9967,243.1952 838.5217,242.6702 839.1633,242.6702 " fill="#000000" style="stroke:;stroke-width:0.0;stroke-dasharray:;"/><text fill="#000000" font-family="sans-serif" font-size="14" lengthAdjust="spacing" textLength="39" x="851.1633" y="251.0351">Width</text><text fill="#000000" font-family="sans-serif" font-size="14" font-weight="bold" lengthAdjust="spacing" textLength="30" x="835.83" y="267.332">612</text></g><!--entity IFD1_Tag_Height--><g id="elem_IFD1_Tag_Height"><rect fill="#F1F1F1" height="52.5938" rx="2.5" ry="2.5" style="stroke:#181818;stroke-width:0.5;" width="80.3333" x="934.83" y="228.04"/><path d="M945.83,241.5035 L945.83,245.0035 L951.6633,250.8369 L955.1633,247.3369 L949.33,241.5035 L945.83,241.5035 M948.1633,242.6702 C948.805,242.6702 949.33,243.1952 949.33,243.8369 C949.33,244.4785 948.805,245.0035 948.1633,245.0035 C947.5217,245.0035 946.9967,244.4785 946.9967,243.8369 C946.9967,243.1952 947.5217,242.6702 948.1633,242.6702 " fill="#000000" style="stroke:;stroke-width:0.0;stroke-dasharray:;"/><text fill="#000000" font-family="sans-serif" font-size="14" lengthAdjust="spacing" textLength="45" x="960.1633" y="251.0351">Height</text><text fill="#000000" font-family="sans-serif" font-size="14" font-weight="bold" lengthAdjust="spacing" textLength="30" x="944.83" y="267.332">792</text></g><!--entity IFD1_Tag_SubfileType--><g id="elem_IFD1_Tag_SubfileType"><rect fill="#F1F1F1" height="68.8906" rx="2.5" ry="2.5" style="stroke:#181818;stroke-width:0.5;" width="209" x="1050.5" y="219.89"/><path d="M1061.5,233.3535 L1061.5,236.8535 L1067.3333,242.6869 L1070.8333,239.1869 L1065,233.3535 L1061.5,233.3535 M1063.8333,234.5202 C1064.475,234.5202 1065,235.0452 1065,235.6869 C1065,236.3285 1064.475,236.8535 1063.8333,236.8535 C1063.1917,236.8535 1062.6667,236.3285 1062.6667,235.6869 C1062.6667,235.0452 1063.1917,234.5202 1063.8333,234.5202 " fill="#000000" style="stroke:;stroke-width:0.0;stroke-dasharray:;"/><text fill="#000000" font-family="sans-serif" font-size="14" lengthAdjust="spacing" textLength="84" x="1075.8333" y="242.8851">Subfile Type</text><text fill="#000000" font-family="sans-serif" font-size="14" font-weight="bold" lengthAdjust="spacing" textLength="113" x="1060.5" y="259.182">Full-resolution</text><text fill="#000000" font-family="sans-serif" font-size="14" font-weight="bold" lengthAdjust="spacing" textLength="189" x="1060.5" y="275.4789">Single of multiple pages</text></g><!--entity IFD1_Tag_PageNumber--><g id="elem_IFD1_Tag_PageNumber"><rect fill="#F1F1F1" height="52.5938" rx="2.5" ry="2.5" style="stroke:#181818;stroke-width:0.5;" width="129.3333" x="798.33" y="379.78"/><path d="M809.33,393.2435 L809.33,396.7435 L815.1633,402.5769 L818.6633,399.0769 L812.83,393.2435 L809.33,393.2435 M811.6633,394.4102 C812.305,394.4102 812.83,394.9352 812.83,395.5769 C812.83,396.2185 812.305,396.7435 811.6633,396.7435 C811.0217,396.7435 810.4967,396.2185 810.4967,395.5769 C810.4967,394.9352 811.0217,394.4102 811.6633,394.4102 " fill="#000000" style="stroke:;stroke-width:0.0;stroke-dasharray:;"/><text fill="#000000" font-family="sans-serif" font-size="14" lengthAdjust="spacing" textLength="94" x="823.6633" y="402.7751">Page Number</text><text fill="#000000" font-family="sans-serif" font-size="14" font-weight="bold" lengthAdjust="spacing" textLength="10" x="808.33" y="419.072">2</text></g><!--entity IFD1_Data--><g id="elem_IFD1_Data"><rect fill="#F1F1F1" height="36.2969" rx="2.5" ry="2.5" style="stroke:#181818;stroke-width:0.5;" width="120.3333" x="962.83" y="387.93"/><path d="M973.83,401.3935 L973.83,410.7269 L983.1633,410.7269 L983.1633,401.3935 L973.83,401.3935 M974.9967,402.5602 L981.9967,402.5602 L981.9967,406.0602 L980.83,404.8935 L979.6633,406.0602 L981.9967,408.3935 L981.9967,409.5602 L980.83,409.5602 L976.1633,404.8935 L974.9967,406.0602 L974.9967,402.5602 " fill="#000000" style="stroke:;stroke-width:0.0;stroke-dasharray:;"/><text fill="#000000" font-family="sans-serif" font-size="14" lengthAdjust="spacing" textLength="4" x="984.1633" y="410.9251">&#160;</text><text fill="#000000" font-family="sans-serif" font-size="14" font-style="italic" lengthAdjust="spacing" textLength="85" x="988.1633" y="410.9251">Image Bytes</text></g><!--entity IFD2_Tag_Width--><g id="elem_IFD2_Tag_Width"><rect fill="#F1F1F1" height="52.5938" rx="2.5" ry="2.5" style="stroke:#181818;stroke-width:0.5;" width="74.3333" x="121.83" y="379.78"/><path d="M132.83,393.2435 L132.83,396.7435 L138.6633,402.5769 L142.1633,399.0769 L136.33,393.2435 L132.83,393.2435 M135.1633,394.4102 C135.805,394.4102 136.33,394.9352 136.33,395.5769 C136.33,396.2185 135.805,396.7435 135.1633,396.7435 C134.5217,396.7435 133.9967,396.2185 133.9967,395.5769 C133.9967,394.9352 134.5217,394.4102 135.1633,394.4102 " fill="#000000" style="stroke:;stroke-width:0.0;stroke-dasharray:;"/><text fill="#000000" font-family="sans-serif" font-size="14" lengthAdjust="spacing" textLength="39" x="147.1633" y="402.7751">Width</text><text fill="#000000" font-family="sans-serif" font-size="14" font-weight="bold" lengthAdjust="spacing" textLength="30" x="131.83" y="419.072">612</text></g><!--entity IFD2_Tag_Height--><g id="elem_IFD2_Tag_Height"><rect fill="#F1F1F1" height="52.5938" rx="2.5" ry="2.5" style="stroke:#181818;stroke-width:0.5;" width="80.3333" x="230.83" y="379.78"/><path d="M241.83,393.2435 L241.83,396.7435 L247.6633,402.5769 L251.1633,399.0769 L245.33,393.2435 L241.83,393.2435 M244.1633,394.4102 C244.805,394.4102 245.33,394.9352 245.33,395.5769 C245.33,396.2185 244.805,396.7435 244.1633,396.7435 C243.5217,396.7435 242.9967,396.2185 242.9967,395.5769 C242.9967,394.9352 243.5217,394.4102 244.1633,394.4102 " fill="#000000" style="stroke:;stroke-width:0.0;stroke-dasharray:;"/><text fill="#000000" font-family="sans-serif" font-size="14" lengthAdjust="spacing" textLength="45" x="256.1633" y="402.7751">Height</text><text fill="#000000" font-family="sans-serif" font-size="14" font-weight="bold" lengthAdjust="spacing" textLength="30" x="240.83" y="419.072">792</text></g><!--entity IFD2_Tag_SubfileType--><g id="elem_IFD2_Tag_SubfileType"><rect fill="#F1F1F1" height="68.8906" rx="2.5" ry="2.5" style="stroke:#181818;stroke-width:0.5;" width="209" x="346.5" y="371.64"/><path d="M357.5,385.1035 L357.5,388.6035 L363.3333,394.4369 L366.8333,390.9369 L361,385.1035 L357.5,385.1035 M359.8333,386.2702 C360.475,386.2702 361,386.7952 361,387.4369 C361,388.0785 360.475,388.6035 359.8333,388.6035 C359.1917,388.6035 358.6667,388.0785 358.6667,387.4369 C358.6667,386.7952 359.1917,386.2702 359.8333,386.2702 " fill="#000000" style="stroke:;stroke-width:0.0;stroke-dasharray:;"/><text fill="#000000" font-family="sans-serif" font-size="14" lengthAdjust="spacing" textLength="84" x="371.8333" y="394.6351">Subfile Type</text><text fill="#000000" font-family="sans-serif" font-size="14" font-weight="bold" lengthAdjust="spacing" textLength="113" x="356.5" y="410.932">Full-resolution</text><text fill="#000000" font-family="sans-serif" font-size="14" font-weight="bold" lengthAdjust="spacing" textLength="189" x="356.5" y="427.2289">Single of multiple pages</text></g><!--entity IFD2_Tag_PageNumber--><g id="elem_IFD2_Tag_PageNumber"><rect fill="#F1F1F1" height="52.5938" rx="2.5" ry="2.5" style="stroke:#181818;stroke-width:0.5;" width="129.3333" x="122.33" y="500.53"/><path d="M133.33,513.9935 L133.33,517.4935 L139.1633,523.3269 L142.6633,519.8269 L136.83,513.9935 L133.33,513.9935 M135.6633,515.1602 C136.305,515.1602 136.83,515.6852 136.83,516.3269 C136.83,516.9685 136.305,517.4935 135.6633,517.4935 C135.0217,517.4935 134.4967,516.9685 134.4967,516.3269 C134.4967,515.6852 135.0217,515.1602 135.6633,515.1602 " fill="#000000" style="stroke:;stroke-width:0.0;stroke-dasharray:;"/><text fill="#000000" font-family="sans-serif" font-size="14" lengthAdjust="spacing" textLength="94" x="147.6633" y="523.5251">Page Number</text><text fill="#000000" font-family="sans-serif" font-size="14" font-weight="bold" lengthAdjust="spacing" textLength="10" x="132.33" y="539.822">3</text></g><!--entity IFD2_Data--><g id="elem_IFD2_Data"><rect fill="#F1F1F1" height="36.2969" rx="2.5" ry="2.5" style="stroke:#181818;stroke-width:0.5;" width="120.3333" x="286.83" y="508.67"/><path d="M297.83,522.1335 L297.83,531.4669 L307.1633,531.4669 L307.1633,522.1335 L297.83,522.1335 M298.9967,523.3002 L305.9967,523.3002 L305.9967,526.8002 L304.83,525.6335 L303.6633,526.8002 L305.9967,529.1335 L305.9967,530.3002 L304.83,530.3002 L300.1633,525.6335 L298.9967,526.8002 L298.9967,523.3002 " fill="#000000" style="stroke:;stroke-width:0.0;stroke-dasharray:;"/><text fill="#000000" font-family="sans-serif" font-size="14" lengthAdjust="spacing" textLength="4" x="308.1633" y="531.6651">&#160;</text><text fill="#000000" font-family="sans-serif" font-size="14" font-style="italic" lengthAdjust="spacing" textLength="85" x="312.1633" y="531.6651">Image Bytes</text></g><!--link IFD0_Tag_NextIFD to IFD1--><g id="link_IFD0_Tag_NextIFD_IFD1"><path d="M227.46,137.03 C238.31,143.28 251.3,149.58 264,152.89 C283.3,157.93 606.45,149.76 623,160.89 C632.14,167.0425 639.2037,175.7656 644.6597,185.4216 C647.3877,190.2495 649.7137,195.3107 651.6963,200.4004 C652.6876,202.9452 653.5931,205.4971 654.42,208.0306 C654.5234,208.3473 654.6255,208.6637 654.7264,208.9797 C654.7769,209.1378 653.0199,203.5743 653.0698,203.7322 " fill="none" id="IFD0_Tag_NextIFD-to-IFD1" style="stroke:#181818;stroke-width:1.0;stroke-dasharray:7.0,7.0;"/><polygon fill="#181818" points="654.8769,209.4536,655.9805,199.6667,653.371,204.6857,648.3519,202.0762,654.8769,209.4536" style="stroke:#181818;stroke-width:1.0;"/></g><!--link IFD1_Tag_NextIFD to IFD2--><g id="link_IFD1_Tag_NextIFD_IFD2"><path d="M729.08,272.6 C719.6,282.46 707.1,294.79 695,304.64 C690.03,308.68 687.95,308.57 683,312.64 C661.31,330.465 639.0475,352.71 621.8563,370.9113 C613.2606,380.0119 605.9328,388.1016 600.5783,394.1223 C600.2436,394.4986 599.9167,394.8669 599.5976,395.2267 C599.4381,395.4067 603.2576,391.092 603.102,391.2677 " fill="none" id="IFD1_Tag_NextIFD-to-IFD2" style="stroke:#181818;stroke-width:1.0;stroke-dasharray:7.0,7.0;"/><polygon fill="#181818" points="599.1249,395.7603,608.0856,391.6729,602.4392,392.0165,602.0955,386.3701,599.1249,395.7603" style="stroke:#181818;stroke-width:1.0;"/></g><!--SRC=[lPDHQy8m58NV-oik2dieQ4qs78FXmoOoNsIWOoy3kTgq1jD4aXGcm_- -9Ch6QYd3WdcwlUUUat0_QhPSxb1Z0IjSRtEjIfa-Aw4qM8tIE8b96vcVgSr-nxJWSdiSwWxMTpXaTGDlCWq5Wmo5OL6KSS6WA8NbEynPBsKMkUXRdi5N1EvaIZW7J2VZ0NIpS4wAFvgjBShSHNGURopc8vYnJ-kdEu0ck9OBp9U-wpuQVEyyjPiF6ST3GkFuhpje3TuNnlEDzURxXpFpKMnmpyjLMCB2xSXdJ4eXUfeP9KhBbMluvfm7ZyfEktArtvUftdOAyraDLxuwAypAOiMq3oVL5AyVvVeGNhY14IJ9r1VmjBVC9CblnXWj1kSXga0a5q4ahI2IDX39LI6Ioo6UlRaTH786iVepGRy_2fDLnlHVZEjPqJQiw5LPqSjPtLPJsh6YTQn87IiQ7Ru1]--></g></svg>