<?xml version="1.0" encoding="us-ascii" standalone="no"?><svg xmlns="http://www.w3.org/2000/svg" xmlns:xlink="http://www.w3.org/1999/xlink" contentStyleType="text/css" height="746px" preserveAspectRatio="none" style="width:635px;height:746px;" version="1.1" viewBox="0 0 635 746" width="635px" zoomAndPan="magnify"><defs/><g><!--cluster ome.tif--><g id="cluster_ome.tif"><path d="M6,8.5 L6,737.02 A2.5,2.5 0 0 0 8.5,739.52 L625.5,739.52 A2.5,2.5 0 0 0 628,737.02 L628,16 L618,6 L8.5,6 A2.5,2.5 0 0 0 6,8.5 " fill="none" style="stroke:#181818;stroke-width:1.0;"/><path d="M618,6 L618,13.5 A2.5,2.5 0 0 0 620.5,16 L628,16 " fill="none" style="stroke:#181818;stroke-width:1.0;"/><text fill="#000000" font-family="sans-serif" font-size="14" font-weight="bold" lengthAdjust="spacing" textLength="55" x="289.5" y="20.9951">ome.tif</text></g><!--cluster IFD0--><g id="cluster_IFD0"><path d="M32.5,49 L67.5,49 A3.75,3.75 0 0 1 70,51.5 L77,71.2969 L495.5,71.2969 A2.5,2.5 0 0 1 498,73.7969 L498,133.79 A2.5,2.5 0 0 1 495.5,136.29 L32.5,136.29 A2.5,2.5 0 0 1 30,133.79 L30,51.5 A2.5,2.5 0 0 1 32.5,49 " fill="#FFFFFF" style="stroke:#000000;stroke-width:1.5;"/><line style="stroke:#000000;stroke-width:1.5;" x1="30" x2="77" y1="71.2969" y2="71.2969"/><text fill="#000000" font-family="sans-serif" font-size="14" font-weight="bold" lengthAdjust="spacing" textLength="34" x="34" y="63.9951">IFD0</text></g><!--cluster IFD1--><g id="cluster_IFD1"><path d="M290.5,177.11 L325.5,177.11 A3.75,3.75 0 0 1 328,179.61 L335,199.4069 L593.5,199.4069 A2.5,2.5 0 0 1 596,201.9069 L596,277.91 A2.5,2.5 0 0 1 593.5,280.41 L290.5,280.41 A2.5,2.5 0 0 1 288,277.91 L288,179.61 A2.5,2.5 0 0 1 290.5,177.11 " fill="#FFFFFF" style="stroke:#000000;stroke-width:1.5;"/><line style="stroke:#000000;stroke-width:1.5;" x1="288" x2="335" y1="199.4069" y2="199.4069"/><text fill="#000000" font-family="sans-serif" font-size="14" font-weight="bold" lengthAdjust="spacing" textLength="34" x="292" y="192.1051">IFD1</text></g><!--cluster IFD2--><g id="cluster_IFD2"><path d="M290.5,430.57 L325.5,430.57 A3.75,3.75 0 0 1 328,433.07 L335,452.8669 L593.5,452.8669 A2.5,2.5 0 0 1 596,455.3669 L596,531.37 A2.5,2.5 0 0 1 593.5,533.87 L290.5,533.87 A2.5,2.5 0 0 1 288,531.37 L288,433.07 A2.5,2.5 0 0 1 290.5,430.57 " fill="#FFFFFF" style="stroke:#000000;stroke-width:1.5;"/><line style="stroke:#000000;stroke-width:1.5;" x1="288" x2="335" y1="452.8669" y2="452.8669"/><text fill="#000000" font-family="sans-serif" font-size="14" font-weight="bold" lengthAdjust="spacing" textLength="34" x="292" y="445.5651">IFD2</text></g><!--entity IFDnext--><g id="elem_IFDnext"><text fill="#000000" font-family="sans-serif" font-size="14" lengthAdjust="spacing" textLength="12" x="520" y="710.2151">...</text></g><g id="elem_IFD0_Tag_ImageDescription_Value"><path d="M21.5,180.29 L21.5,296.2197 L260.5,296.2197 L260.5,190.29 L250.5,180.29 L21.5,180.29 " fill="#FFFFFF" style="stroke:#181818;stroke-width:0.5;"/><path d="M250.5,180.29 L250.5,190.29 L260.5,190.29 L250.5,180.29 " fill="#FFFFFF" style="stroke:#181818;stroke-width:1.0;"/><text fill="#000000" font-family="sans-serif" font-size="13" lengthAdjust="spacing" textLength="16" x="27.5" y="197.3569">&lt;!</text><text fill="#000000" font-family="sans-serif" font-size="13" lengthAdjust="spacing" text-decoration="line-through" textLength="12" x="47.5" y="197.3569">...</text><text fill="#000000" font-family="sans-serif" font-size="13" lengthAdjust="spacing" textLength="11" x="63.5" y="197.3569">&gt;</text><text fill="#000000" font-family="sans-serif" font-size="13" lengthAdjust="spacing" textLength="63" x="27.5" y="212.4897">&lt;Pixels ...</text><text fill="#000000" font-family="sans-serif" font-size="13" lengthAdjust="spacing" textLength="166" x="43.5" y="227.6225">DimensionOrder="XYZTC"</text><text fill="#000000" font-family="sans-serif" font-size="13" lengthAdjust="spacing" textLength="202" x="43.5" y="242.7553">SizeZ="3" SizeT="2" SizeC="2"</text><text fill="#000000" font-family="sans-serif" font-size="13" lengthAdjust="spacing" textLength="11" x="27.5" y="257.8881">&gt;</text><text fill="#000000" font-family="sans-serif" font-size="13" lengthAdjust="spacing" textLength="79" x="43.5" y="273.021">&lt;TiffData /&gt;</text><text fill="#000000" font-family="sans-serif" font-size="13" lengthAdjust="spacing" textLength="62" x="27.5" y="288.1538">&lt;/Pixels&gt;</text></g><g id="elem_IFD0_Tag_ImageDescription_Value_TiffDataMap"><rect fill="#F1F1F1" height="263.8594" style="stroke:#181818;stroke-width:0.5;" width="172" x="55" y="360.22"/><text fill="#000000" font-family="sans-serif" font-size="14" lengthAdjust="spacing" textLength="133" x="74.5" y="375.2151">IFD Dimension Map</text><line style="stroke:#181818;stroke-width:1.0;" x1="55" x2="227" y1="380.5169" y2="380.5169"/><text fill="#000000" font-family="sans-serif" font-size="14" font-weight="bold" lengthAdjust="spacing" textLength="34" x="65" y="395.512">IFD0</text><text fill="#000000" font-family="sans-serif" font-size="14" lengthAdjust="spacing" textLength="108" x="114" y="395.512">Z=0, T=0, C=0</text><line style="stroke:#181818;stroke-width:1.0;" x1="109" x2="109" y1="380.5169" y2="400.8137"/><line style="stroke:#181818;stroke-width:1.0;" x1="55" x2="227" y1="400.8137" y2="400.8137"/><text fill="#000000" font-family="sans-serif" font-size="14" font-weight="bold" lengthAdjust="spacing" textLength="34" x="65" y="415.8089">IFD1</text><text fill="#000000" font-family="sans-serif" font-size="14" lengthAdjust="spacing" textLength="108" x="114" y="415.8089">Z=1, T=0, C=0</text><line style="stroke:#181818;stroke-width:1.0;" x1="109" x2="109" y1="400.8137" y2="421.1106"/><line style="stroke:#181818;stroke-width:1.0;" x1="55" x2="227" y1="421.1106" y2="421.1106"/><text fill="#000000" font-family="sans-serif" font-size="14" font-weight="bold" lengthAdjust="spacing" textLength="34" x="65" y="436.1057">IFD2</text><text fill="#000000" font-family="sans-serif" font-size="14" lengthAdjust="spacing" textLength="108" x="114" y="436.1057">Z=2, T=0, C=0</text><line style="stroke:#181818;stroke-width:1.0;" x1="109" x2="109" y1="421.1106" y2="441.4075"/><line style="stroke:#181818;stroke-width:1.0;" x1="55" x2="227" y1="441.4075" y2="441.4075"/><text fill="#000000" font-family="sans-serif" font-size="14" font-weight="bold" lengthAdjust="spacing" textLength="34" x="65" y="456.4026">IFD3</text><text fill="#000000" font-family="sans-serif" font-size="14" lengthAdjust="spacing" textLength="108" x="114" y="456.4026">Z=0, T=1, C=0</text><line style="stroke:#181818;stroke-width:1.0;" x1="109" x2="109" y1="441.4075" y2="461.7044"/><line style="stroke:#181818;stroke-width:1.0;" x1="55" x2="227" y1="461.7044" y2="461.7044"/><text fill="#000000" font-family="sans-serif" font-size="14" font-weight="bold" lengthAdjust="spacing" textLength="34" x="65" y="476.6995">IFD4</text><text fill="#000000" font-family="sans-serif" font-size="14" lengthAdjust="spacing" textLength="108" x="114" y="476.6995">Z=1, T=1, C=0</text><line style="stroke:#181818;stroke-width:1.0;" x1="109" x2="109" y1="461.7044" y2="482.0012"/><line style="stroke:#181818;stroke-width:1.0;" x1="55" x2="227" y1="482.0012" y2="482.0012"/><text fill="#000000" font-family="sans-serif" font-size="14" font-weight="bold" lengthAdjust="spacing" textLength="34" x="65" y="496.9964">IFD5</text><text fill="#000000" font-family="sans-serif" font-size="14" lengthAdjust="spacing" textLength="108" x="114" y="496.9964">Z=2, T=1, C=0</text><line style="stroke:#181818;stroke-width:1.0;" x1="109" x2="109" y1="482.0012" y2="502.2981"/><line style="stroke:#181818;stroke-width:1.0;" x1="55" x2="227" y1="502.2981" y2="502.2981"/><text fill="#000000" font-family="sans-serif" font-size="14" font-weight="bold" lengthAdjust="spacing" textLength="34" x="65" y="517.2932">IFD6</text><text fill="#000000" font-family="sans-serif" font-size="14" lengthAdjust="spacing" textLength="108" x="114" y="517.2932">Z=0, T=0, C=1</text><line style="stroke:#181818;stroke-width:1.0;" x1="109" x2="109" y1="502.2981" y2="522.595"/><line style="stroke:#181818;stroke-width:1.0;" x1="55" x2="227" y1="522.595" y2="522.595"/><text fill="#000000" font-family="sans-serif" font-size="14" font-weight="bold" lengthAdjust="spacing" textLength="34" x="65" y="537.5901">IFD7</text><text fill="#000000" font-family="sans-serif" font-size="14" lengthAdjust="spacing" textLength="108" x="114" y="537.5901">Z=1, T=0, C=1</text><line style="stroke:#181818;stroke-width:1.0;" x1="109" x2="109" y1="522.595" y2="542.8919"/><line style="stroke:#181818;stroke-width:1.0;" x1="55" x2="227" y1="542.8919" y2="542.8919"/><text fill="#000000" font-family="sans-serif" font-size="14" font-weight="bold" lengthAdjust="spacing" textLength="34" x="65" y="557.887">IFD8</text><text fill="#000000" font-family="sans-serif" font-size="14" lengthAdjust="spacing" textLength="108" x="114" y="557.887">Z=2, T=0, C=1</text><line style="stroke:#181818;stroke-width:1.0;" x1="109" x2="109" y1="542.8919" y2="563.1888"/><line style="stroke:#181818;stroke-width:1.0;" x1="55" x2="227" y1="563.1888" y2="563.1888"/><text fill="#000000" font-family="sans-serif" font-size="14" font-weight="bold" lengthAdjust="spacing" textLength="34" x="65" y="578.1839">IFD9</text><text fill="#000000" font-family="sans-serif" font-size="14" lengthAdjust="spacing" textLength="108" x="114" y="578.1839">Z=0, T=1, C=1</text><line style="stroke:#181818;stroke-width:1.0;" x1="109" x2="109" y1="563.1888" y2="583.4856"/><line style="stroke:#181818;stroke-width:1.0;" x1="55" x2="227" y1="583.4856" y2="583.4856"/><text fill="#000000" font-family="sans-serif" font-size="14" font-weight="bold" lengthAdjust="spacing" textLength="44" x="60" y="598.4807">IFD10</text><text fill="#000000" font-family="sans-serif" font-size="14" lengthAdjust="spacing" textLength="108" x="114" y="598.4807">Z=1, T=1, C=1</text><line style="stroke:#181818;stroke-width:1.0;" x1="109" x2="109" y1="583.4856" y2="603.7825"/><line style="stroke:#181818;stroke-width:1.0;" x1="55" x2="227" y1="603.7825" y2="603.7825"/><text fill="#000000" font-family="sans-serif" font-size="14" font-weight="bold" lengthAdjust="spacing" textLength="44" x="60" y="618.7776">IFD11</text><text fill="#000000" font-family="sans-serif" font-size="14" lengthAdjust="spacing" textLength="108" x="114" y="618.7776">Z=2, T=1, C=1</text><line style="stroke:#181818;stroke-width:1.0;" x1="109" x2="109" y1="603.7825" y2="624.0794"/></g><!--entity IFD0_Tag_ImageDescription--><g id="elem_IFD0_Tag_ImageDescription"><rect fill="#F1F1F1" height="36.2969" rx="2.5" ry="2.5" style="stroke:#181818;stroke-width:0.5;" width="160.3333" x="194.83" y="84"/><path d="M205.83,97.4635 L205.83,100.9635 L211.6633,106.7969 L215.1633,103.2969 L209.33,97.4635 L205.83,97.4635 M208.1633,98.6302 C208.805,98.6302 209.33,99.1552 209.33,99.7969 C209.33,100.4385 208.805,100.9635 208.1633,100.9635 C207.5217,100.9635 206.9967,100.4385 206.9967,99.7969 C206.9967,99.1552 207.5217,98.6302 208.1633,98.6302 " fill="#000000" style="stroke:;stroke-width:0.0;stroke-dasharray:;"/><text fill="#000000" font-family="sans-serif" font-size="14" lengthAdjust="spacing" textLength="125" x="220.1633" y="106.9951">Image Description</text></g><!--entity IFD0_Tag_NextIFD--><g id="elem_IFD0_Tag_NextIFD"><rect fill="#F1F1F1" height="36.2969" rx="2.5" ry="2.5" style="stroke:#181818;stroke-width:0.5;" width="92.3333" x="389.83" y="84"/><path d="M400.83,97.4635 L400.83,100.9635 L406.6633,106.7969 L410.1633,103.2969 L404.33,97.4635 L400.83,97.4635 M403.1633,98.6302 C403.805,98.6302 404.33,99.1552 404.33,99.7969 C404.33,100.4385 403.805,100.9635 403.1633,100.9635 C402.5217,100.9635 401.9967,100.4385 401.9967,99.7969 C401.9967,99.1552 402.5217,98.6302 403.1633,98.6302 " fill="#000000" style="stroke:;stroke-width:0.0;stroke-dasharray:;"/><text fill="#000000" font-family="sans-serif" font-size="14" lengthAdjust="spacing" textLength="57" x="415.1633" y="106.9951">Next IFD</text></g><!--entity IFD0_Data--><g id="elem_IFD0_Data"><rect fill="#F1F1F1" height="36.2969" rx="2.5" ry="2.5" style="stroke:#181818;stroke-width:0.5;" width="113.3333" x="46.33" y="84"/><path d="M57.33,97.4635 L57.33,106.7969 L66.6633,106.7969 L66.6633,97.4635 L57.33,97.4635 M58.4967,98.6302 L65.4967,98.6302 L65.4967,102.1302 L64.33,100.9635 L63.1633,102.1302 L65.4967,104.4635 L65.4967,105.6302 L64.33,105.6302 L59.6633,100.9635 L58.4967,102.1302 L58.4967,98.6302 " fill="#000000" style="stroke:;stroke-width:0.0;stroke-dasharray:;"/><text fill="#000000" font-family="sans-serif" font-size="14" lengthAdjust="spacing" textLength="78" x="71.6633" y="106.9951">Image Data</text></g><!--entity IFD1_Tag_NextIFD--><g id="elem_IFD1_Tag_NextIFD"><rect fill="#F1F1F1" height="36.2969" rx="2.5" ry="2.5" style="stroke:#181818;stroke-width:0.5;" width="92.3333" x="479.83" y="220.11"/><path d="M490.83,233.5735 L490.83,237.0735 L496.6633,242.9069 L500.1633,239.4069 L494.33,233.5735 L490.83,233.5735 M493.1633,234.7402 C493.805,234.7402 494.33,235.2652 494.33,235.9069 C494.33,236.5485 493.805,237.0735 493.1633,237.0735 C492.5217,237.0735 491.9967,236.5485 491.9967,235.9069 C491.9967,235.2652 492.5217,234.7402 493.1633,234.7402 " fill="#000000" style="stroke:;stroke-width:0.0;stroke-dasharray:;"/><text fill="#000000" font-family="sans-serif" font-size="14" lengthAdjust="spacing" textLength="57" x="505.1633" y="243.1051">Next IFD</text></g><!--entity IFD1_Data--><g id="elem_IFD1_Data"><rect fill="#F1F1F1" height="36.2969" rx="2.5" ry="2.5" style="stroke:#181818;stroke-width:0.5;" width="113.3333" x="331.33" y="220.11"/><path d="M342.33,233.5735 L342.33,242.9069 L351.6633,242.9069 L351.6633,233.5735 L342.33,233.5735 M343.4967,234.7402 L350.4967,234.7402 L350.4967,238.2402 L349.33,237.0735 L348.1633,238.2402 L350.4967,240.5735 L350.4967,241.7402 L349.33,241.7402 L344.6633,237.0735 L343.4967,238.2402 L343.4967,234.7402 " fill="#000000" style="stroke:;stroke-width:0.0;stroke-dasharray:;"/><text fill="#000000" font-family="sans-serif" font-size="14" lengthAdjust="spacing" textLength="78" x="356.6633" y="243.1051">Image Data</text></g><!--entity IFD2_Tag_NextIFD--><g id="elem_IFD2_Tag_NextIFD"><rect fill="#F1F1F1" height="36.2969" rx="2.5" ry="2.5" style="stroke:#181818;stroke-width:0.5;" width="92.3333" x="479.83" y="473.57"/><path d="M490.83,487.0335 L490.83,490.5335 L496.6633,496.3669 L500.1633,492.8669 L494.33,487.0335 L490.83,487.0335 M493.1633,488.2002 C493.805,488.2002 494.33,488.7252 494.33,489.3669 C494.33,490.0085 493.805,490.5335 493.1633,490.5335 C492.5217,490.5335 491.9967,490.0085 491.9967,489.3669 C491.9967,488.7252 492.5217,488.2002 493.1633,488.2002 " fill="#000000" style="stroke:;stroke-width:0.0;stroke-dasharray:;"/><text fill="#000000" font-family="sans-serif" font-size="14" lengthAdjust="spacing" textLength="57" x="505.1633" y="496.5651">Next IFD</text></g><!--entity IFD2_Data--><g id="elem_IFD2_Data"><rect fill="#F1F1F1" height="36.2969" rx="2.5" ry="2.5" style="stroke:#181818;stroke-width:0.5;" width="113.3333" x="331.33" y="473.57"/><path d="M342.33,487.0335 L342.33,496.3669 L351.6633,496.3669 L351.6633,487.0335 L342.33,487.0335 M343.4967,488.2002 L350.4967,488.2002 L350.4967,491.7002 L349.33,490.5335 L348.1633,491.7002 L350.4967,494.0335 L350.4967,495.2002 L349.33,495.2002 L344.6633,490.5335 L343.4967,491.7002 L343.4967,488.2002 " fill="#000000" style="stroke:;stroke-width:0.0;stroke-dasharray:;"/><text fill="#000000" font-family="sans-serif" font-size="14" lengthAdjust="spacing" textLength="78" x="356.6633" y="496.5651">Image Data</text></g><!--link IFD0_Tag_NextIFD to IFD1--><g id="link_IFD0_Tag_NextIFD_IFD1"><path d="M412.74,120.72 C401.24,128.77 386.89,137.92 373,144.29 C348.61,155.49 333.62,141.78 315,161.11 C312.07,164.1525 309.5709,167.5747 307.4414,171.24 C306.3767,173.0727 307.9038,169.5115 307.0161,171.4486 " fill="none" id="IFD0_Tag_NextIFD-to-IFD1" style="stroke:#181818;stroke-width:1.0;stroke-dasharray:7.0,7.0;"/><polygon fill="#181818" points="304.5166,176.9032,311.9022,170.3876,306.5995,172.3577,304.6294,167.055,304.5166,176.9032" style="stroke:#181818;stroke-width:1.0;"/></g><!--link IFD1_Tag_NextIFD to IFD2--><g id="link_IFD1_Tag_NextIFD_IFD2"><path d="M509.65,256.77 C497.43,269.08 479.82,285.29 462,296.41 C402.15,333.74 358.38,300.6 315,356.22 C310.4325,362.0775 306.9625,373.1981 304.3264,386.6366 C303.0084,393.3558 301.8988,400.6545 300.9647,408.1644 C300.4977,411.9194 300.0746,415.7272 299.6912,419.5418 C299.4995,421.4491 299.3178,423.3581 299.1455,425.2631 C299.0593,426.2155 298.9755,427.167 298.894,428.1167 C298.8532,428.5916 298.813,429.066 298.7734,429.5399 C298.7536,429.7769 299.2273,424.034 299.2078,424.2707 " fill="none" id="IFD1_Tag_NextIFD-to-IFD2" style="stroke:#181818;stroke-width:1.0;stroke-dasharray:7.0,7.0;"/><polygon fill="#181818" points="298.7144,430.2504,303.4409,421.6098,299.1255,425.2673,295.468,420.952,298.7144,430.2504" style="stroke:#181818;stroke-width:1.0;"/></g><!--link IFD2_Tag_NextIFD to IFDnext--><g id="link_IFD2_Tag_NextIFD_IFDnext"><path d="M526,510.04 C526,549.73 526,640.89 526,680.81 " fill="none" id="IFD2_Tag_NextIFD-to-IFDnext" style="stroke:#181818;stroke-width:1.0;stroke-dasharray:7.0,7.0;"/><polygon fill="#181818" points="526,686.81,530,677.81,526,681.81,522,677.81,526,686.81" style="stroke:#181818;stroke-width:1.0;"/></g><!--link IFD0_Tag_ImageDescription to IFD0_Tag_ImageDescription_Value--><g id="link_IFD0_Tag_ImageDescription_IFD0_Tag_ImageDescription_Value"><path d="M257.48,120.68 C242.37,135.8 223.9107,154.2754 202.5607,175.6454 " fill="none" id="IFD0_Tag_ImageDescription-to-IFD0_Tag_ImageDescription_Value" style="stroke:#181818;stroke-width:1.0;"/><polygon fill="#181818" points="198.32,179.89,207.5107,176.3502,201.8539,176.3528,201.8512,170.696,198.32,179.89" style="stroke:#181818;stroke-width:1.0;"/></g><!--link IFD0_Tag_ImageDescription_Value to IFD0_Tag_ImageDescription_Value_TiffDataMap--><g id="link_IFD0_Tag_ImageDescription_Value_IFD0_Tag_ImageDescription_Value_TiffDataMap"><path d="M141,296.63 C141,314.61 141,329.26 141,350.24 " fill="none" id="IFD0_Tag_ImageDescription_Value-to-IFD0_Tag_ImageDescription_Value_TiffDataMap" style="stroke:#181818;stroke-width:1.0;stroke-dasharray:7.0,7.0;"/><polygon fill="#181818" points="141,356.24,145,347.24,141,351.24,137,347.24,141,356.24" style="stroke:#181818;stroke-width:1.0;"/></g><!--SRC=[fPDTRvim58Rl_IlEN6aNqK8nxRfL2jmacjIBVKXZqvQRo4qEr8en25ofMzN_NjkCf1ZIZzKNoEOyv_Nx6jDiXQfupGkuvEjjNfVNQZClPLc3hhbgJ0cL9isEklfJOIs5shRGKRW-vMSu1lnG6pT1oBXia91CI8Iom42B36u9c96Lqa1myMaHmb7c1jm2k9eTDQurLxdfexEtckS9N1GyHrXWiwv5fKMfAF362QnIdgzS-K7r4QKlUADjOr_0lZMByJvXrNSUkERxNhjoJNV4IyRsoLxWXht23HkuyUD142IEzCr6_sKsUeNPQCmi6pCRjMN9Br423OAWar26sxL6OwrxGfKQ7xqngvzSNcDt36JsPZerAW5CfmcPVHCtA1kxTc8BKQ1gJDFNsfnVJ7_zNgPpwahVnLzSnlI4kbaQqwYTpUsC98wPfIBBR7euDjh7hNXRGhLnLhtFvvkrhfwAuXJSe-0LK7igEz_mcLVq6SUnwfmQ_i7Dc4nitsG2SGBBE7m7gNtCux1Fi8vWXuYe8w93n4bl5pP2dFPs6IFUztOP8yw6MLYV-33CuX4VXrayudoOnIDOE0pZ8soOXet-ymTk-BzVuxcVdTpT0m00]--></g></svg>