<?xml version="1.0" encoding="us-ascii" standalone="no"?><svg xmlns="http://www.w3.org/2000/svg" xmlns:xlink="http://www.w3.org/1999/xlink" contentStyleType="text/css" height="343px" preserveAspectRatio="none" style="width:505px;height:343px;" version="1.1" viewBox="0 0 505 343" width="505px" zoomAndPan="magnify"><defs/><g><!--cluster multipage.tif--><g id="cluster_multipage.tif"><path d="M6,8.5 L6,333.69 A2.5,2.5 0 0 0 8.5,336.19 L495.5,336.19 A2.5,2.5 0 0 0 498,333.69 L498,16 L488,6 L8.5,6 A2.5,2.5 0 0 0 6,8.5 " fill="none" style="stroke:#181818;stroke-width:1.0;"/><path d="M488,6 L488,13.5 A2.5,2.5 0 0 0 490.5,16 L498,16 " fill="none" style="stroke:#181818;stroke-width:1.0;"/><text fill="#000000" font-family="sans-serif" font-size="14" font-weight="bold" lengthAdjust="spacing" textLength="98" x="203" y="20.9951">multipage.tif</text></g><!--cluster IFD0--><g id="cluster_IFD0"><path d="M32.5,49 L67.5,49 A3.75,3.75 0 0 1 70,51.5 L77,71.2969 L471.5,71.2969 A2.5,2.5 0 0 1 474,73.7969 L474,150.1 A2.5,2.5 0 0 1 471.5,152.6 L32.5,152.6 A2.5,2.5 0 0 1 30,150.1 L30,51.5 A2.5,2.5 0 0 1 32.5,49 " fill="#FFFFFF" style="stroke:#000000;stroke-width:1.5;"/><line style="stroke:#000000;stroke-width:1.5;" x1="30" x2="77" y1="71.2969" y2="71.2969"/><text fill="#000000" font-family="sans-serif" font-size="14" font-weight="bold" lengthAdjust="spacing" textLength="34" x="34" y="63.9951">IFD0</text></g><!--cluster IFD1--><g id="cluster_IFD1"><path d="M115.5,184.6 L150.5,184.6 A3.75,3.75 0 0 1 153,187.1 L160,206.8969 L463.5,206.8969 A2.5,2.5 0 0 1 466,209.3969 L466,301.69 A2.5,2.5 0 0 1 463.5,304.19 L115.5,304.19 A2.5,2.5 0 0 1 113,301.69 L113,187.1 A2.5,2.5 0 0 1 115.5,184.6 " fill="#FFFFFF" style="stroke:#000000;stroke-width:1.5;"/><line style="stroke:#000000;stroke-width:1.5;" x1="113" x2="160" y1="206.8969" y2="206.8969"/><text fill="#000000" font-family="sans-serif" font-size="14" font-weight="bold" lengthAdjust="spacing" textLength="34" x="117" y="199.5951">IFD1</text></g><!--entity IFD0_Tag_NextIFD--><g id="elem_IFD0_Tag_NextIFD"><rect fill="#F1F1F1" height="36.2969" rx="2.5" ry="2.5" style="stroke:#181818;stroke-width:0.5;" width="92.3333" x="365.83" y="92.15"/><path d="M376.83,105.6135 L376.83,109.1135 L382.6633,114.9469 L386.1633,111.4469 L380.33,105.6135 L376.83,105.6135 M379.1633,106.7802 C379.805,106.7802 380.33,107.3052 380.33,107.9469 C380.33,108.5885 379.805,109.1135 379.1633,109.1135 C378.5217,109.1135 377.9967,108.5885 377.9967,107.9469 C377.9967,107.3052 378.5217,106.7802 379.1633,106.7802 " fill="#000000" style="stroke:;stroke-width:0.0;stroke-dasharray:;"/><text fill="#000000" font-family="sans-serif" font-size="14" lengthAdjust="spacing" textLength="57" x="391.1633" y="115.1451">Next IFD</text></g><!--entity IFD0_Tag_PageNumber--><g id="elem_IFD0_Tag_PageNumber"><rect fill="#F1F1F1" height="52.5938" rx="2.5" ry="2.5" style="stroke:#181818;stroke-width:0.5;" width="129.3333" x="201.33" y="84"/><path d="M212.33,97.4635 L212.33,100.9635 L218.1633,106.7969 L221.6633,103.2969 L215.83,97.4635 L212.33,97.4635 M214.6633,98.6302 C215.305,98.6302 215.83,99.1552 215.83,99.7969 C215.83,100.4385 215.305,100.9635 214.6633,100.9635 C214.0217,100.9635 213.4967,100.4385 213.4967,99.7969 C213.4967,99.1552 214.0217,98.6302 214.6633,98.6302 " fill="#000000" style="stroke:;stroke-width:0.0;stroke-dasharray:;"/><text fill="#000000" font-family="sans-serif" font-size="14" lengthAdjust="spacing" textLength="94" x="226.6633" y="106.9951">Page Number</text><text fill="#000000" font-family="sans-serif" font-size="14" font-weight="bold" lengthAdjust="spacing" textLength="10" x="211.33" y="123.292">1</text></g><!--entity IFD0_Data--><g id="elem_IFD0_Data"><rect fill="#F1F1F1" height="36.2969" rx="2.5" ry="2.5" style="stroke:#181818;stroke-width:0.5;" width="120.3333" x="45.83" y="92.15"/><path d="M56.83,105.6135 L56.83,114.9469 L66.1633,114.9469 L66.1633,105.6135 L56.83,105.6135 M57.9967,106.7802 L64.9967,106.7802 L64.9967,110.2802 L63.83,109.1135 L62.6633,110.2802 L64.9967,112.6135 L64.9967,113.7802 L63.83,113.7802 L59.1633,109.1135 L57.9967,110.2802 L57.9967,106.7802 " fill="#000000" style="stroke:;stroke-width:0.0;stroke-dasharray:;"/><text fill="#000000" font-family="sans-serif" font-size="14" lengthAdjust="spacing" textLength="4" x="67.1633" y="115.1451">&#160;</text><text fill="#000000" font-family="sans-serif" font-size="14" font-style="italic" lengthAdjust="spacing" textLength="85" x="71.1633" y="115.1451">Image Bytes</text></g><!--entity IFD1_Tag_PageNumber--><g id="elem_IFD1_Tag_PageNumber"><rect fill="#F1F1F1" height="52.5938" rx="2.5" ry="2.5" style="stroke:#181818;stroke-width:0.5;" width="129.3333" x="312.33" y="227.6"/><path d="M323.33,241.0635 L323.33,244.5635 L329.1633,250.3969 L332.6633,246.8969 L326.83,241.0635 L323.33,241.0635 M325.6633,242.2302 C326.305,242.2302 326.83,242.7552 326.83,243.3969 C326.83,244.0385 326.305,244.5635 325.6633,244.5635 C325.0217,244.5635 324.4967,244.0385 324.4967,243.3969 C324.4967,242.7552 325.0217,242.2302 325.6633,242.2302 " fill="#000000" style="stroke:;stroke-width:0.0;stroke-dasharray:;"/><text fill="#000000" font-family="sans-serif" font-size="14" lengthAdjust="spacing" textLength="94" x="337.6633" y="250.5951">Page Number</text><text fill="#000000" font-family="sans-serif" font-size="14" font-weight="bold" lengthAdjust="spacing" textLength="10" x="322.33" y="266.892">2</text></g><!--entity IFD1_Data--><g id="elem_IFD1_Data"><rect fill="#F1F1F1" height="36.2969" rx="2.5" ry="2.5" style="stroke:#181818;stroke-width:0.5;" width="120.3333" x="156.83" y="235.74"/><path d="M167.83,249.2035 L167.83,258.5369 L177.1633,258.5369 L177.1633,249.2035 L167.83,249.2035 M168.9967,250.3702 L175.9967,250.3702 L175.9967,253.8702 L174.83,252.7035 L173.6633,253.8702 L175.9967,256.2035 L175.9967,257.3702 L174.83,257.3702 L170.1633,252.7035 L168.9967,253.8702 L168.9967,250.3702 " fill="#000000" style="stroke:;stroke-width:0.0;stroke-dasharray:;"/><text fill="#000000" font-family="sans-serif" font-size="14" lengthAdjust="spacing" textLength="4" x="178.1633" y="258.7351">&#160;</text><text fill="#000000" font-family="sans-serif" font-size="14" font-style="italic" lengthAdjust="spacing" textLength="85" x="182.1633" y="258.7351">Image Bytes</text></g><!--link IFD0_Tag_NextIFD to IFD1--><g id="link_IFD0_Tag_NextIFD_IFD1"><path d="M395.34,128.86 C383.37,140.2 366.2,154.01 348,160.6 C326.36,168.43 158.78,153.98 141,168.6 C137.34,171.6088 134.278,175.1533 131.7221,179.0562 C131.0832,180.0319 130.4759,181.03 129.8988,182.0478 C129.6102,182.5567 129.3292,183.0705 129.0556,183.5888 C128.9188,183.848 131.5071,178.7619 131.3739,179.0233 " fill="none" id="IFD0_Tag_NextIFD-to-IFD1" style="stroke:#181818;stroke-width:1.0;"/><polygon fill="#181818" points="128.6506,184.3697,136.2998,178.1656,130.92,179.9144,129.1713,174.5346,128.6506,184.3697" style="stroke:#181818;stroke-width:1.0;"/></g><!--SRC=[hP11Qm8n48Nl-HM3GWyBkcufdieUL0fUf8VsLf1ndSImsUoIp4Ab-D-Rn5BfAgM7pccIzxt9c_XQsmuTDh33gbQkxUr-sPhM0JkqFaXaMVXlwd3io1bjwpCqdbKFEATRmAlTfuP0el4aXDI6eEaDwmuLJLbB-10GIhOceB1-MirWB5DzAR4SLOnM1U_eyOvHbR2XTuxq2D0dr_O5rJRUXiCllkVmB6pwPaVkpMPPaMK_9qJzBDyUefi0b93dwzZ0uiZay_moOuMCoNaIWxsAF-qro7T_oLVyGxxYAj_mws0oAHCfJfy0]--></g></svg>