<?xml version="1.0" encoding="us-ascii" standalone="no"?><svg xmlns="http://www.w3.org/2000/svg" xmlns:xlink="http://www.w3.org/1999/xlink" contentStyleType="text/css" height="428px" preserveAspectRatio="none" style="width:1004px;height:428px;" version="1.1" viewBox="0 0 1004 428" width="1004px" zoomAndPan="magnify"><defs/><g><!--cluster IFD0--><g id="cluster_IFD0"><path d="M137.5,6 L172.5,6 A3.75,3.75 0 0 1 175,8.5 L182,28.2969 L530.5,28.2969 A2.5,2.5 0 0 1 533,30.7969 L533,90.8 A2.5,2.5 0 0 1 530.5,93.3 L137.5,93.3 A2.5,2.5 0 0 1 135,90.8 L135,8.5 A2.5,2.5 0 0 1 137.5,6 " fill="#FFFFFF" style="stroke:#000000;stroke-width:1.5;"/><line style="stroke:#000000;stroke-width:1.5;" x1="135" x2="182" y1="28.2969" y2="28.2969"/><text fill="#000000" font-family="sans-serif" font-size="14" font-weight="bold" lengthAdjust="spacing" textLength="34" x="139" y="20.9951">IFD0</text></g><!--cluster IFD1--><g id="cluster_IFD1"><path d="M8.5,150.3 L43.5,150.3 A3.75,3.75 0 0 1 46,152.8 L53,172.5969 L310.5,172.5969 A2.5,2.5 0 0 1 313,175.0969 L313,251.09 A2.5,2.5 0 0 1 310.5,253.59 L8.5,253.59 A2.5,2.5 0 0 1 6,251.09 L6,152.8 A2.5,2.5 0 0 1 8.5,150.3 " fill="#FFFFFF" style="stroke:#000000;stroke-width:1.5;"/><line style="stroke:#000000;stroke-width:1.5;" x1="6" x2="53" y1="172.5969" y2="172.5969"/><text fill="#000000" font-family="sans-serif" font-size="14" font-weight="bold" lengthAdjust="spacing" textLength="34" x="10" y="165.2951">IFD1</text></g><!--cluster IFDm0s1--><g id="cluster_IFDm0s1"><path d="M355.5,150.3 L380.5,150.3 A3.75,3.75 0 0 1 383,152.8 L390,172.5969 L538.5,172.5969 A2.5,2.5 0 0 1 541,175.0969 L541,251.09 A2.5,2.5 0 0 1 538.5,253.59 L355.5,253.59 A2.5,2.5 0 0 1 353,251.09 L353,152.8 A2.5,2.5 0 0 1 355.5,150.3 " fill="none" style="stroke:#000000;stroke-width:1.5;"/><line style="stroke:#000000;stroke-width:1.5;" x1="353" x2="390" y1="172.5969" y2="172.5969"/><text fill="#000000" font-family="sans-serif" font-size="14" font-weight="bold" lengthAdjust="spacing" textLength="24" x="357" y="165.2951">IFD</text></g><!--cluster IFDm0s2--><g id="cluster_IFDm0s2"><path d="M583.5,150.3 L608.5,150.3 A3.75,3.75 0 0 1 611,152.8 L618,172.5969 L766.5,172.5969 A2.5,2.5 0 0 1 769,175.0969 L769,251.09 A2.5,2.5 0 0 1 766.5,253.59 L583.5,253.59 A2.5,2.5 0 0 1 581,251.09 L581,152.8 A2.5,2.5 0 0 1 583.5,150.3 " fill="none" style="stroke:#000000;stroke-width:1.5;"/><line style="stroke:#000000;stroke-width:1.5;" x1="581" x2="618" y1="172.5969" y2="172.5969"/><text fill="#000000" font-family="sans-serif" font-size="14" font-weight="bold" lengthAdjust="spacing" textLength="24" x="585" y="165.2951">IFD</text></g><!--cluster IFDm0s3--><g id="cluster_IFDm0s3"><path d="M811.5,150.3 L836.5,150.3 A3.75,3.75 0 0 1 839,152.8 L846,172.5969 L994.5,172.5969 A2.5,2.5 0 0 1 997,175.0969 L997,251.09 A2.5,2.5 0 0 1 994.5,253.59 L811.5,253.59 A2.5,2.5 0 0 1 809,251.09 L809,152.8 A2.5,2.5 0 0 1 811.5,150.3 " fill="none" style="stroke:#000000;stroke-width:1.5;"/><line style="stroke:#000000;stroke-width:1.5;" x1="809" x2="846" y1="172.5969" y2="172.5969"/><text fill="#000000" font-family="sans-serif" font-size="14" font-weight="bold" lengthAdjust="spacing" textLength="24" x="813" y="165.2951">IFD</text></g><!--cluster IFDm1s1--><g id="cluster_IFDm1s1"><path d="M13.5,318.59 L38.5,318.59 A3.75,3.75 0 0 1 41,321.09 L48,340.8869 L196.5,340.8869 A2.5,2.5 0 0 1 199,343.3869 L199,419.39 A2.5,2.5 0 0 1 196.5,421.89 L13.5,421.89 A2.5,2.5 0 0 1 11,419.39 L11,321.09 A2.5,2.5 0 0 1 13.5,318.59 " fill="none" style="stroke:#000000;stroke-width:1.5;"/><line style="stroke:#000000;stroke-width:1.5;" x1="11" x2="48" y1="340.8869" y2="340.8869"/><text fill="#000000" font-family="sans-serif" font-size="14" font-weight="bold" lengthAdjust="spacing" textLength="24" x="15" y="333.5851">IFD</text></g><!--cluster IFDm1s2--><g id="cluster_IFDm1s2"><path d="M241.5,318.59 L266.5,318.59 A3.75,3.75 0 0 1 269,321.09 L276,340.8869 L424.5,340.8869 A2.5,2.5 0 0 1 427,343.3869 L427,419.39 A2.5,2.5 0 0 1 424.5,421.89 L241.5,421.89 A2.5,2.5 0 0 1 239,419.39 L239,321.09 A2.5,2.5 0 0 1 241.5,318.59 " fill="none" style="stroke:#000000;stroke-width:1.5;"/><line style="stroke:#000000;stroke-width:1.5;" x1="239" x2="276" y1="340.8869" y2="340.8869"/><text fill="#000000" font-family="sans-serif" font-size="14" font-weight="bold" lengthAdjust="spacing" textLength="24" x="243" y="333.5851">IFD</text></g><!--cluster IFDm1s3--><g id="cluster_IFDm1s3"><path d="M469.5,318.59 L494.5,318.59 A3.75,3.75 0 0 1 497,321.09 L504,340.8869 L652.5,340.8869 A2.5,2.5 0 0 1 655,343.3869 L655,419.39 A2.5,2.5 0 0 1 652.5,421.89 L469.5,421.89 A2.5,2.5 0 0 1 467,419.39 L467,321.09 A2.5,2.5 0 0 1 469.5,318.59 " fill="none" style="stroke:#000000;stroke-width:1.5;"/><line style="stroke:#000000;stroke-width:1.5;" x1="467" x2="504" y1="340.8869" y2="340.8869"/><text fill="#000000" font-family="sans-serif" font-size="14" font-weight="bold" lengthAdjust="spacing" textLength="24" x="471" y="333.5851">IFD</text></g><!--entity IFD0_Tag_NextIFD--><g id="elem_IFD0_Tag_NextIFD"><rect fill="#F1F1F1" height="36.2969" rx="2.5" ry="2.5" style="stroke:#181818;stroke-width:0.5;" width="92.3333" x="305.83" y="41"/><path d="M316.83,54.4635 L316.83,57.9635 L322.6633,63.7969 L326.1633,60.2969 L320.33,54.4635 L316.83,54.4635 M319.1633,55.6302 C319.805,55.6302 320.33,56.1552 320.33,56.7969 C320.33,57.4385 319.805,57.9635 319.1633,57.9635 C318.5217,57.9635 317.9967,57.4385 317.9967,56.7969 C317.9967,56.1552 318.5217,55.6302 319.1633,55.6302 " fill="#000000" style="stroke:;stroke-width:0.0;stroke-dasharray:;"/><text fill="#000000" font-family="sans-serif" font-size="14" lengthAdjust="spacing" textLength="57" x="331.1633" y="63.9951">Next IFD</text></g><!--entity IFD0_Tag_SubIFD--><g id="elem_IFD0_Tag_SubIFD"><rect fill="#F1F1F1" height="36.2969" rx="2.5" ry="2.5" style="stroke:#181818;stroke-width:0.5;" width="84.3333" x="432.83" y="41"/><path d="M443.83,54.4635 L443.83,57.9635 L449.6633,63.7969 L453.1633,60.2969 L447.33,54.4635 L443.83,54.4635 M446.1633,55.6302 C446.805,55.6302 447.33,56.1552 447.33,56.7969 C447.33,57.4385 446.805,57.9635 446.1633,57.9635 C445.5217,57.9635 444.9967,57.4385 444.9967,56.7969 C444.9967,56.1552 445.5217,55.6302 446.1633,55.6302 " fill="#000000" style="stroke:;stroke-width:0.0;stroke-dasharray:;"/><text fill="#000000" font-family="sans-serif" font-size="14" lengthAdjust="spacing" textLength="49" x="458.1633" y="63.9951">SubIFD</text></g><!--entity IFD0_Data--><g id="elem_IFD0_Data"><rect fill="#F1F1F1" height="36.2969" rx="2.5" ry="2.5" style="stroke:#181818;stroke-width:0.5;" width="120.3333" x="150.83" y="41"/><path d="M161.83,54.4635 L161.83,63.7969 L171.1633,63.7969 L171.1633,54.4635 L161.83,54.4635 M162.9967,55.6302 L169.9967,55.6302 L169.9967,59.1302 L168.83,57.9635 L167.6633,59.1302 L169.9967,61.4635 L169.9967,62.6302 L168.83,62.6302 L164.1633,57.9635 L162.9967,59.1302 L162.9967,55.6302 " fill="#000000" style="stroke:;stroke-width:0.0;stroke-dasharray:;"/><text fill="#000000" font-family="sans-serif" font-size="14" lengthAdjust="spacing" textLength="4" x="172.1633" y="63.9951">&#160;</text><text fill="#000000" font-family="sans-serif" font-size="14" font-style="italic" lengthAdjust="spacing" textLength="85" x="176.1633" y="63.9951">Image Bytes</text></g><!--entity IFD1_Tag_SubIFD--><g id="elem_IFD1_Tag_SubIFD"><rect fill="#F1F1F1" height="36.2969" rx="2.5" ry="2.5" style="stroke:#181818;stroke-width:0.5;" width="84.3333" x="204.83" y="193.3"/><path d="M215.83,206.7635 L215.83,210.2635 L221.6633,216.0969 L225.1633,212.5969 L219.33,206.7635 L215.83,206.7635 M218.1633,207.9302 C218.805,207.9302 219.33,208.4552 219.33,209.0969 C219.33,209.7385 218.805,210.2635 218.1633,210.2635 C217.5217,210.2635 216.9967,209.7385 216.9967,209.0969 C216.9967,208.4552 217.5217,207.9302 218.1633,207.9302 " fill="#000000" style="stroke:;stroke-width:0.0;stroke-dasharray:;"/><text fill="#000000" font-family="sans-serif" font-size="14" lengthAdjust="spacing" textLength="49" x="230.1633" y="216.2951">SubIFD</text></g><!--entity IFD1_Data--><g id="elem_IFD1_Data"><rect fill="#F1F1F1" height="36.2969" rx="2.5" ry="2.5" style="stroke:#181818;stroke-width:0.5;" width="120.3333" x="49.83" y="193.3"/><path d="M60.83,206.7635 L60.83,216.0969 L70.1633,216.0969 L70.1633,206.7635 L60.83,206.7635 M61.9967,207.9302 L68.9967,207.9302 L68.9967,211.4302 L67.83,210.2635 L66.6633,211.4302 L68.9967,213.7635 L68.9967,214.9302 L67.83,214.9302 L63.1633,210.2635 L61.9967,211.4302 L61.9967,207.9302 " fill="#000000" style="stroke:;stroke-width:0.0;stroke-dasharray:;"/><text fill="#000000" font-family="sans-serif" font-size="14" lengthAdjust="spacing" textLength="4" x="71.1633" y="216.2951">&#160;</text><text fill="#000000" font-family="sans-serif" font-size="14" font-style="italic" lengthAdjust="spacing" textLength="85" x="75.1633" y="216.2951">Image Bytes</text></g><!--entity IFDm0s1_Data--><g id="elem_IFDm0s1_Data"><rect fill="#F1F1F1" height="36.2969" rx="2.5" ry="2.5" style="stroke:#181818;stroke-width:0.5;" width="120.3333" x="396.83" y="193.3"/><path d="M407.83,206.7635 L407.83,216.0969 L417.1633,216.0969 L417.1633,206.7635 L407.83,206.7635 M408.9967,207.9302 L415.9967,207.9302 L415.9967,211.4302 L414.83,210.2635 L413.6633,211.4302 L415.9967,213.7635 L415.9967,214.9302 L414.83,214.9302 L410.1633,210.2635 L408.9967,211.4302 L408.9967,207.9302 " fill="#000000" style="stroke:;stroke-width:0.0;stroke-dasharray:;"/><text fill="#000000" font-family="sans-serif" font-size="14" lengthAdjust="spacing" textLength="4" x="418.1633" y="216.2951">&#160;</text><text fill="#000000" font-family="sans-serif" font-size="14" font-style="italic" lengthAdjust="spacing" textLength="85" x="422.1633" y="216.2951">Image Bytes</text></g><!--entity IFDm0s2_Data--><g id="elem_IFDm0s2_Data"><rect fill="#F1F1F1" height="36.2969" rx="2.5" ry="2.5" style="stroke:#181818;stroke-width:0.5;" width="120.3333" x="624.83" y="193.3"/><path d="M635.83,206.7635 L635.83,216.0969 L645.1633,216.0969 L645.1633,206.7635 L635.83,206.7635 M636.9967,207.9302 L643.9967,207.9302 L643.9967,211.4302 L642.83,210.2635 L641.6633,211.4302 L643.9967,213.7635 L643.9967,214.9302 L642.83,214.9302 L638.1633,210.2635 L636.9967,211.4302 L636.9967,207.9302 " fill="#000000" style="stroke:;stroke-width:0.0;stroke-dasharray:;"/><text fill="#000000" font-family="sans-serif" font-size="14" lengthAdjust="spacing" textLength="4" x="646.1633" y="216.2951">&#160;</text><text fill="#000000" font-family="sans-serif" font-size="14" font-style="italic" lengthAdjust="spacing" textLength="85" x="650.1633" y="216.2951">Image Bytes</text></g><!--entity IFDm0s3_Data--><g id="elem_IFDm0s3_Data"><rect fill="#F1F1F1" height="36.2969" rx="2.5" ry="2.5" style="stroke:#181818;stroke-width:0.5;" width="120.3333" x="852.83" y="193.3"/><path d="M863.83,206.7635 L863.83,216.0969 L873.1633,216.0969 L873.1633,206.7635 L863.83,206.7635 M864.9967,207.9302 L871.9967,207.9302 L871.9967,211.4302 L870.83,210.2635 L869.6633,211.4302 L871.9967,213.7635 L871.9967,214.9302 L870.83,214.9302 L866.1633,210.2635 L864.9967,211.4302 L864.9967,207.9302 " fill="#000000" style="stroke:;stroke-width:0.0;stroke-dasharray:;"/><text fill="#000000" font-family="sans-serif" font-size="14" lengthAdjust="spacing" textLength="4" x="874.1633" y="216.2951">&#160;</text><text fill="#000000" font-family="sans-serif" font-size="14" font-style="italic" lengthAdjust="spacing" textLength="85" x="878.1633" y="216.2951">Image Bytes</text></g><!--entity IFDm1s1_Data--><g id="elem_IFDm1s1_Data"><rect fill="#F1F1F1" height="36.2969" rx="2.5" ry="2.5" style="stroke:#181818;stroke-width:0.5;" width="120.3333" x="54.83" y="361.59"/><path d="M65.83,375.0535 L65.83,384.3869 L75.1633,384.3869 L75.1633,375.0535 L65.83,375.0535 M66.9967,376.2202 L73.9967,376.2202 L73.9967,379.7202 L72.83,378.5535 L71.6633,379.7202 L73.9967,382.0535 L73.9967,383.2202 L72.83,383.2202 L68.1633,378.5535 L66.9967,379.7202 L66.9967,376.2202 " fill="#000000" style="stroke:;stroke-width:0.0;stroke-dasharray:;"/><text fill="#000000" font-family="sans-serif" font-size="14" lengthAdjust="spacing" textLength="4" x="76.1633" y="384.5851">&#160;</text><text fill="#000000" font-family="sans-serif" font-size="14" font-style="italic" lengthAdjust="spacing" textLength="85" x="80.1633" y="384.5851">Image Bytes</text></g><!--entity IFDm1s2_Data--><g id="elem_IFDm1s2_Data"><rect fill="#F1F1F1" height="36.2969" rx="2.5" ry="2.5" style="stroke:#181818;stroke-width:0.5;" width="120.3333" x="282.83" y="361.59"/><path d="M293.83,375.0535 L293.83,384.3869 L303.1633,384.3869 L303.1633,375.0535 L293.83,375.0535 M294.9967,376.2202 L301.9967,376.2202 L301.9967,379.7202 L300.83,378.5535 L299.6633,379.7202 L301.9967,382.0535 L301.9967,383.2202 L300.83,383.2202 L296.1633,378.5535 L294.9967,379.7202 L294.9967,376.2202 " fill="#000000" style="stroke:;stroke-width:0.0;stroke-dasharray:;"/><text fill="#000000" font-family="sans-serif" font-size="14" lengthAdjust="spacing" textLength="4" x="304.1633" y="384.5851">&#160;</text><text fill="#000000" font-family="sans-serif" font-size="14" font-style="italic" lengthAdjust="spacing" textLength="85" x="308.1633" y="384.5851">Image Bytes</text></g><!--entity IFDm1s3_Data--><g id="elem_IFDm1s3_Data"><rect fill="#F1F1F1" height="36.2969" rx="2.5" ry="2.5" style="stroke:#181818;stroke-width:0.5;" width="120.3333" x="510.83" y="361.59"/><path d="M521.83,375.0535 L521.83,384.3869 L531.1633,384.3869 L531.1633,375.0535 L521.83,375.0535 M522.9967,376.2202 L529.9967,376.2202 L529.9967,379.7202 L528.83,378.5535 L527.6633,379.7202 L529.9967,382.0535 L529.9967,383.2202 L528.83,383.2202 L524.1633,378.5535 L522.9967,379.7202 L522.9967,376.2202 " fill="#000000" style="stroke:;stroke-width:0.0;stroke-dasharray:;"/><text fill="#000000" font-family="sans-serif" font-size="14" lengthAdjust="spacing" textLength="4" x="532.1633" y="384.5851">&#160;</text><text fill="#000000" font-family="sans-serif" font-size="14" font-style="italic" lengthAdjust="spacing" textLength="85" x="536.1633" y="384.5851">Image Bytes</text></g><!--link IFD0_Tag_NextIFD to IFD1--><g id="link_IFD0_Tag_NextIFD_IFD1"><path d="M330.58,77.63 C318.96,86.17 303.95,95.78 289,101.3 C235.4,121.08 76.91,96.56 34,134.3 C30.8175,137.0975 28.1125,140.3341 25.816,143.8623 C24.6678,145.6265 23.6217,147.4635 22.6691,149.3551 C22.55,149.5915 25.0632,144.4364 24.9471,144.6745 " fill="none" id="IFD0_Tag_NextIFD-to-IFD1" style="stroke:#181818;stroke-width:1.0;stroke-dasharray:7.0,7.0;"/><polygon fill="#181818" points="22.3162,150.0669,29.8575,143.7322,24.5086,145.5732,22.6675,140.2243,22.3162,150.0669" style="stroke:#181818;stroke-width:1.0;"/></g><!--link IFD0_Tag_SubIFD to IFDm0s1--><g id="link_IFD0_Tag_SubIFD_IFDm0s1"><path d="M449.1,77.74 C424.55,94.9 390.11,120.39 381,134.3 C378.6788,137.8438 376.6264,141.6458 374.8119,145.5916 C374.3582,146.578 373.9195,147.5735 373.4951,148.5761 C373.2829,149.0774 375.3329,144.0219 375.1278,144.5266 " fill="none" id="IFD0_Tag_SubIFD-to-IFDm0s1" style="stroke:#181818;stroke-width:1.0;stroke-dasharray:7.0,7.0;"/><polygon fill="#181818" points="372.8692,150.0852,379.9629,143.253,374.7514,145.453,372.5514,140.2415,372.8692,150.0852" style="stroke:#181818;stroke-width:1.0;"/><text fill="#000000" font-family="sans-serif" font-size="13" lengthAdjust="spacing" textLength="8" x="406" y="122.3669">0</text></g><!--link IFD0_Tag_SubIFD to IFDm0s2--><g id="link_IFD0_Tag_SubIFD_IFDm0s2"><path d="M488.98,77.71 C500.82,92.66 518.18,114.76 533,134.3 C545.3,150.51 558.8225,168.8825 569.4975,183.5188 C572.1663,187.1778 574.657,190.6034 576.9063,193.7032 C578.0309,195.2532 579.0951,196.7217 580.091,198.0972 C580.3399,198.4411 577.0673,193.9183 577.3076,194.2504 " fill="none" id="IFD0_Tag_SubIFD-to-IFDm0s2" style="stroke:#181818;stroke-width:1.0;stroke-dasharray:7.0,7.0;"/><polygon fill="#181818" points="580.8249,199.1113,578.7895,189.4751,577.8938,195.0606,572.3083,194.1648,580.8249,199.1113" style="stroke:#181818;stroke-width:1.0;"/><text fill="#000000" font-family="sans-serif" font-size="13" lengthAdjust="spacing" textLength="8" x="527" y="122.3669">1</text></g><!--link IFD0_Tag_SubIFD to IFDm0s3--><g id="link_IFD0_Tag_SubIFD_IFDm0s3"><path d="M517.42,62.35 C576.66,67.25 685.4,83.11 761,134.3 C777.85,145.705 791.515,163.9275 801.1275,179.6863 C803.5306,183.6259 805.6805,187.4116 807.5635,190.8983 C808.0342,191.77 805.6975,187.3116 806.1346,188.1436 " fill="none" id="IFD0_Tag_SubIFD-to-IFDm0s3" style="stroke:#181818;stroke-width:1.0;stroke-dasharray:7.0,7.0;"/><polygon fill="#181818" points="808.9255,193.455,808.2802,183.6273,806.5998,189.0289,801.1983,187.3485,808.9255,193.455" style="stroke:#181818;stroke-width:1.0;"/><text fill="#000000" font-family="sans-serif" font-size="13" lengthAdjust="spacing" textLength="8" x="748" y="122.3669">2</text></g><!--link IFD1_Tag_SubIFD to IFDm1s1--><g id="link_IFD1_Tag_SubIFD_IFDm1s1"><path d="M233.61,229.83 C222.72,242.76 206.21,259.79 188,269.59 C128.27,301.74 87.88,255.57 39,302.59 C35.9463,305.5275 33.3388,308.8703 31.1142,312.4772 C30.002,314.2806 28.9854,316.1501 28.0567,318.0679 C27.9987,318.1878 30.5244,312.8925 30.467,313.0127 " fill="none" id="IFD1_Tag_SubIFD-to-IFDm1s1" style="stroke:#181818;stroke-width:1.0;stroke-dasharray:7.0,7.0;"/><polygon fill="#181818" points="27.8836,318.428,35.369,312.0273,30.0365,313.9152,28.1485,308.5827,27.8836,318.428" style="stroke:#181818;stroke-width:1.0;"/><text fill="#000000" font-family="sans-serif" font-size="13" lengthAdjust="spacing" textLength="8" x="169" y="290.6569">0</text></g><!--link IFD1_Tag_SubIFD to IFDm1s2--><g id="link_IFD1_Tag_SubIFD_IFDm1s2"><path d="M247,229.93 C247,240.4375 247,254.7856 247,270.4477 C247,278.2787 247,286.4382 247,294.6103 C247,298.6964 247,302.7856 247,306.8385 C247,308.8649 247,310.8823 247,312.8857 C247,313.8873 247,314.8855 247,315.8796 C247,316.3766 247,316.8726 247,317.3675 C247,317.6149 247,311.8621 247,312.109 " fill="none" id="IFD1_Tag_SubIFD-to-IFDm1s2" style="stroke:#181818;stroke-width:1.0;stroke-dasharray:7.0,7.0;"/><polygon fill="#181818" points="247,318.109,251,309.109,247,313.109,243,309.109,247,318.109" style="stroke:#181818;stroke-width:1.0;"/><text fill="#000000" font-family="sans-serif" font-size="13" lengthAdjust="spacing" textLength="8" x="248" y="290.6569">1</text></g><!--link IFD1_Tag_SubIFD to IFDm1s3--><g id="link_IFD1_Tag_SubIFD_IFDm1s3"><path d="M275.28,230.03 C294.61,241.78 320.99,257.28 345,269.59 C377.05,286.02 390.96,280 419,302.59 C434.845,315.355 448.48,333.62 458.3275,349.0625 C460.7894,352.9231 463.0145,356.6073 464.9783,359.9851 C465.4693,360.8296 465.9439,361.6549 466.4018,362.459 C466.5162,362.66 466.6297,362.8597 466.742,363.058 C466.7982,363.1572 463.9021,358.0325 463.9578,358.131 " fill="none" id="IFD1_Tag_SubIFD-to-IFDm1s3" style="stroke:#181818;stroke-width:1.0;stroke-dasharray:7.0,7.0;"/><polygon fill="#181818" points="466.9098,363.3545,465.9641,353.5512,464.4498,359.0016,458.9994,357.4873,466.9098,363.3545" style="stroke:#181818;stroke-width:1.0;"/><text fill="#000000" font-family="sans-serif" font-size="13" lengthAdjust="spacing" textLength="8" x="407" y="290.6569">2</text></g><!--SRC=[fP0nJyCm48Lt_ufJAp4skGGn89G1AgGkBC1SNLF7H76SodObAiH_nt6WD2I6AdYop-_vUtwcAjMEDDMmeRmIkjchxLqZ6mrMapBkYYlBp57rSjXnBKjLTQ9vd5_I5HyJFAkjtt0eI1hEMD58Du7L_JA6UU4Nl35mI_FSaXAIm-pcmfB8u86_sbOv0pBUiNuYiMwdxX3mFEut0qSt6nhAcWJF88fMxGPk3vQRAFhsBiaIUp_DZ7zcxlFn7tmyydz-7HQBp2jEetswwjZWMBZVMQrhYEjoVz7yozSGZqEJIT3a36ZYe86VffEWwHdGr46JCIXEgXVxzU8O5CFrugHwiLzl01gi5oVLY_rw0r1VxmS0]--></g></svg>