<?xml version="1.0" encoding="us-ascii" standalone="no"?><svg xmlns="http://www.w3.org/2000/svg" xmlns:xlink="http://www.w3.org/1999/xlink" contentStyleType="text/css" height="453px" preserveAspectRatio="none" style="width:392px;height:453px;" version="1.1" viewBox="0 0 392 453" width="392px" zoomAndPan="magnify"><defs/><g><!--cluster multipage.tif--><g id="cluster_multipage.tif"><path d="M6,8.5 L6,444.39 A2.5,2.5 0 0 0 8.5,446.89 L382.5,446.89 A2.5,2.5 0 0 0 385,444.39 L385,16 L375,6 L8.5,6 A2.5,2.5 0 0 0 6,8.5 " fill="none" style="stroke:#181818;stroke-width:1.0;"/><path d="M375,6 L375,13.5 A2.5,2.5 0 0 0 377.5,16 L385,16 " fill="none" style="stroke:#181818;stroke-width:1.0;"/><text fill="#000000" font-family="sans-serif" font-size="14" font-weight="bold" lengthAdjust="spacing" textLength="98" x="146.5" y="20.9951">multipage.tif</text></g><!--cluster IFD0--><g id="cluster_IFD0"><path d="M32.5,49 L67.5,49 A3.75,3.75 0 0 1 70,51.5 L77,71.2969 L306.5,71.2969 A2.5,2.5 0 0 1 309,73.7969 L309,133.8 A2.5,2.5 0 0 1 306.5,136.3 L32.5,136.3 A2.5,2.5 0 0 1 30,133.8 L30,51.5 A2.5,2.5 0 0 1 32.5,49 " fill="#FFFFFF" style="stroke:#000000;stroke-width:1.5;"/><line style="stroke:#000000;stroke-width:1.5;" x1="30" x2="77" y1="71.2969" y2="71.2969"/><text fill="#000000" font-family="sans-serif" font-size="14" font-weight="bold" lengthAdjust="spacing" textLength="34" x="34" y="63.9951">IFD0</text></g><!--cluster IFD1--><g id="cluster_IFD1"><path d="M40.5,168.3 L75.5,168.3 A3.75,3.75 0 0 1 78,170.8 L85,190.5969 L350.5,190.5969 A2.5,2.5 0 0 1 353,193.0969 L353,269.09 A2.5,2.5 0 0 1 350.5,271.59 L40.5,271.59 A2.5,2.5 0 0 1 38,269.09 L38,170.8 A2.5,2.5 0 0 1 40.5,168.3 " fill="#FFFFFF" style="stroke:#000000;stroke-width:1.5;"/><line style="stroke:#000000;stroke-width:1.5;" x1="38" x2="85" y1="190.5969" y2="190.5969"/><text fill="#000000" font-family="sans-serif" font-size="14" font-weight="bold" lengthAdjust="spacing" textLength="34" x="42" y="183.2951">IFD1</text></g><!--cluster IFD2--><g id="cluster_IFD2"><path d="M167.5,311.59 L202.5,311.59 A3.75,3.75 0 0 1 205,314.09 L212,333.8869 L350.5,333.8869 A2.5,2.5 0 0 1 353,336.3869 L353,412.39 A2.5,2.5 0 0 1 350.5,414.89 L167.5,414.89 A2.5,2.5 0 0 1 165,412.39 L165,314.09 A2.5,2.5 0 0 1 167.5,311.59 " fill="#FFFFFF" style="stroke:#000000;stroke-width:1.5;"/><line style="stroke:#000000;stroke-width:1.5;" x1="165" x2="212" y1="333.8869" y2="333.8869"/><text fill="#000000" font-family="sans-serif" font-size="14" font-weight="bold" lengthAdjust="spacing" textLength="34" x="169" y="326.5851">IFD2</text></g><!--entity IFD0_Tag_NextIFD--><g id="elem_IFD0_Tag_NextIFD"><rect fill="#F1F1F1" height="36.2969" rx="2.5" ry="2.5" style="stroke:#181818;stroke-width:0.5;" width="92.3333" x="200.83" y="84"/><path d="M211.83,97.4635 L211.83,100.9635 L217.6633,106.7969 L221.1633,103.2969 L215.33,97.4635 L211.83,97.4635 M214.1633,98.6302 C214.805,98.6302 215.33,99.1552 215.33,99.7969 C215.33,100.4385 214.805,100.9635 214.1633,100.9635 C213.5217,100.9635 212.9967,100.4385 212.9967,99.7969 C212.9967,99.1552 213.5217,98.6302 214.1633,98.6302 " fill="#000000" style="stroke:;stroke-width:0.0;stroke-dasharray:;"/><text fill="#000000" font-family="sans-serif" font-size="14" lengthAdjust="spacing" textLength="57" x="226.1633" y="106.9951">Next IFD</text></g><!--entity IFD0_Data--><g id="elem_IFD0_Data"><rect fill="#F1F1F1" height="36.2969" rx="2.5" ry="2.5" style="stroke:#181818;stroke-width:0.5;" width="120.3333" x="45.83" y="84"/><path d="M56.83,97.4635 L56.83,106.7969 L66.1633,106.7969 L66.1633,97.4635 L56.83,97.4635 M57.9967,98.6302 L64.9967,98.6302 L64.9967,102.1302 L63.83,100.9635 L62.6633,102.1302 L64.9967,104.4635 L64.9967,105.6302 L63.83,105.6302 L59.1633,100.9635 L57.9967,102.1302 L57.9967,98.6302 " fill="#000000" style="stroke:;stroke-width:0.0;stroke-dasharray:;"/><text fill="#000000" font-family="sans-serif" font-size="14" lengthAdjust="spacing" textLength="4" x="67.1633" y="106.9951">&#160;</text><text fill="#000000" font-family="sans-serif" font-size="14" font-style="italic" lengthAdjust="spacing" textLength="85" x="71.1633" y="106.9951">Image Bytes</text></g><!--entity IFD1_Tag_NextIFD--><g id="elem_IFD1_Tag_NextIFD"><rect fill="#F1F1F1" height="36.2969" rx="2.5" ry="2.5" style="stroke:#181818;stroke-width:0.5;" width="92.3333" x="236.83" y="211.3"/><path d="M247.83,224.7635 L247.83,228.2635 L253.6633,234.0969 L257.1633,230.5969 L251.33,224.7635 L247.83,224.7635 M250.1633,225.9302 C250.805,225.9302 251.33,226.4552 251.33,227.0969 C251.33,227.7385 250.805,228.2635 250.1633,228.2635 C249.5217,228.2635 248.9967,227.7385 248.9967,227.0969 C248.9967,226.4552 249.5217,225.9302 250.1633,225.9302 " fill="#000000" style="stroke:;stroke-width:0.0;stroke-dasharray:;"/><text fill="#000000" font-family="sans-serif" font-size="14" lengthAdjust="spacing" textLength="57" x="262.1633" y="234.2951">Next IFD</text></g><!--entity IFD1_Data--><g id="elem_IFD1_Data"><rect fill="#F1F1F1" height="36.2969" rx="2.5" ry="2.5" style="stroke:#181818;stroke-width:0.5;" width="120.3333" x="81.83" y="211.3"/><path d="M92.83,224.7635 L92.83,234.0969 L102.1633,234.0969 L102.1633,224.7635 L92.83,224.7635 M93.9967,225.9302 L100.9967,225.9302 L100.9967,229.4302 L99.83,228.2635 L98.6633,229.4302 L100.9967,231.7635 L100.9967,232.9302 L99.83,232.9302 L95.1633,228.2635 L93.9967,229.4302 L93.9967,225.9302 " fill="#000000" style="stroke:;stroke-width:0.0;stroke-dasharray:;"/><text fill="#000000" font-family="sans-serif" font-size="14" lengthAdjust="spacing" textLength="4" x="103.1633" y="234.2951">&#160;</text><text fill="#000000" font-family="sans-serif" font-size="14" font-style="italic" lengthAdjust="spacing" textLength="85" x="107.1633" y="234.2951">Image Bytes</text></g><!--entity IFD2_Data--><g id="elem_IFD2_Data"><rect fill="#F1F1F1" height="36.2969" rx="2.5" ry="2.5" style="stroke:#181818;stroke-width:0.5;" width="120.3333" x="208.83" y="354.59"/><path d="M219.83,368.0535 L219.83,377.3869 L229.1633,377.3869 L229.1633,368.0535 L219.83,368.0535 M220.9967,369.2202 L227.9967,369.2202 L227.9967,372.7202 L226.83,371.5535 L225.6633,372.7202 L227.9967,375.0535 L227.9967,376.2202 L226.83,376.2202 L222.1633,371.5535 L220.9967,372.7202 L220.9967,369.2202 " fill="#000000" style="stroke:;stroke-width:0.0;stroke-dasharray:;"/><text fill="#000000" font-family="sans-serif" font-size="14" lengthAdjust="spacing" textLength="4" x="230.1633" y="377.5851">&#160;</text><text fill="#000000" font-family="sans-serif" font-size="14" font-style="italic" lengthAdjust="spacing" textLength="85" x="234.1633" y="377.5851">Image Bytes</text></g><!--link IFD0_Tag_NextIFD to IFD1--><g id="link_IFD0_Tag_NextIFD_IFD1"><path d="M225.99,120.8 C214.38,129.5 199.24,139.19 184,144.3 C159.08,152.64 86.26,135.55 66,152.3 C62.7338,155 59.9653,158.1627 57.622,161.6363 C56.4504,163.3732 55.385,165.1878 54.4168,167.0611 C54.2958,167.2953 54.1763,167.5304 54.0583,167.7664 C53.9993,167.8844 56.589,162.6187 56.5308,162.7371 " fill="none" id="IFD0_Tag_NextIFD-to-IFD1" style="stroke:#181818;stroke-width:1.0;stroke-dasharray:7.0,7.0;"/><polygon fill="#181818" points="53.8824,168.121,61.4442,161.8107,56.0894,163.6344,54.2657,158.2796,53.8824,168.121" style="stroke:#181818;stroke-width:1.0;"/></g><!--link IFD1_Tag_NextIFD to IFD2--><g id="link_IFD1_Tag_NextIFD_IFD2"><path d="M267.77,247.97 C255.91,260.62 238.4,277.24 220,287.59 C209.09,293.73 201.71,286.61 193,295.59 C190.0512,298.6325 187.5234,302.0548 185.3579,305.7204 C184.2751,307.5532 185.8315,304.015 184.9225,305.9523 " fill="none" id="IFD1_Tag_NextIFD-to-IFD2" style="stroke:#181818;stroke-width:1.0;stroke-dasharray:7.0,7.0;"/><polygon fill="#181818" points="182.3738,311.3841,189.818,304.9355,184.4977,306.8576,182.5756,301.5373,182.3738,311.3841" style="stroke:#181818;stroke-width:1.0;"/></g><!--SRC=[fO_DQiCm48JlUeebWHpzH-Yf-D2QGYuzfUUmSLQgi2mPQGCD8UzUMIa9kAQ5TauhxJUQKUYq7T1Z3tjiE-NTqHwUdN4UsACDSKMMHRXHxwU1lD6skqBBebtZ0yq1R_QG1WA99f0GKXk2_cXO3wWeOotXB21AEXDHsBmq1InbqjTcbAUMqQheNJok65KDh_J18xq03CcrswBQZRVnCE_JVOoi8Sytum1F9wQGv_S76cHCpekOL2h_LAdyRwNoMwNfHo7BwaHE6rU_DVuvkPfBBkUIAt7v1000]--></g></svg>